<?xml version="1.0" encoding="utf-8"?>
<!-- Generator: Adobe Illustrator 28.1.0, SVG Export Plug-In . SVG Version: 6.00 Build 0)  -->
<svg version="1.1" id="Layer_1" xmlns="http://www.w3.org/2000/svg" xmlns:xlink="http://www.w3.org/1999/xlink" x="0px" y="0px"
	 viewBox="0 0 500 500" style="enable-background:new 0 0 500 500;" xml:space="preserve">
<style type="text/css">
	.st0{fill:#C2C7CD;}
	.st1{fill:#0F2D52;}
	.st2{fill:#FDFDFE;}
	.st3{fill:#B61F37;}
	.st4{fill:#C1C6CC;}
</style>
<g>
	<path class="st0" d="M56.25,125.64c2.68,3.69,5.53,6.84,9.88,8.88c-0.46-4.91-1.37-9.49-0.87-14.21c0.51-4.8,1.34-9.5,2.91-14.04
		c1.55-4.45,3.37-8.81,6.11-12.85c0.74,0.5,0.88,1.14,1.14,1.68c2.21,4.57,5.4,8.32,9.26,11.61c4.73,4.03,9.69,7.7,15.09,10.77
		c4.18,2.37,8.48,4.51,12.82,6.6c3.82,1.84,7.69,3.5,11.59,5.15c1.86,0.79,3.58,1.04,5.63,0.46c5.88-1.67,11.9-2.82,17.85-4.26
		c7.36-1.78,14.82-2.95,22.27-4.24c5.71-0.99,11.47-1.64,17.2-2.51c2.8-0.43,5.64-0.57,8.46-0.86c3.26-0.34,6.51-0.72,9.77-1.06
		c1.63-0.17,3.28-0.27,4.9-0.34c2.84-0.12,5.68-0.34,8.5-0.58c3.59-0.3,7.18-0.21,10.77-0.56c3.39-0.33,6.84,0.03,10.25-0.17
		c4.99-0.3,9.99-0.46,14.98-0.23c5.12,0.24,10.25,0.1,15.36,0.36c4.66,0.24,9.34,0.38,13.99,0.76c3.95,0.32,7.92,0.56,11.87,0.97
		c3.13,0.32,6.28,0.6,9.41,0.9c3.7,0.35,7.37,0.96,11.06,1.37c2.95,0.33,5.88,0.74,8.8,1.21c3.54,0.58,7.11,1.02,10.64,1.65
		c4.4,0.78,8.8,1.63,13.17,2.55c3.94,0.83,7.86,1.79,11.78,2.71c4.24,0.99,8.48,1.95,12.66,3.2c0.74,0.22,1.36,0.1,2.02-0.17
		c4.39-1.77,8.83-3.38,13.07-5.55c3.26-1.67,6.59-3.22,9.87-4.86c4.14-2.06,8.11-4.41,11.88-7.09c4.64-3.31,9.08-6.87,12.86-11.17
		c1.97-2.24,3.52-4.79,4.64-7.57c0.12-0.29,0.15-0.62,0.71-0.92c3.81,6.13,6.49,12.7,8,19.77c1.52,7.05,1.68,14.11,0,21.44
		c4.57-1.7,7.11-5.39,10.24-8.75c5.25,10.31,6.01,20.65,2.04,31.2c0.38,0.59,0.86,0.44,1.27,0.44c1.46,0.02,2.91-0.04,4.37,0.02
		c2.52,0.1,4.11,1.74,4.15,4.22c0.03,1.77,0.09,3.55-0.02,5.32c-0.07,1.16,0.39,1.88,1.28,2.51c2.52,1.8,5.03,3.62,7.32,5.71
		c4.95,4.5,10.02,8.86,14.2,14.17c2.93,3.73,5.89,7.42,8.34,11.49c4.51,7.49,7.69,15.48,9.18,24.12c0.44,2.55,0.49,5.15,0.86,7.69
		c0.47,3.26,0.05,6.45-0.21,9.63c-0.46,5.73-1.92,11.3-3.95,16.71c-3.22,8.57-8.01,16.21-13.85,23.17
		c-5.08,6.06-10.75,11.57-17,16.47c-5.88,4.6-11.91,8.97-18.31,12.8c-1.52,0.91-3.11,1.69-4.63,2.6
		c-6.35,3.81-12.94,7.13-19.74,10.09c-3.77,1.64-7.61,3.1-11.36,4.77c-7.11,3.18-14.52,5.5-21.9,7.89
		c-5.59,1.81-11.3,3.2-16.91,4.92c-6.28,1.92-12.7,3.24-19.1,4.66c-5.84,1.3-11.72,2.42-17.64,3.35c-4.48,0.71-8.94,1.56-13.43,2.15
		c-3.43,0.45-6.88,0.87-10.31,1.32c-5.12,0.68-10.28,1.02-15.39,1.74c-3.55,0.5-7.14,0.82-10.75,0.86c-1.77,0.02-3.5,0.52-5.28,0.38
		c-0.65-0.05-1.02,0.43-1.43,0.83c-1.81,1.76-3.66,3.49-5.49,5.24c-5.99,5.73-12.23,11.15-18.68,16.35
		c-0.74,0.59-1.45,1.23-2.12,1.9c-0.47,0.47-0.85,0.4-1.3,0.01c-2.55-2.17-5.11-4.33-7.65-6.51c-2.06-1.77-4.13-3.53-6.15-5.35
		c-3.71-3.34-7.35-6.77-10.74-10.43c-1.28-1.38-2.74-2.03-4.48-1.99c-3.17,0.07-6.32-0.28-9.46-0.51c-3.2-0.23-6.42-0.33-9.58-0.97
		c-1.48-0.3-3.01-0.34-4.51-0.47c-4.2-0.38-8.39-0.91-12.58-1.41c-3.19-0.38-6.37-0.85-9.55-1.28c-3.5-0.47-6.98-1.01-10.45-1.64
		c-5.83-1.05-11.66-2.09-17.45-3.31c-6.11-1.29-12.24-2.53-18.24-4.25c-8.79-2.53-17.64-4.88-26.28-7.92
		c-4.11-1.44-8.25-2.83-12.28-4.5c-8.93-3.71-17.92-7.31-26.43-11.92c-7.55-4.1-15.06-8.31-22.05-13.33
		c-8.17-5.88-15.88-12.34-22.62-19.86c-4.61-5.14-8.62-10.72-11.96-16.79c-3.81-6.93-6.38-14.28-7.68-22.07
		c-0.28-1.67-0.51-3.36-0.55-5.08c-0.04-1.95-0.38-3.89-0.3-5.86c0.34-8.46,1.95-16.64,5.29-24.46c3.23-7.56,7.64-14.35,12.84-20.71
		c2.94-3.59,6.16-6.88,9.49-10.07c5.96-5.68,12.49-10.65,19.39-15.15c2.33-1.52,4.58-3.14,7-4.52c1.23-0.7,1.21-0.78,0.64-2.08
		c-1.37-3.14-2.46-6.37-2.9-9.77c-0.62-4.8-0.38-9.56,0.95-14.23C53.5,131.2,54.48,128.46,56.25,125.64z M251.77,365.83
		c3.16-2.54,6.2-5.21,9.16-7.97c3.89-3.63,7.59-7.45,11.28-11.28c0.58-0.61,1.13-1.09,2.08-1.12c2.72-0.07,5.44-0.23,8.16-0.4
		c3.98-0.26,7.96-0.48,11.93-0.88c6.92-0.7,13.85-1.27,20.73-2.41c5.49-0.91,11.03-1.51,16.51-2.48
		c15.39-2.71,30.68-5.81,45.62-10.49c12.07-3.78,24.1-7.62,35.64-12.9c8.92-4.08,17.8-8.2,26.1-13.49
		c6.14-3.91,12.26-7.83,17.82-12.57c5.16-4.41,10.14-8.96,14.48-14.21c6.12-7.4,10.97-15.46,13.71-24.73
		c2.49-8.42,2.85-16.93,1.12-25.53c-1.92-9.56-6.33-17.97-12.04-25.75c-3.31-4.5-7.13-8.58-11.2-12.38
		c-6.67-6.24-13.93-11.74-21.7-16.56c-2.1-1.3-4.24-2.52-6.36-3.79c-0.41-0.25-0.99-0.32-1.09-0.98c1.29-1.78,2.39-3.71,3.48-5.63
		c1.92-3.37,3.51-6.88,4.21-10.73c0.42-2.28,0.88-4.59-0.01-7.08c-6.62,4.94-13.6,8.89-21.73,10.67c0.07-0.27,0.08-0.4,0.14-0.5
		c0.14-0.21,0.3-0.41,0.46-0.6c3.08-3.91,5.48-8.2,6.94-12.98c1.57-5.12,2.38-10.35,2.44-15.7c0.04-3.62-0.23-7.21-1.09-10.74
		c-0.2-0.81-0.34-1.68-1.02-2.4c-1.62,1.61-3.02,3.24-4.66,4.63c-5.09,4.31-10.65,7.97-16.35,11.36
		c-10.19,6.06-21.05,10.77-32.06,15.13c-0.86,0.34-1.65,0.38-2.56,0.12c-5.15-1.52-10.37-2.82-15.59-4.09
		c-10.27-2.48-20.67-4.34-31.11-5.94c-13.14-2.02-26.35-3.41-39.61-4.38c-8.02-0.59-16.05-0.9-24.09-1.08
		c-9.31-0.21-18.61-0.19-27.92,0.16c-5.19,0.19-10.37,0.43-15.55,0.73c-10.93,0.64-21.82,1.7-32.69,3.09
		c-8.6,1.1-17.15,2.5-25.68,4.04c-10.03,1.81-19.88,4.36-29.72,6.98c-1.01,0.27-1.91,0.25-2.92-0.14c-3.19-1.23-6.3-2.63-9.43-3.98
		C106.6,132.1,96,126.62,86.23,119.62c-2.73-1.96-5.37-4.02-7.89-6.24c-1.08-0.95-1.75-2.29-3.25-3.22
		c-2.43,7.49-2.18,14.93-0.98,22.41c1.22,7.55,4.2,14.36,9.03,20.4c-8.14-1.64-15.07-5.65-21.8-10.57c-0.59,3.58-0.12,6.72,0.8,9.84
		c1.23,4.17,3.42,7.88,5.61,11.59c0.72,1.23,0.72,1.23-0.49,1.92c-6.05,3.44-12.01,7-17.59,11.21c-5.92,4.47-11.65,9.13-16.76,14.53
		c-6.99,7.39-12.78,15.53-16.43,25.09c-4.81,12.58-4.88,25.23-0.32,37.87c3.63,10.07,9.77,18.54,17.04,26.26
		c4.09,4.34,8.67,8.16,13.31,11.87c5.64,4.51,11.8,8.29,17.98,12.02c8.47,5.1,17.48,9.15,26.52,13.1
		c11.32,4.94,23.1,8.62,34.92,12.15c12.55,3.75,25.36,6.5,38.27,8.73c10.84,1.87,21.71,3.59,32.66,4.76
		c6.99,0.75,13.99,1.33,21,1.75c3.85,0.23,7.71,0.41,11.57,0.57c1.07,0.05,1.85,0.44,2.6,1.25c5.46,5.9,11.02,11.71,17.17,16.91
		C250.02,364.49,250.76,365.27,251.77,365.83z M449.16,171.77c3.18,0,5.66-2.49,5.62-5.65c-0.04-3.24-2.46-5.7-5.6-5.7
		c-3.22,0-5.68,2.57-5.62,5.88C443.62,169.38,446.06,171.77,449.16,171.77z"/>
	<path class="st1" d="M251.77,365.83c-1.01-0.56-1.76-1.34-2.58-2.03c-6.15-5.2-11.71-11.01-17.17-16.91
		c-0.75-0.81-1.52-1.2-2.6-1.25c-3.86-0.16-7.72-0.34-11.57-0.57c-7.01-0.43-14.01-1-21-1.75c-10.95-1.17-21.82-2.89-32.66-4.76
		c-12.91-2.23-25.72-4.98-38.27-8.73c-11.81-3.52-23.6-7.21-34.92-12.15c-9.04-3.94-18.06-7.99-26.52-13.1
		c-6.17-3.72-12.33-7.5-17.98-12.02c-4.65-3.71-9.23-7.53-13.31-11.87c-7.26-7.72-13.41-16.19-17.04-26.26
		c-4.55-12.64-4.49-25.29,0.32-37.87c3.65-9.56,9.44-17.7,16.43-25.09c5.11-5.41,10.84-10.06,16.76-14.53
		c5.57-4.21,11.54-7.77,17.59-11.21c1.21-0.69,1.21-0.69,0.49-1.92c-2.18-3.71-4.38-7.41-5.61-11.59c-0.92-3.12-1.39-6.26-0.8-9.84
		c6.73,4.93,13.66,8.93,21.8,10.57c-4.83-6.04-7.81-12.84-9.03-20.4c-1.21-7.48-1.45-14.92,0.98-22.41c1.5,0.93,2.17,2.27,3.25,3.22
		c2.52,2.22,5.16,4.28,7.89,6.24c9.77,7,20.37,12.48,31.38,17.22c3.13,1.35,6.25,2.75,9.43,3.98c1.01,0.39,1.91,0.41,2.92,0.14
		c9.83-2.63,19.69-5.18,29.72-6.98c8.53-1.54,17.08-2.94,25.68-4.04c10.86-1.39,21.75-2.45,32.69-3.09
		c5.18-0.3,10.36-0.54,15.55-0.73c9.31-0.35,18.61-0.37,27.92-0.16c8.04,0.19,16.07,0.5,24.09,1.08
		c13.25,0.97,26.46,2.37,39.61,4.38c10.45,1.6,20.85,3.46,31.11,5.94c5.22,1.26,10.43,2.57,15.59,4.09c0.91,0.27,1.7,0.23,2.56-0.12
		c11.01-4.36,21.87-9.06,32.06-15.13c5.7-3.39,11.26-7.05,16.35-11.36c1.64-1.39,3.04-3.02,4.66-4.63c0.68,0.72,0.82,1.59,1.02,2.4
		c0.86,3.53,1.13,7.12,1.09,10.74c-0.06,5.35-0.87,10.58-2.44,15.7c-1.46,4.78-3.86,9.06-6.94,12.98c-0.16,0.2-0.32,0.39-0.46,0.6
		c-0.06,0.1-0.07,0.23-0.14,0.5c8.13-1.78,15.11-5.74,21.73-10.67c0.89,2.49,0.43,4.8,0.01,7.08c-0.7,3.84-2.29,7.36-4.21,10.73
		c-1.09,1.92-2.19,3.85-3.48,5.63c0.1,0.65,0.68,0.73,1.09,0.98c2.11,1.27,4.26,2.49,6.36,3.79c7.76,4.82,15.03,10.32,21.7,16.56
		c4.07,3.8,7.89,7.88,11.2,12.38c5.72,7.78,10.13,16.19,12.04,25.75c1.73,8.6,1.37,17.11-1.12,25.53
		c-2.74,9.26-7.59,17.33-13.71,24.73c-4.34,5.25-9.31,9.81-14.48,14.21c-5.56,4.75-11.68,8.66-17.82,12.57
		c-8.3,5.28-17.18,9.41-26.1,13.49c-11.53,5.28-23.56,9.12-35.64,12.9c-14.95,4.68-30.24,7.78-45.62,10.49
		c-5.48,0.96-11.03,1.57-16.51,2.48c-6.88,1.14-13.81,1.7-20.73,2.41c-3.97,0.4-7.95,0.62-11.93,0.88c-2.72,0.18-5.44,0.33-8.16,0.4
		c-0.95,0.03-1.49,0.51-2.08,1.12c-3.69,3.83-7.39,7.65-11.28,11.28C257.97,360.62,254.93,363.29,251.77,365.83z M81.27,238.47
		c-0.12-0.58-0.14-0.76-0.19-0.93c-2.08-8.1-2.32-16.28-0.75-24.47c1.59-8.24,4.82-15.82,9.64-22.71c0.47-0.67,0.87-1.4,1.35-2.06
		c0.36-0.49,0.2-0.77-0.23-1.08c-1.22-0.91-2.45-1.8-3.61-2.78c-0.72-0.62-1.24-0.57-1.96,0.01c-2.26,1.83-4.49,3.68-6.62,5.67
		c-4.36,4.07-8.5,8.31-11.97,13.19c-3.17,4.46-5.92,9.11-7.9,14.22c-3.16,8.13-4.27,16.5-3.03,25.15c1.28,8.95,4.95,16.94,10,24.35
		c3.15,4.62,6.95,8.71,10.9,12.63c4.73,4.7,10.1,8.64,15.52,12.47c6.83,4.83,14.26,8.67,21.71,12.41
		c10.48,5.25,21.54,9.08,32.65,12.7c10.17,3.31,20.59,5.67,31.09,7.73c11.37,2.22,22.84,3.74,34.33,5.12
		c2.15,0.26,4.33,0.55,6.75,0.49c-0.5-0.83-0.85-1.49-1.27-2.1c-4.7-6.79-8.58-14.01-11.74-21.64c-0.5-1.21-0.53-1.23-1.77-0.8
		c-3.77,1.29-7.53,2.59-11.3,3.89c-2.66,0.91-5.33,1.82-8.35,2.85c2.81-5.48,5.44-10.62,8.11-15.83c-0.32-0.02-0.52-0.08-0.69-0.04
		c-14.11,2.93-28.3,2.93-42.5,0.95c-10.67-1.49-21.08-4.05-31.11-8.1c-8.94-3.61-17.61-7.64-25.45-13.34
		c-5.14-3.73-10.01-7.7-14.19-12.54c-5.7-6.6-9.87-13.92-11.24-22.63c-0.46-2.91-0.53-5.85-0.06-8.98
		C72.04,234.35,76.52,236.35,81.27,238.47z M421.08,238.36c4.54-2.02,9.01-4.02,13.48-6.01c0.48,0.82,0.43,1.66,0.46,2.47
		c0.29,7.37-1.8,14.12-5.38,20.46c-2.6,4.6-5.99,8.63-9.7,12.36c-4.8,4.81-10.32,8.76-16.04,12.38
		c-7.68,4.85-16.01,8.42-24.53,11.44c-13.56,4.8-27.6,7.31-42,7.7c-8.76,0.24-17.45-0.32-26.07-1.96c-0.5-0.09-1.02-0.43-1.65-0.14
		c1.31,2.63,2.56,5.18,3.84,7.71c1.29,2.55,2.61,5.09,4.1,7.99c-0.87-0.27-1.28-0.39-1.68-0.53c-5.08-1.74-10.16-3.49-15.24-5.23
		c-1.48-0.51-1.5-0.5-2.1,0.83c-3.23,7.25-7.07,14.13-11.73,20.56c-0.39,0.54-0.85,1.07-0.88,1.89c3.13-0.33,6.2-0.64,9.26-1.11
		c4.43-0.69,8.9-1.15,13.34-1.85c16.5-2.61,32.8-6.03,48.65-11.45c10.89-3.72,21.68-7.62,31.89-13.01
		c7.44-3.93,14.84-7.9,21.58-12.99c5.26-3.97,10.4-8.03,14.97-12.82c7.3-7.66,13.21-16.13,16.45-26.3
		c2.76-8.64,3.11-17.37,1.04-26.21c-2.12-9.06-6.59-16.92-12.27-24.15c-3.92-4.99-8.59-9.28-13.36-13.45
		c-0.8-0.7-1.53-1.79-2.57-1.82c-1.05-0.03-1.77,1.1-2.63,1.72c-1.77,1.27-1.76,1.3-0.48,3.14c2.9,4.17,5.32,8.59,7.12,13.35
		c3.97,10.52,4.85,21.25,2.5,32.26C421.29,236.43,420.82,237.24,421.08,238.36z M83.26,129.76c0.19,1.24,0.32,2.3,0.53,3.34
		c1.41,7.12,4.93,13.23,9.16,18.98c3.35,4.56,7.47,8.43,11.7,12.15c5.73,5.04,12.22,9.01,18.78,12.83
		c9.16,5.33,19.03,9.18,28.94,12.83c10.8,3.98,21.67,7.75,32.02,12.84c7.95,3.91,15.93,7.72,23.52,12.33
		c8.84,5.37,17.42,11.05,25.24,17.83c2.77,2.4,5.62,4.72,7.92,7.61c1.04,1.3,2.23,2.48,3.39,3.75c0.38-0.57,0.25-1.02,0.25-1.44
		c-0.07-6.22-2.05-11.93-4.83-17.39c-2.2-4.31-5.17-8.12-8.3-11.76c-4.14-4.81-8.89-9.04-13.89-12.91
		c-8.92-6.9-18.44-12.93-28.53-18c-4.8-2.41-9.59-4.86-14.48-7.09c-6.62-3.03-13.41-5.64-20.33-7.9c-4.8-1.57-9.64-3.01-14.35-4.9
		c-9.58-3.85-19-7.97-27.93-13.21c-8.64-5.07-17-10.51-24.79-16.82C86.03,131.8,84.93,130.55,83.26,129.76z M419.4,129.7
		c-0.43,0.34-0.64,0.48-0.82,0.64c-4.07,3.42-8.25,6.7-12.58,9.78c-5.78,4.11-11.89,7.71-18.06,11.19
		c-10.11,5.7-20.75,10.3-31.74,13.98c-10.5,3.52-20.99,6.98-30.99,11.82c-8.49,4.11-17,8.15-24.94,13.28
		c-5.79,3.74-11.61,7.42-16.89,11.91c-5.08,4.31-10.01,8.71-14.18,13.95c-5.26,6.59-9.24,13.75-10.62,22.15
		c-0.31,1.88-0.54,3.81-0.41,5.79c0.74-0.1,0.94-0.63,1.24-0.99c5.87-7.16,13.11-12.8,20.45-18.32c5.47-4.11,11.36-7.61,17.21-11.13
		c8.46-5.09,17.43-9.27,26.39-13.4c10.06-4.64,20.61-8.03,30.95-11.98c9.88-3.78,19.6-7.85,28.63-13.46
		c6.74-4.18,13.26-8.58,18.99-14.13c4.39-4.26,8.33-8.82,11.53-14.03c2.47-4.02,4.36-8.28,5.38-12.9
		C419.2,132.57,419.64,131.3,419.4,129.7z M252.05,348.89c2.42-2.64,4.66-5.2,6.79-7.88c3.75-4.71,7.31-9.54,10.36-14.74
		c2.57-4.38,4.79-8.91,6.51-13.69c3.84-10.62,3.88-21.13-0.57-31.64c-2.57-6.06-6.1-11.5-10.01-16.73
		c-3.27-4.37-7.18-8.17-11.06-11.99c-0.13-0.13-0.33-0.18-0.66,0.05c-0.39,27.88-0.79,55.86-1.19,84.02
		c-0.68-0.37-0.89-0.84-1.17-1.24c-1.72-2.51-3.24-5.13-4.77-7.76c-2.87-4.93-5.37-10.04-7.49-15.33
		c-2.41-6.03-4.17-12.23-4.68-18.71c-0.73-9.23,1.04-18.01,5.22-26.29c0.62-1.22,1.21-2.45,1.97-3.99c-1.65,1.32-2.52,2.8-3.59,4.11
		c-3.16,3.91-5.77,8.14-7.67,12.82c-2.37,5.83-3.56,11.87-3.41,18.15c0.17,7.13,2.13,13.86,4.96,20.34
		c2.85,6.51,6.45,12.61,10.65,18.35c1.46,1.99,2.9,3.99,4.42,5.93C248.33,344.77,250.01,346.82,252.05,348.89z M217.47,256.58
		c-4.12-1.89-7.8-3.97-11.54-5.94c-0.95-0.5-1.39,0.03-1.9,0.63c-2.59,3.02-5.71,5.39-9.19,7.24c-14.55,7.72-29.58,8.4-44.94,2.72
		c-7.04-2.6-12.92-6.88-17.44-12.94c-3.64-4.88-5.56-10.33-5.55-16.42c0.01-5.96,1.96-11.29,5.5-16.06
		c0.69-0.93,1.36-1.89,2.11-2.94c-5.41-2.88-10.66-5.66-15.88-8.5c-0.93-0.5-1.34-0.15-1.83,0.57c-5.18,7.69-7.45,16.17-6.51,25.39
		c0.94,9.3,5.23,17.09,11.48,23.86c5.01,5.42,11.11,9.44,17.72,12.54c12.57,5.89,25.88,7.63,39.62,6.23
		c9.67-0.99,18.86-3.52,27.31-8.48C210.27,262.23,213.96,259.81,217.47,256.58z M368.44,213c1.09,1.55,2.19,3,3.19,4.53
		c4,6.14,5.19,12.83,3.74,19.98c-1.42,7.03-5.53,12.41-10.79,16.99c-3.07,2.68-6.61,4.67-10.37,6.25
		c-9.53,3.99-19.41,5.09-29.58,3.43c-9.92-1.62-18.82-5.36-25.8-12.91c-0.97-1.05-1.01-1.04-2.39-0.35
		c-3.39,1.7-6.65,3.65-10.11,5.22c-0.27,0.12-0.59,0.24-0.56,0.74c4.18,3.95,9.06,7.04,14.24,9.53c12.76,6.14,26.3,7.97,40.32,6.54
		c9.6-0.98,18.72-3.52,27.15-8.4c6.19-3.59,11.83-7.78,16.25-13.49c2.93-3.78,5.39-7.79,6.93-12.35c4-11.85,2.3-22.94-4.35-33.39
		c-0.94-1.48-0.99-1.5-2.49-0.7c-4.86,2.58-9.71,5.19-14.56,7.79C368.99,212.57,368.75,212.78,368.44,213z M189.14,242.17
		c-1.98-1.11-3.81-2.2-5.7-3.19c-5.31-2.79-10.65-5.54-15.97-8.32c-1.12-0.58-2.24-1.17-3.35-1.78c-0.5-0.28-0.91-0.29-1.35,0.15
		c-2.35,2.35-3.71,5.08-3.34,8.5c0.43,3.99,2.67,6.82,6.05,8.67c6.35,3.48,12.81,3.45,19.21,0.06
		C186.44,245.33,187.9,244.02,189.14,242.17z M313.77,242.17c1.3,2.06,3.07,3.44,5.11,4.47c4.16,2.11,8.54,2.58,13.09,1.64
		c3.57-0.74,6.7-2.29,9.08-5.11c3.42-4.05,3.28-9.57-0.3-13.48c-1.14-1.24-1.14-1.25-2.68-0.45c-6.33,3.29-12.67,6.57-18.99,9.89
		C317.31,240.07,315.6,241.12,313.77,242.17z"/>
	<path class="st1" d="M449.16,171.77c-3.1,0-5.54-2.39-5.6-5.48c-0.06-3.31,2.4-5.88,5.62-5.88c3.14,0,5.55,2.46,5.6,5.7
		C454.82,169.28,452.34,171.77,449.16,171.77z M449.22,161.48c-2.57-0.02-4.61,2.08-4.6,4.74c0.01,2.53,2.04,4.52,4.6,4.51
		c2.47-0.01,4.43-1.95,4.48-4.41C453.75,163.61,451.8,161.5,449.22,161.48z"/>
	<path class="st2" d="M81.27,238.47c-4.75-2.12-9.23-4.12-13.89-6.2c-0.47,3.13-0.39,6.07,0.06,8.98
		c1.37,8.71,5.55,16.02,11.24,22.63c4.17,4.84,9.05,8.81,14.19,12.54c7.84,5.7,16.52,9.73,25.45,13.34
		c10.03,4.05,20.44,6.61,31.11,8.1c14.2,1.99,28.39,1.98,42.5-0.95c0.18-0.04,0.37,0.02,0.69,0.04c-2.67,5.21-5.3,10.35-8.11,15.83
		c3.02-1.03,5.69-1.94,8.35-2.85c3.77-1.29,7.53-2.6,11.3-3.89c1.24-0.42,1.27-0.41,1.77,0.8c3.15,7.63,7.03,14.86,11.74,21.64
		c0.42,0.61,0.77,1.27,1.27,2.1c-2.42,0.06-4.59-0.23-6.75-0.49c-11.49-1.38-22.96-2.9-34.33-5.12
		c-10.49-2.05-20.92-4.42-31.09-7.73c-11.11-3.62-22.18-7.45-32.65-12.7c-7.46-3.74-14.88-7.58-21.71-12.41
		c-5.42-3.83-10.79-7.78-15.52-12.47c-3.95-3.93-7.74-8.01-10.9-12.63c-5.05-7.4-8.72-15.4-10-24.35
		c-1.24-8.65-0.13-17.02,3.03-25.15c1.99-5.11,4.74-9.77,7.9-14.22c3.47-4.88,7.61-9.12,11.97-13.19c2.13-1.99,4.36-3.85,6.62-5.67
		c0.72-0.58,1.24-0.62,1.96-0.01c1.15,0.99,2.39,1.88,3.61,2.78c0.43,0.32,0.59,0.59,0.23,1.08c-0.48,0.66-0.88,1.39-1.35,2.06
		c-4.82,6.89-8.06,14.47-9.64,22.71c-1.58,8.19-1.33,16.37,0.75,24.47C81.13,237.72,81.15,237.9,81.27,238.47z"/>
	<path class="st2" d="M421.08,238.36c-0.26-1.11,0.21-1.93,0.39-2.77c2.35-11,1.47-21.74-2.5-32.26c-1.8-4.77-4.22-9.18-7.12-13.35
		c-1.28-1.84-1.29-1.88,0.48-3.14c0.86-0.62,1.59-1.75,2.63-1.72c1.04,0.03,1.77,1.12,2.57,1.82c4.77,4.17,9.43,8.45,13.36,13.45
		c5.68,7.23,10.15,15.1,12.27,24.15c2.07,8.83,1.72,17.56-1.04,26.21c-3.24,10.17-9.15,18.65-16.45,26.3
		c-4.57,4.79-9.71,8.85-14.97,12.82c-6.75,5.09-14.14,9.06-21.58,12.99c-10.21,5.39-21,9.29-31.89,13.01
		c-15.85,5.42-32.15,8.84-48.65,11.45c-4.44,0.7-8.91,1.17-13.34,1.85c-3.06,0.48-6.13,0.78-9.26,1.11
		c0.03-0.82,0.48-1.35,0.88-1.89c4.66-6.43,8.51-13.32,11.73-20.56c0.59-1.33,0.61-1.34,2.1-0.83c5.08,1.74,10.16,3.49,15.24,5.23
		c0.4,0.14,0.81,0.26,1.68,0.53c-1.49-2.9-2.81-5.44-4.1-7.99c-1.28-2.53-2.53-5.08-3.84-7.71c0.63-0.29,1.15,0.05,1.65,0.14
		c8.62,1.64,17.31,2.2,26.07,1.96c14.4-0.4,28.44-2.9,42-7.7c8.52-3.01,16.85-6.58,24.53-11.44c5.73-3.62,11.24-7.56,16.04-12.38
		c3.72-3.72,7.1-7.75,9.7-12.36c3.58-6.34,5.67-13.09,5.38-20.46c-0.03-0.82,0.01-1.65-0.46-2.47
		C430.09,234.34,425.62,236.33,421.08,238.36z"/>
	<path class="st3" d="M83.26,129.76c1.67,0.79,2.76,2.04,4.01,3.05c7.79,6.31,16.14,11.76,24.79,16.82
		c8.93,5.24,18.35,9.36,27.93,13.21c4.71,1.89,9.54,3.33,14.35,4.9c6.92,2.26,13.71,4.88,20.33,7.9c4.89,2.23,9.68,4.68,14.48,7.09
		c10.1,5.07,19.61,11.09,28.53,18c5,3.87,9.75,8.1,13.89,12.91c3.14,3.64,6.1,7.45,8.3,11.76c2.79,5.46,4.76,11.17,4.83,17.39
		c0,0.42,0.13,0.87-0.25,1.44c-1.16-1.27-2.35-2.44-3.39-3.75c-2.3-2.9-5.15-5.22-7.92-7.61c-7.82-6.78-16.4-12.46-25.24-17.83
		c-7.59-4.61-15.57-8.42-23.52-12.33c-10.36-5.09-21.22-8.86-32.02-12.84c-9.91-3.65-19.78-7.49-28.94-12.83
		c-6.56-3.82-13.05-7.79-18.78-12.83c-4.23-3.72-8.34-7.58-11.7-12.15c-4.23-5.75-7.75-11.87-9.16-18.98
		C83.59,132.05,83.46,131,83.26,129.76z"/>
	<path class="st3" d="M419.4,129.7c0.24,1.6-0.21,2.87-0.49,4.14c-1.02,4.62-2.91,8.87-5.38,12.9c-3.2,5.21-7.13,9.77-11.53,14.03
		c-5.73,5.55-12.25,9.95-18.99,14.13c-9.03,5.61-18.75,9.68-28.63,13.46c-10.33,3.95-20.88,7.35-30.95,11.98
		c-8.97,4.13-17.93,8.31-26.39,13.4c-5.85,3.52-11.74,7.01-17.21,11.13c-7.34,5.52-14.58,11.16-20.45,18.32
		c-0.3,0.36-0.49,0.89-1.24,0.99c-0.13-1.98,0.1-3.91,0.41-5.79c1.38-8.41,5.37-15.56,10.62-22.15c4.17-5.23,9.1-9.64,14.18-13.95
		c5.29-4.48,11.1-8.17,16.89-11.91c7.95-5.13,16.45-9.18,24.94-13.28c10-4.84,20.49-8.3,30.99-11.82
		c10.99-3.68,21.63-8.27,31.74-13.98c6.17-3.48,12.28-7.08,18.06-11.19c4.33-3.08,8.52-6.35,12.58-9.78
		C418.77,130.18,418.97,130.04,419.4,129.7z"/>
	<path class="st4" d="M252.05,348.89c-2.03-2.06-3.72-4.12-5.35-6.21c-1.52-1.94-2.97-3.94-4.42-5.93
		c-4.2-5.74-7.8-11.84-10.65-18.35c-2.84-6.47-4.79-13.2-4.96-20.34c-0.15-6.28,1.04-12.32,3.41-18.15
		c1.9-4.68,4.51-8.91,7.67-12.82c1.06-1.32,1.94-2.8,3.59-4.11c-0.76,1.54-1.36,2.77-1.97,3.99c-4.18,8.28-5.95,17.06-5.22,26.29
		c0.51,6.48,2.27,12.68,4.68,18.71c2.12,5.3,4.62,10.4,7.49,15.33c1.53,2.63,3.05,5.25,4.77,7.76c0.27,0.4,0.48,0.86,1.17,1.24
		c0.4-28.16,0.79-56.14,1.19-84.02c0.33-0.23,0.53-0.18,0.66-0.05c3.88,3.82,7.79,7.62,11.06,11.99
		c3.91,5.22,7.45,10.66,10.01,16.73c4.45,10.51,4.41,21.01,0.57,31.64c-1.72,4.78-3.94,9.31-6.51,13.69
		c-3.05,5.2-6.62,10.03-10.36,14.74C256.71,343.69,254.47,346.25,252.05,348.89z"/>
	<path class="st4" d="M217.47,256.58c-3.51,3.23-7.2,5.65-11.03,7.9c-8.45,4.96-17.65,7.5-27.31,8.48
		c-13.75,1.4-27.06-0.33-39.62-6.23c-6.62-3.1-12.71-7.12-17.72-12.54c-6.25-6.76-10.54-14.56-11.48-23.86
		c-0.93-9.22,1.33-17.7,6.51-25.39c0.49-0.72,0.9-1.07,1.83-0.57c5.22,2.84,10.47,5.61,15.88,8.5c-0.75,1.05-1.42,2-2.11,2.94
		c-3.54,4.77-5.49,10.09-5.5,16.06c-0.01,6.09,1.92,11.55,5.55,16.42c4.52,6.06,10.4,10.34,17.44,12.94
		c15.35,5.68,30.38,5,44.94-2.72c3.49-1.85,6.61-4.22,9.19-7.24c0.51-0.59,0.95-1.13,1.9-0.63
		C209.67,252.61,213.35,254.69,217.47,256.58z"/>
	<path class="st4" d="M368.44,213c0.31-0.22,0.55-0.43,0.82-0.57c4.85-2.61,9.7-5.21,14.56-7.79c1.5-0.8,1.55-0.78,2.49,0.7
		c6.66,10.45,8.36,21.53,4.35,33.39c-1.54,4.56-4,8.57-6.93,12.35c-4.42,5.71-10.06,9.9-16.25,13.49
		c-8.42,4.88-17.55,7.42-27.15,8.4c-14.02,1.43-27.56-0.39-40.32-6.54c-5.18-2.49-10.06-5.58-14.24-9.53
		c-0.03-0.5,0.29-0.62,0.56-0.74c3.46-1.57,6.71-3.52,10.11-5.22c1.38-0.69,1.42-0.71,2.39,0.35c6.98,7.55,15.88,11.29,25.8,12.91
		c10.17,1.66,20.05,0.56,29.58-3.43c3.76-1.57,7.3-3.56,10.37-6.25c5.25-4.59,9.37-9.97,10.79-16.99
		c1.44-7.15,0.25-13.84-3.74-19.98C370.63,216,369.53,214.54,368.44,213z"/>
	<path class="st2" d="M189.14,242.17c-1.25,1.85-2.71,3.16-4.46,4.09c-6.4,3.39-12.86,3.42-19.21-0.06
		c-3.38-1.85-5.62-4.67-6.05-8.67c-0.37-3.42,0.99-6.15,3.34-8.5c0.44-0.44,0.85-0.42,1.35-0.15c1.11,0.61,2.23,1.2,3.35,1.78
		c5.33,2.77,10.66,5.52,15.97,8.32C185.33,239.97,187.17,241.06,189.14,242.17z"/>
	<path class="st2" d="M313.77,242.17c1.83-1.05,3.53-2.1,5.31-3.03c6.32-3.32,12.66-6.6,18.99-9.89c1.54-0.8,1.55-0.8,2.68,0.45
		c3.58,3.91,3.72,9.44,0.3,13.48c-2.38,2.82-5.51,4.37-9.08,5.11c-4.55,0.94-8.93,0.47-13.09-1.64
		C316.84,245.6,315.07,244.23,313.77,242.17z"/>
	<path class="st4" d="M449.22,161.48c2.58,0.02,4.53,2.13,4.48,4.84c-0.05,2.47-2.01,4.4-4.48,4.41c-2.55,0.01-4.58-1.98-4.6-4.51
		C444.6,163.57,446.64,161.46,449.22,161.48z M446.75,166.04c0,0.63,0,1.26,0,1.89c0,0.06,0,0.13,0,0.19
		c0.01,0.58-0.03,1.17,0.83,1.16c0.7-0.01,0.82-0.42,0.81-0.99c0-0.13,0-0.25,0.01-0.38c0.02-0.32,0.08-0.64,0.48-0.68
		c0.38-0.04,0.77-0.01,0.99,0.37c0.12,0.21,0.22,0.46,0.25,0.7c0.08,0.65,0.32,1.11,1.07,0.96c0.85-0.18,0.51-0.86,0.51-1.38
		c0-0.18-0.06-0.39-0.17-0.53c-0.39-0.54-0.46-0.95,0-1.6c0.6-0.86,0.26-1.88-0.66-2.42c-1.16-0.68-2.51-0.57-3.67-0.23
		c-0.89,0.26-0.32,1.44-0.44,2.19C446.71,165.53,446.74,165.79,446.75,166.04z"/>
	<path class="st1" d="M446.75,166.04c0-0.25-0.03-0.51,0.01-0.75c0.12-0.76-0.45-1.93,0.44-2.19c1.15-0.34,2.51-0.44,3.67,0.23
		c0.93,0.54,1.27,1.57,0.66,2.42c-0.46,0.65-0.39,1.06,0,1.6c0.1,0.14,0.17,0.35,0.17,0.53c0,0.52,0.34,1.2-0.51,1.38
		c-0.75,0.16-0.99-0.31-1.07-0.96c-0.03-0.24-0.12-0.49-0.25-0.7c-0.22-0.38-0.61-0.41-0.99-0.37c-0.4,0.04-0.46,0.36-0.48,0.68
		c-0.01,0.13-0.01,0.25-0.01,0.38c0.02,0.56-0.11,0.98-0.81,0.99c-0.86,0.01-0.82-0.59-0.83-1.16c0-0.06,0-0.13,0-0.19
		C446.75,167.3,446.75,166.67,446.75,166.04z M449.13,165.97c0.44-0.08,0.94-0.28,0.95-0.87c0.01-0.61-0.48-0.81-1.02-0.85
		c-0.65-0.05-0.67,0.39-0.67,0.85C448.4,165.54,448.39,166.01,449.13,165.97z"/>
	<path class="st4" d="M449.13,165.97c-0.74,0.04-0.73-0.43-0.73-0.87c-0.01-0.46,0.02-0.9,0.67-0.85c0.54,0.05,1.03,0.25,1.02,0.85
		C450.07,165.69,449.57,165.9,449.13,165.97z"/>
</g>
</svg>
