<?xml version="1.0" encoding="utf-8"?>
<!-- Generator: Adobe Illustrator 27.4.1, SVG Export Plug-In . SVG Version: 6.00 Build 0)  -->
<svg version="1.1" id="Layer_1" xmlns="http://www.w3.org/2000/svg" xmlns:xlink="http://www.w3.org/1999/xlink" x="0px" y="0px"
	 viewBox="0 0 500 500" style="enable-background:new 0 0 500 500;" xml:space="preserve">
<style type="text/css">
	.st0{fill:#CD2128;}
	.st1{fill:#FFFFFF;}
</style>
<g>
	<path class="st0" d="M64.8,422.1c0.1,0.1,0.1,0.1,0.2,0.2c-6.5,0-13,0-19.5,0c0.1-0.1,0.2-0.1,0.3-0.2
		C52.1,422.1,58.5,422.1,64.8,422.1z"/>
	<path d="M64.8,422.1c-6.4,0-12.7,0-19.1,0c-4-0.2-8-0.1-12-0.5c-7.5-0.8-15-2-21.7-5.8C5.5,412,1.6,406.4,0.5,399
		c-0.8-5.5-0.6-11,0.5-16.4c1.7-8.7,3.4-17.3,5.2-26c1.3-6.6,2.7-13.1,4-19.7c0.1-0.3,0-0.6,0-1c5.2,0,10.3,0,15.4,0
		c-1.6-1.9-3.3-3.7-4.7-5.7c-2.7-3.7-4.1-7.9-4.8-12.3c-1.1-7.3,0.6-14.2,2.1-21.2c1.4-6.5,2.5-13,4.1-19.4
		c1.9-7.6,4.8-14.7,10.2-20.6c3.8-4.1,8.3-6.9,13.6-8.6c3.5-1.1,7.1-2,10.7-2.8c2.5-0.5,5-0.6,7.6-0.7c7.9-0.4,15.7-0.7,23.5-1
		c-0.8-1.2-1.8-2.6-2.6-4.1c-2.3-4.5-2.5-9.4-2.5-14.4c0.1-7.3,1.6-14.3,3-21.4c1.3-6.3,2.6-12.7,3.8-19c1.1-5.5,2.2-11,3.3-16.5
		c0.1-0.3,0.2-0.5,0.4-0.8c2,0,4.1,0,6.2,0c15.5,0,30.9,0,46.4,0c1,0,1.3-0.3,1.5-1.3c1.3-6.5,2.6-13,3.9-19.4c1.2-6,2.4-12,3.6-18
		c1.2-6,2.4-12.1,3.6-18.1c1.1-5.7,2.3-11.4,3.5-17.1c1-4.8,2-9.7,2.9-14.5c0.1-0.4,0.1-0.7,0.2-1.2c22.4,0,44.8,0,67.3,0
		c-4.7,23.5-9.5,47.1-14.2,70.6c0.1,0,0.2,0.1,0.3,0.1c0.8-2.2,1.7-4.4,2.5-6.5c3.3-8.9,6.7-17.8,10-26.7c2.5-6.6,4.9-13.1,7.4-19.7
		c2.1-5.7,4.2-11.5,6.4-17.2c0.1-0.2,0.5-0.4,0.7-0.5c0.2-0.1,0.4,0,0.6,0c47.6,0,95.2,0,142.8,0c0.3,0,0.7,0,1.2,0
		c0.2,2.7,0.5,5.3,0.7,8c0.1,0,0.2,0.1,0.3,0.1c1.2-2.6,2.4-5.3,3.6-8c23.3,0,46.7,0,70.2,0c-1.7,3.2-3.4,6.4-5.1,9.6
		c-9.1,17.3-18.3,34.6-27.4,52c-3.7,6.9-7.4,13.8-10.9,20.7c-0.6,1.2,0,3,0.2,4.5c0.4,3.4,0.9,6.8,1.3,10.2
		c0.5,3.6,0.9,7.2,1.4,10.8c0.4,3.3,0.8,6.6,1.2,10c0.4,3.5,0.9,7,1.4,10.6c0.3,2.5,0.6,5.1,1,7.6c0.6,4.6,1.2,9.2,1.8,13.8
		c0.5,3.7,0.9,7.4,1.3,11c0.2,1.9,0.4,3.8,0.8,5.7c0,0.2,0.8,0.5,1.2,0.5c10.8,0,21.7,0,32.5,0c11,0,22,0,33,0c0.4,0,0.9,0,1.3,0
		c-3.3,16.2-6.7,32.3-10,48.5c-0.3,0-0.7,0-1.1,0c-7.8,0-15.5,0-23.3,0c-1.1,0-1.4,0.3-1.6,1.4c-0.9,4.7-1.9,9.5-2.8,14.3
		c8.6,0,17.2,0,26,0c-0.4,2.2-0.8,4.3-1.2,6.3c-1.2,5.6-2.3,11.3-3.5,16.9c-1.7,8.2-3.3,16.4-5,24.5c-0.1,0.7-0.5,1-1.3,1
		c-8.2,0-16.3,0-24.5,0c-1,4.9-2,9.7-3,14.6c8.4,0,16.8,0,25.4,0c-0.4,2.4-0.8,4.6-1.3,6.9c-1,5.1-2,10.1-3,15.2
		c-0.9,4.3-1.7,8.6-2.5,12.9c-0.8,4.3-1.6,8.5-2.4,12.8c-0.1,0.4-0.7,0.9-1,0.9c-30.7,0-61.3,0-92,0c-0.1,0-0.2,0-0.4,0
		c8.5-42.4,17-84.7,25.6-127.1c-1.8,0-3.6,0-5.3,0c-0.3,0-0.7,0.5-0.8,0.9c-1.8,8.6-3.5,17.1-5.2,25.7c-1.7,8.4-3.3,16.8-5,25.2
		c-2.1,10.3-4.3,20.6-6.3,30.9c-2.1,10.4-4.1,20.8-6.1,31.2c-0.8,4.2-1.7,8.4-2.6,12.6c-0.1,0.2-0.4,0.5-0.7,0.6
		c-0.1,0.1-0.4,0-0.6,0c-39.6,0-79.1,0-118.7,0c-0.2,0-0.5,0-0.8,0c0.3-2.8,0.5-5.6,0.8-8.4c-0.1,0-0.3-0.1-0.4-0.1
		c-0.6,1.9-1.2,3.7-1.8,5.6c0,0.1,0,0.3-0.1,0.5c-0.4,1.8-1.2,2.5-3.3,2.5c-39-0.1-78-0.1-117-0.1c-0.4,0-0.9,0-1.4,0
		c8.5-42.4,17-84.7,25.6-127.1c-1.8,0-3.4,0-5.2,0c-1.8,9.2-3.7,18.4-5.6,27.8c-4.6,0-9.3,0-13.7,0c1.7,2.5,3.8,4.9,5.2,7.7
		c1.4,2.8,2.4,6,3.1,9c1.4,5.9-0.3,11.7-1.5,17.5c-1.3,6.3-2.5,12.7-3.9,19c-1.7,8.1-2.9,16.3-5.9,24c-1.5,3.7-3.6,7-6.3,10
		c-4.6,5.1-10.5,8.3-17,10.2c-4.1,1.1-8.4,1.8-12.6,2.2C77.5,421.8,71.1,421.8,64.8,422.1z M312.5,350.1c0.5-2.7,1-5.5,1.5-8.2
		c1.4-6.8,2.8-13.6,4.2-20.3c1.3-6.2,2.5-12.4,3.8-18.6c0.6-3,1.2-6,1.7-9c-3.4,0-6.8,0-10.3,0c0,3.3,0.1,6.5,0,9.8
		c-0.2,10-0.5,20-0.8,30c-0.1,5.4-0.3,10.8-0.5,16.2c0,0.4,0,0.8,0,1.2c0,0,0.1,0,0.1,0C312.3,350.9,312.4,350.5,312.5,350.1z
		 M63.2,348c-0.2-0.1-0.2-0.1-0.2-0.1c-14.1,0-28.1,0-42.2,0c-0.3,0-0.7,0.4-0.7,0.6c-0.6,2.7-1.3,5.4-1.8,8.2
		c-1.4,6.9-2.8,13.9-4.2,20.8c-1.1,5.5-2.2,11-2,16.6c0.1,5.2,2.2,9.3,6.9,11.9c3.7,2,7.8,2.8,11.9,3.2c5.5,0.6,11.1,0.8,16.7,0.9
		c9.9,0,19.9,0,29.8-0.4c4.6-0.2,9.2-0.8,13.6-1.7c7.6-1.5,14.2-5.1,17.2-12.7c1.9-4.9,3.1-10.2,4.2-15.4
		c2.3-10.6,4.4-21.2,6.6-31.8c1.7-8-0.6-14.5-7.1-19.6c-4.8-3.7-10.5-5.6-15.9-8c-6.7-3.1-13.5-5.9-20.2-9c-3.2-1.5-4.5-3.9-3.9-7.1
		c1.1-5.9,2.2-11.9,3.6-17.8c0.6-2.6,1.8-5.2,4.8-5.7c2-0.3,4.1-0.2,6.2,0.1c1.8,0.3,2.9,2.4,2.6,4.1c-0.8,4.1-1.7,8.2-2.5,12.4
		c-0.8,4-1.6,8.1-2.3,12.2c14,0,27.8,0,41.6,0c0.3,0,0.8-0.5,0.9-0.9c1.6-7.6,3.3-15.2,4.6-22.9c0.9-5,1.8-10,1.9-15
		c0.2-6.1-3.9-10.6-9.7-12.4c-6.7-2.1-13.5-2.6-20.4-2.7c-11.9-0.1-23.8,0.1-35.6,0.4c-4.7,0.2-9.4,1-14.1,1.9
		c-4.7,0.9-9,3-12.3,6.6c-4.2,4.6-6.2,10.4-7.6,16.3c-1.8,7.9-3.3,15.9-4.9,23.8c-0.9,4.5-1.5,9.1-0.1,13.6
		c2,6.7,6.8,10.7,12.9,13.5c9.8,4.5,19.8,8.7,29.6,13.3c4.5,2.1,5.2,3.9,4.4,8.2c-1.4,7.5-2.9,14.9-4.4,22.4c-0.3,1.5-0.6,2.9-1,4.3
		c-1.4,3.9-3.6,5.1-8.3,4.8c-4.4-0.3-5.3-3-4.7-6.2c1-5.9,2.4-11.7,3.6-17.6C61.4,356.9,62.3,352.5,63.2,348z M334.3,89.8
		c0,0.2-0.1,0.4-0.1,0.5c0.9,7,1.8,14.1,2.7,21.1c1,7.8,2,15.5,3,23.3c1,7.7,2,15.5,3,23.2c0.6,4.8,1.4,9.6,1.6,14.5
		c0.1,1.8-1.1,3.7-2,5.4c-2.8,5.4-5.6,10.8-8.5,16.1c-5.2,9.7-10.3,19.5-15.5,29.2c-2,3.7-4,7.4-5.9,11.2c-1.3,2.6-2.6,5.1-4,7.8
		c14.1,0,28,0,41.9,0c0.3,0,0.8-0.5,1-0.8c2.6-5.7,5.2-11.4,7.8-17.1c3.4-7.5,6.8-15,10.2-22.5c0.6-1.3,1.2-2.6,1.9-4.3
		c0.2,0.7,0.3,1,0.3,1.4c0.2,2.9,0.3,5.8,0.5,8.6c0.2,3.2,0.5,6.4,0.7,9.5c0.4,6.3,0.8,12.7,1.2,19c0.1,2.1,0.4,4.1,0.5,6.1
		c0.1,1,0.5,1.2,1.5,1.2c13.5,0,27,0,40.5,0c0.4,0,0.8,0,1.2,0c-0.4-2.8-0.7-5.6-1.1-8.3c-0.4-3.4-0.8-6.8-1.2-10.1
		c-0.5-4-1-8-1.5-12.1c-0.4-3.5-0.9-6.9-1.3-10.4c-0.4-3.4-0.9-6.8-1.3-10.2c-0.4-2.8-0.7-5.6-1-8.4c-0.4-3.4-0.9-6.8-1.3-10.2
		c-0.4-3.4-1-6.7-1.3-10.1c-0.1-1.8-0.8-3.6,0.2-5.5c11-20.7,22-41.5,32.9-62.2c0.8-1.6,1.7-3.2,2.6-5c-0.7,0-1.1,0-1.5,0
		c-13.2,0-26.5,0-39.7,0c-1.1,0-1.6,0.3-2,1.3c-5.3,11.8-10.6,23.6-16,35.5c-1.2,2.6-2.4,5.2-3.7,8.3c-1.1-15.6-2.1-30.8-3.2-45.9
		C362.8,89.8,348.6,89.8,334.3,89.8z M305.2,89.8c-0.1,0-0.3,0-0.5,0c-16.8,0-33.5,0-50.3,0c-0.4,0-1.1,0.5-1.2,1
		c-3.7,9.7-7.4,19.5-11.1,29.2c-2.3,6.2-4.7,12.4-7.1,18.6c-2.5,6.6-4.9,13.2-7.3,19.7c-5.2,13.9-10.4,27.7-15.6,41.6
		c-3.9,10.2-7.8,20.5-11.7,30.7c-1.4,3.8-2.7,7.5-4.2,11.5c0.6,0,1.1,0,1.5,0c11.7,0,23.4,0,35.1,0c3.7,0,3.7,0,4.7-3.5
		c2.7-8.6,5.3-17.2,8-25.7c0.1-0.4,0.7-0.8,1.1-0.8c5.3-0.1,10.7-0.1,16,0c0.3,0,1,0.6,0.9,1c-0.1,1.9-0.3,3.9-0.5,5.8
		c-0.3,2.7-0.6,5.4-0.9,8.2c-0.3,2.8-0.6,5.6-0.9,8.4c-0.2,2.2-0.4,4.4-0.6,6.7c0.3,0,0.5,0.1,0.6,0.1c13,0,26.1,0,39.1,0
		c0.3,0,0.9-0.6,0.9-1c0.2-4.4,0.3-8.8,0.4-13.2c0.3-10.4,0.5-20.8,0.8-31.3c0.3-11.8,0.6-23.6,0.9-35.4c0.3-9.6,0.5-19.1,0.8-28.7
		c0.3-10.1,0.5-20.2,0.8-30.3C305.3,98.2,305.2,94,305.2,89.8z M302.4,256.7c-0.3,0-0.8,0-1.2,0c-16.4,0-32.7,0-49.1,0
		c-1.2,0-1.6,0.4-2,1.4c-1.1,3-2.2,5.9-3.3,8.8c-3.5,9.2-6.9,18.4-10.4,27.5c-2.4,6.3-4.7,12.6-7.1,18.9c-2.9,7.6-5.8,15.2-8.7,22.9
		c-3.4,9.1-6.8,18.3-10.2,27.4c-4.3,11.5-8.6,22.9-13,34.4c-1.4,3.7-2.8,7.3-4.1,11c0.2,0,0.4,0.1,0.5,0.1c13,0,26,0,39,0
		c0.4,0,0.9-0.5,1.1-0.9c2.9-9.2,5.9-18.5,8.7-27.8c0.3-1,0.7-1.3,1.8-1.3c4.8,0.1,9.6,0,14.4,0c0.7,0,1.5,0,2.3,0
		c-1,10.1-2,20-3.1,29.8c0.1,0.1,0.2,0.1,0.3,0.1c13.2,0,26.5,0,39.7,0c0.3,0,0.7-0.5,0.7-0.8c0.5-16.3,0.9-32.7,1.3-49
		c0.2-8.6,0.5-17.2,0.7-25.9c0.4-14.8,0.8-29.7,1.2-44.5c0.2-6.3,0.4-12.7,0.5-19C302.4,265.5,302.4,261.2,302.4,256.7z
		 M143.7,179.3c-0.6,0-1.1,0-1.5,0c-8.6,0-17.3,0-25.9,0c-4,0-8.1,0-12.1,0c-0.4,0-1.1,0.3-1.1,0.6c-0.5,2.2-1,4.4-1.4,6.6
		c-1.8,9.1-3.8,18.1-5.4,27.3c-0.9,5-1.5,10.1-1.4,15.2c0.2,5.1,3.3,8.8,8.2,10.8c6.1,2.5,12.6,3,19.1,3.2
		c11.2,0.3,22.4,0.1,33.6-0.2c4.4-0.1,8.9-0.7,13.3-1.4c11-1.6,18.6-7.3,21.5-18.4c1.3-4.9,2.5-9.9,3.5-14.9
		c4.6-22.7,9.1-45.3,13.7-68c3.2-15.7,6.4-31.4,9.6-47.2c0.2-1.1,0.4-2.2,0.6-3.3c-0.4,0-0.5-0.1-0.7-0.1c-13.8,0-27.6,0-41.3,0
		c-0.4,0-1,0.7-1.1,1.2c-0.8,3.9-1.5,7.9-2.3,11.8c-2,10.1-4.1,20.1-6.2,30.2c-2.2,11.1-4.4,22.3-6.6,33.4
		c-2.3,11.7-4.7,23.5-7.1,35.2c-0.8,4-1.6,8.1-2.6,12c-0.6,2.5-2.3,4.2-4.9,4.5c-1.7,0.2-3.5,0.1-5.2-0.1c-2-0.3-3.1-1.7-3-3.7
		c0-1.4,0.4-2.8,0.7-4.1c1.5-7.3,2.9-14.5,4.4-21.7C142.6,185.3,143.1,182.4,143.7,179.3z M386,409c0.3,0.1,0.4,0.1,0.5,0.1
		c22.5,0,45,0,67.5,0c0.3,0,0.8-0.4,0.9-0.7c0.5-2.1,0.9-4.3,1.3-6.4c1.1-5.8,2.3-11.6,3.4-17.6c-8.5,0-17,0-25.6,0
		c0.3-1.7,0.6-3.2,0.9-4.7c2.2-10.9,4.5-21.7,6.7-32.6c0.2-0.9,0.4-1.2,1.4-1.2c7.7,0,15.5,0,23.2,0.1c1.1,0,1.4-0.4,1.6-1.3
		c0.8-4.2,1.7-8.3,2.5-12.5c0.7-3.6,1.5-7.2,2.2-11c-8.6,0-17.2,0-25.8,0c0.6-3.1,1.2-6,1.7-8.9c1.9-9.9,3.9-19.9,5.8-29.8
		c0.2-1,0.6-1.1,1.4-1.1c7.8,0,15.7,0,23.5,0c0.8,0,1.2-0.2,1.4-1.1c0.7-3.7,1.5-7.3,2.3-11c0.9-4.1,1.7-8.3,2.5-12.5
		c-0.4,0-0.8,0-1.1,0c-22.2,0-44.3,0-66.5,0c-0.2,0-0.4-0.1-0.6,0c-0.3,0.2-0.6,0.4-0.7,0.7c-1.8,9-3.6,18-5.4,27
		c-1.9,9.4-3.7,18.8-5.6,28.1c-1.4,6.9-2.9,13.8-4.3,20.7c-2,9.7-3.9,19.4-5.9,29.1c-1.7,8.7-3.5,17.4-5.2,26.1
		c-0.9,4.6-1.9,9.2-2.8,13.7C386.8,404.4,386.4,406.7,386,409z M161.7,281.9c-8.5,42.4-17,84.8-25.5,127.1c0.1,0,0.2,0.1,0.2,0.1
		c14,0,27.9,0,41.9,0c0.3,0,0.8-0.5,0.9-0.8c0.9-4.2,1.8-8.5,2.6-12.8c2.2-10.9,4.4-21.9,6.6-32.8c2.7-13.5,5.3-27,8-40.4
		c2.6-13.1,5.3-26.1,7.9-39.2c0.2-1,0.6-1.1,1.4-1.1c6.6,0,13.3,0,19.9,0c0.4,0,0.8,0,1.3,0c1.7-8.4,3.4-16.8,5.1-25.1
		c-29.3,0-58.4,0-87.5,0c-1.7,8.4-3.3,16.7-5,25.1C146.9,281.9,154.3,281.9,161.7,281.9z M338.4,281.9c-8.5,42.4-17,84.7-25.6,127.1
		c14.2,0,28.2,0,42.2,0c0.3,0,0.8-0.5,0.9-0.8c0.8-3.7,1.4-7.3,2.2-11c4.2-21,8.5-41.9,12.7-62.9c3.5-17.1,6.9-34.3,10.3-51.4
		c0.2-0.9,0.5-1.1,1.3-1.1c6.7,0,13.4,0,20.1,0c0.7,0,1.1,0,1.3-1c0.5-2.9,1.1-5.7,1.7-8.6c1.1-5.2,2.1-10.4,3.1-15.6
		c-0.4,0-0.6-0.1-0.9-0.1c-28.5,0-57,0-85.5,0c-1.1,0-1.2,0.6-1.4,1.3c-1.2,6.1-2.5,12.2-3.7,18.4c-0.4,1.8-0.7,3.7-1,5.6
		C323.6,281.9,331,281.9,338.4,281.9z M317.5,196.9c0.1,0,0.2,0.1,0.3,0.1c0.2-0.3,0.3-0.6,0.5-0.9c1.2-2.5,2.3-5,3.5-7.4
		c2.1-4.6,4.1-9.2,6.5-13.7c1.6-3,2-5.9,1.5-9.2c-0.5-2.8-0.8-5.6-1.2-8.4c-0.5-3.6-0.9-7.3-1.4-10.9c-0.3-2.5-0.7-4.9-1-7.4
		c-0.5-4.2-0.9-8.3-1.5-12.5c-0.6-4.4-1.3-8.8-1.8-13.3c-0.7-5.9-1.4-11.7-2.1-17.6c-0.1-0.7-0.2-1.5-0.4-2.2c-0.1,0-0.1,0-0.2,0
		C319.3,128,318.4,162.5,317.5,196.9z M223.9,293.9c-2.9,0-5.5,0.1-8.2,0c-1.1,0-1.4,0.5-1.6,1.4c-0.8,4.1-1.6,8.2-2.4,12.2
		c-1.1,5.3-2.1,10.7-3.2,16c-1.1,5.7-2.3,11.4-3.4,17.1c-0.3,1.5-0.6,3-0.9,4.4c0.1,0,0.3,0.1,0.4,0.1
		C211,328.1,217.4,311.1,223.9,293.9z"/>
	<path class="st0" d="M63.2,348c-0.9,4.4-1.8,8.9-2.7,13.3c-1.2,5.9-2.6,11.7-3.6,17.6c-0.6,3.2,0.4,5.9,4.7,6.2
		c4.7,0.3,6.9-0.9,8.3-4.8c0.5-1.4,0.8-2.9,1-4.3c1.5-7.5,3-14.9,4.4-22.4c0.8-4.3,0.1-6.1-4.4-8.2c-9.8-4.6-19.7-8.8-29.6-13.3
		c-6-2.8-10.9-6.8-12.9-13.5c-1.3-4.5-0.8-9.1,0.1-13.6c1.6-7.9,3.1-15.9,4.9-23.8c1.4-5.9,3.3-11.7,7.6-16.3
		c3.3-3.6,7.6-5.7,12.3-6.6c4.7-0.9,9.4-1.7,14.1-1.9c11.9-0.4,23.7-0.5,35.6-0.4c6.9,0.1,13.7,0.6,20.4,2.7
		c5.8,1.8,9.9,6.3,9.7,12.4c-0.1,5-1,10-1.9,15c-1.4,7.7-3.1,15.3-4.6,22.9c-0.1,0.3-0.6,0.9-0.9,0.9c-13.8,0-27.6,0-41.6,0
		c0.8-4.1,1.6-8.2,2.3-12.2c0.8-4.1,1.7-8.2,2.5-12.4c0.3-1.7-0.8-3.8-2.6-4.1c-2-0.3-4.2-0.4-6.2-0.1c-3,0.5-4.2,3.1-4.8,5.7
		c-1.3,5.9-2.5,11.8-3.6,17.8c-0.6,3.3,0.7,5.6,3.9,7.1c6.7,3.1,13.5,6,20.2,9c5.4,2.5,11.1,4.3,15.9,8c6.5,5.1,8.8,11.6,7.1,19.6
		c-2.2,10.6-4.3,21.2-6.6,31.8c-1.1,5.2-2.3,10.5-4.2,15.4c-3,7.6-9.5,11.2-17.2,12.7c-4.5,0.9-9.1,1.5-13.6,1.7
		c-9.9,0.3-19.9,0.4-29.8,0.4c-5.6,0-11.1-0.3-16.7-0.9c-4.1-0.4-8.2-1.2-11.9-3.2c-4.7-2.5-6.7-6.6-6.9-11.9
		c-0.2-5.6,0.9-11.1,2-16.6c1.4-6.9,2.8-13.9,4.2-20.8c0.6-2.7,1.2-5.5,1.8-8.2c0.1-0.3,0.5-0.6,0.7-0.6c14.1,0,28.1,0,42.2,0
		C63,347.9,63,347.9,63.2,348z M82.7,346.5C82.6,346.4,82.6,346.4,82.7,346.5C82.6,346.4,82.7,346.4,82.7,346.5
		c0.8,4.4-0.2,8.7-1.1,13c-1.1,6-2.4,12-3.6,17.9c-0.8,4.2-2.1,8.1-5.5,11c-4.4,3.8-12.3,4.4-17.9,1.5c-0.4-0.2-0.8-0.4-1.2-0.5
		c-0.2,0.2-0.3,0.3-0.5,0.5c1.5,1.8,2.7,4,4.5,5.5c3.1,2.7,7,2.9,10.9,2.6c5.2-0.3,9.2-2.6,11.5-7.3c1.2-2.6,2-5.4,2.6-8.2
		c1.4-6.2,2.5-12.4,3.7-18.6c0.6-3.4,1.6-6.8,0.8-10.3C86.3,350.7,85.2,348.1,82.7,346.5z M125.1,271.1c0.3-3.1-0.9-5-3.9-6.1
		c-6.1-2.1-12.4-2.4-18.7-2.5c-11.1-0.2-22.2-0.1-33.3,0.2c-4.5,0.1-9.1,0.8-13.5,1.6c-4.2,0.7-8,2.4-10.6,6.1
		c-3.1,4.5-4.1,9.8-5.2,14.9c-1.4,6.5-2.5,12.9-3.8,19.4c-0.6,3.2-1.4,6.4-0.6,9.7c0.6,2.5,2,4.6,4.2,6.5c-0.1-1.2-0.3-2-0.2-2.9
		c0.6-4.3,1.2-8.6,2.1-12.8c1.5-7.3,3-14.6,4.7-21.8c0.9-3.7,2.6-7,5.7-9.3c3.9-3,8.7-3.8,13.4-4.4c4.3-0.5,8.7-0.9,13.1-0.9
		c10.8-0.1,21.6,0.1,32.4,0.2c2,0,4,0.2,6,0.5C119.6,269.9,122.3,270.5,125.1,271.1z M23.3,398.2c0.6-4.3,1.1-8.5,1.9-12.7
		c1.5-8,3.2-15.9,4.9-23.8c0.1-0.4,0.7-0.9,1.1-0.9c4.6-0.1,9.2,0,13.8,0c2.3,0,4.6,0,7,0c0.4-2.1,0.8-4.2,1.3-6.3
		c-8.9,0-17.7,0-26.5,0c-0.3,0-0.8,0.6-0.8,0.9c-1.5,7.1-3,14.3-4.5,21.4c-1.1,5.5-2.3,10.9-2,16.5
		C19.7,396.1,20.9,397.5,23.3,398.2z M68.5,315.7c1.1,3.5,3.8,6.2,7.4,8c5.9,2.9,11.9,5.3,17.9,8c4.5,2,9,3.9,13.4,5.9
		c1.3,0.6,2.5,1.5,3.9,2.4c-0.1-0.4-0.1-0.6-0.2-0.8c-1.4-3.8-4.4-6.2-7.9-7.8c-6.9-3.2-13.9-6.2-20.9-9.3
		C77.5,319.9,72.9,317.7,68.5,315.7z M93.4,300.8c0.7,0,1.5,0,2.3,0c2.9,0,3,0,3.5-2.7c0.6-2.9,1.2-5.8,1.3-8.7
		c0.1-3.5-1.4-6.6-4.3-9C96.9,287.5,94.1,293.9,93.4,300.8z"/>
	<path class="st0" d="M334.3,89.8c14.3,0,28.6,0,43,0c1.1,15.1,2.1,30.3,3.2,45.9c1.4-3,2.6-5.7,3.7-8.3c5.3-11.8,10.7-23.6,16-35.5
		c0.4-0.9,0.9-1.3,2-1.3c13.2,0,26.5,0,39.7,0c0.4,0,0.8,0,1.5,0c-0.9,1.8-1.8,3.4-2.6,5c-11,20.7-21.9,41.5-32.9,62.2
		c-1,1.9-0.3,3.7-0.2,5.5c0.3,3.4,0.8,6.8,1.3,10.1c0.4,3.4,0.9,6.8,1.3,10.2c0.4,2.8,0.7,5.6,1,8.4c0.4,3.4,0.9,6.8,1.3,10.2
		c0.4,3.5,0.9,6.9,1.3,10.4c0.5,4,1,8,1.5,12.1c0.4,3.4,0.8,6.8,1.2,10.1c0.3,2.7,0.7,5.4,1.1,8.3c-0.4,0-0.8,0-1.2,0
		c-13.5,0-27,0-40.5,0c-1,0-1.4-0.3-1.5-1.2c-0.2-2.1-0.4-4.1-0.5-6.1c-0.4-6.3-0.8-12.7-1.2-19c-0.2-3.2-0.5-6.4-0.7-9.5
		c-0.2-2.9-0.3-5.7-0.5-8.6c0-0.3-0.1-0.7-0.3-1.4c-0.7,1.6-1.3,3-1.9,4.3c-3.4,7.5-6.8,15-10.2,22.5c-2.6,5.7-5.2,11.4-7.8,17.1
		c-0.2,0.4-0.7,0.8-1,0.8c-13.9,0-27.8,0-41.9,0c1.4-2.7,2.7-5.3,4-7.8c2-3.7,4-7.4,5.9-11.2c5.2-9.7,10.3-19.5,15.5-29.2
		c2.8-5.4,5.7-10.7,8.5-16.1c0.9-1.7,2.1-3.6,2-5.4c-0.2-4.8-1-9.7-1.6-14.5c-1-7.7-2-15.5-3-23.2c-1-7.8-2-15.5-3-23.3
		c-0.9-7-1.8-14.1-2.7-21.1C334.2,90.2,334.2,90,334.3,89.8z M366.6,103.9c-0.1-1.7-0.2-3.4-0.4-5c-0.1-0.4-0.6-1.1-1-1.1
		c-7.1,0-14.1,0-21.2,0c-0.3,0-0.8,0.6-0.8,1c0,1,0.3,2,0.4,3c0.4,3.6,0.7,7.2,1.2,10.8c0.6,5,1.3,10,1.9,15.1
		c0.5,4.3,0.9,8.7,1.4,13c0.6,5,1.3,10,1.9,15c0.6,4.6,1.1,9.2,1.6,13.8c0.2,1.7,0,3.2-0.8,4.7c-4.4,8-8.6,16-12.9,24
		c-4.1,7.6-8.1,15.3-12.2,22.9c-1.6,2.9-3.1,5.9-4.7,8.9c1.7,0.8,3.3,1.5,4.9,2.1c0.3,0.1,1.1-0.2,1.2-0.5
		c4.4-8.3,8.8-16.6,13.1-24.9c5.1-9.8,10.3-19.6,15.4-29.4c1.4-2.6,3.1-5.1,2.3-8.5c-0.8-3.9-1.2-7.9-1.7-11.8
		c-0.6-4.8-1.1-9.7-1.8-14.5c-0.7-5.4-1.5-10.9-2.2-16.3c-0.6-4.9-1.2-9.9-1.8-14.9c-0.3-2.4-0.6-4.8-0.9-7.3
		C355.4,103.9,361,103.9,366.6,103.9z M429.4,97.8c-7.8,0-15.4,0-22.9,0c-0.9,0-1.4,0.3-1.9,1.1c-5.3,10.2-10.6,20.4-15.8,30.7
		c-2.2,4.2-4.3,8.3-6.5,12.6c1.5,0.8,2.8,1.6,4.3,2.4c0.3-0.6,0.6-1.1,0.8-1.5c6.6-12.7,13.2-25.5,19.9-38.2
		c0.2-0.4,0.9-0.8,1.4-0.8c5.6-0.1,11.1,0,16.7-0.1c0.4,0,1-0.2,1.2-0.4C427.5,101.6,428.4,99.8,429.4,97.8z M376.3,193.2
		c0.6,5.9,1.1,11.7,1.7,17.5c0.7,6.5,1.4,13,2.1,19.6c0,0.3,0.3,0.9,0.5,0.9c1.4,0.1,2.9,0,4.3,0c-0.3-2.8-0.5-5.6-0.9-8.3
		c-0.6-5.1-1.3-10.3-1.9-15.4c-0.5-4.5-0.9-9-1.5-13.6c0-0.3-0.5-0.7-0.7-0.7C378.9,193.1,377.7,193.2,376.3,193.2z"/>
	<path class="st0" d="M305.2,89.8c0,4.2,0.1,8.3,0,12.4c-0.2,10.1-0.5,20.2-0.8,30.3c-0.2,9.6-0.5,19.1-0.8,28.7
		c-0.3,11.8-0.6,23.6-0.9,35.4c-0.3,10.4-0.5,20.8-0.8,31.3c-0.1,4.4-0.2,8.8-0.4,13.2c0,0.4-0.6,1-0.9,1c-13,0.1-26.1,0-39.1,0
		c-0.1,0-0.3,0-0.6-0.1c0.2-2.3,0.4-4.5,0.6-6.7c0.3-2.8,0.6-5.6,0.9-8.4c0.3-2.7,0.6-5.4,0.9-8.2c0.2-1.9,0.4-3.9,0.5-5.8
		c0-0.3-0.6-1-0.9-1c-5.3-0.1-10.7-0.1-16,0c-0.4,0-1,0.5-1.1,0.8c-2.7,8.6-5.4,17.1-8,25.7c-1.1,3.5-1,3.5-4.7,3.5
		c-11.7,0-23.4,0-35.1,0c-0.5,0-0.9,0-1.5,0c1.4-3.9,2.8-7.7,4.2-11.5c3.9-10.2,7.8-20.5,11.7-30.7c5.2-13.9,10.4-27.7,15.6-41.6
		c2.5-6.6,4.9-13.2,7.3-19.7c2.3-6.2,4.7-12.4,7.1-18.6c3.7-9.7,7.3-19.5,11.1-29.2c0.2-0.4,0.8-1,1.2-1c16.8,0,33.5,0,50.3,0
		C305,89.8,305.1,89.8,305.2,89.8z M296.8,97.3c-0.3,0-0.7-0.1-1-0.1c-11.9,0-23.8,0-35.7,0c-0.4,0-1.1,0.5-1.3,0.9
		c-3.1,8-6.1,15.9-9.2,23.9c-2.9,7.6-5.7,15.2-8.5,22.8c-4,10.7-8,21.5-12,32.2c-2.4,6.5-4.9,12.9-7.3,19.3
		c-2.9,7.8-5.8,15.6-8.7,23.3c-1.4,3.7-2.7,7.3-4.1,11.1c1.9,0,3.6-0.1,5.3,0c0.8,0,1.2-0.3,1.5-1c6.1-16.4,12.3-32.8,18.5-49.2
		c4.3-11.5,8.6-23,12.9-34.5c2-5.4,3.9-10.7,5.9-16.1c1.6-4.2,3.2-8.5,4.8-12.7c1.6-4.2,3.2-8.5,4.8-12.8c0.3-0.9,0.8-1.2,1.7-1.2
		c10.3,0,20.6,0,30.8,0c0.5,0,0.9,0,1.5,0C296.8,101.3,296.8,99.3,296.8,97.3z M278.1,198.7c2.3-24.2,4.6-48.4,6.9-72.6
		c-1.6,0-3.2,0-4.7,0c-2.1,22.2-4.2,44.3-6.4,66.5c-0.5,0-0.9,0-1.3,0c-7.5,0-15,0-22.5,0c-0.4,0-1.1,0.1-1.2,0.4
		c-0.6,1.9-1.2,3.8-1.7,5.7C257.7,198.7,267.8,198.7,278.1,198.7z M253.1,187.3c4.6,0,8.9,0,13.3,0c0.2,0,0.6-0.3,0.7-0.5
		c0.4-3.3,0.7-6.7,1-10c0.4-3.7,0.8-7.4,1.1-11.2c0.4-4.2,0.7-8.4,1-12.6c0.2-2,0.4-3.9,0.6-5.9c0.2-2.1,0.4-4.2,0.6-6.4
		c0.2-2,0.4-4,0.6-6.1c0.2-2,0.4-4,0.5-5.9c-1.2-0.4-1.8,0-2.1,1.1c-0.9,3.4-2,6.7-3,10c-2.4,8-4.9,16-7.3,23.9
		c-1.5,4.9-2.9,9.8-4.4,14.7C254.8,181.4,254,184.3,253.1,187.3z M271.9,207.7c-0.8,7.7-1.5,15.4-2.3,23.1c1.6,0,3.2,0,4.8,0
		c0.8-7.7,1.5-15.4,2.3-23.1C275,207.7,273.5,207.7,271.9,207.7z"/>
	<path class="st0" d="M302.4,256.7c0,4.4,0.1,8.7,0,13c-0.1,6.3-0.3,12.7-0.5,19c-0.4,14.8-0.8,29.7-1.2,44.5
		c-0.2,8.6-0.5,17.2-0.7,25.9c-0.4,16.3-0.9,32.7-1.3,49c0,0.3-0.5,0.8-0.7,0.8c-13.2,0-26.5,0-39.7,0c-0.1,0-0.1-0.1-0.3-0.1
		c1-9.9,2-19.8,3.1-29.8c-0.8,0-1.6,0-2.3,0c-4.8,0-9.6,0-14.4,0c-1.1,0-1.5,0.4-1.8,1.3c-2.9,9.3-5.8,18.5-8.7,27.8
		c-0.1,0.4-0.7,0.9-1.1,0.9c-13,0-26,0-39,0c-0.1,0-0.2,0-0.5-0.1c1.4-3.7,2.8-7.4,4.1-11c4.3-11.5,8.6-22.9,13-34.4
		c3.4-9.1,6.8-18.3,10.2-27.4c2.9-7.6,5.8-15.2,8.7-22.9c2.4-6.3,4.7-12.6,7.1-18.9c3.5-9.2,6.9-18.4,10.4-27.5
		c1.1-2.9,2.2-5.9,3.3-8.8c0.4-1,0.8-1.4,2-1.4c16.4,0.1,32.7,0,49.1,0C301.6,256.7,302,256.7,302.4,256.7z M206.2,401.3
		c2,0,3.9,0,5.8,0c0.4,0,0.9-0.4,1-0.7c0.4-0.9,0.7-1.8,1-2.7c1.5-4,2.9-7.9,4.4-11.9c1.9-5.1,3.9-10.2,5.8-15.3
		c2-5.3,3.9-10.6,5.9-15.9c2.4-6.5,4.9-12.9,7.3-19.4c4.4-11.6,8.8-23.2,13.1-34.8c3.6-9.6,7.2-19.1,10.8-28.7c0.2-0.5,1-1,1.4-1
		c10.6-0.1,21.2,0,31.8,0c0.4,0,0.8,0,1.4,0c0-2.2,0-4.2,0-6.4c-0.4,0-0.9,0-1.3,0c-11.9,0-23.8,0-35.7,0c-1.1,0-1.5,0.3-1.9,1.3
		c-4.9,13.1-9.8,26.1-14.7,39.2c-5,13.3-10,26.6-15,39.8c-4.3,11.5-8.7,23.1-13.1,34.6C211.7,386.6,209,393.9,206.2,401.3z
		 M277,368.3c2.3-24.8,4.7-49.5,7-74.3c-1.4,0-2.8,0-4.2,0c-0.2,0-0.6,0.5-0.7,0.8c-0.4,4.6-0.8,9.1-1.2,13.7
		c-0.6,6.1-1.3,12.2-1.8,18.3c-0.4,4.1-0.7,8.2-1,12.2c-0.7,7.2-1.4,14.4-2,21.7c-0.1,1.1-0.4,1.4-1.5,1.4c-7.6-0.1-15.1,0-22.7,0
		c-0.6,0-1.5,0.2-1.6,0.5c-0.7,1.8-1.2,3.7-1.7,5.6C256,368.3,266.4,368.3,277,368.3z M269.6,295.7c-1.3-0.4-1.7,0-2.1,1.2
		c-1.8,6.2-3.6,12.5-5.5,18.7c-1.8,6.1-3.7,12.1-5.6,18.2c-1.7,5.7-3.5,11.3-5.2,17c-0.3,1.1-0.6,2.3-0.9,3.5c4.5,0,8.8,0,13.1,0
		c0.3,0,0.8-0.5,0.8-0.8c0.3-2.8,0.5-5.6,0.8-8.4c0.3-3.2,0.4-6.4,0.7-9.6c0.3-3.9,0.8-7.7,1.2-11.6c0.3-2.7,0.5-5.3,0.7-8
		c0.4-4,0.8-7.9,1.2-11.9C269,301.2,269.3,298.5,269.6,295.7z M273.1,401.3c0.8-8,1.6-15.8,2.4-23.7c-1.7,0-3.2,0-4.8,0
		c-0.8,7.9-1.6,15.8-2.4,23.7C269.9,401.3,271.5,401.3,273.1,401.3z"/>
	<path class="st0" d="M143.7,179.3c-0.6,3.1-1.2,6-1.8,8.9c-1.5,7.3-3,14.5-4.4,21.7c-0.3,1.4-0.6,2.7-0.7,4.1c-0.1,2,1,3.4,3,3.7
		c1.7,0.3,3.5,0.3,5.2,0.1c2.6-0.3,4.3-2,4.9-4.5c1-4,1.8-8,2.6-12c2.4-11.7,4.8-23.5,7.1-35.2c2.2-11.1,4.4-22.3,6.6-33.4
		c2-10.1,4.1-20.1,6.2-30.2c0.8-3.9,1.5-7.9,2.3-11.8c0.1-0.5,0.7-1.2,1.1-1.2c13.8-0.1,27.6-0.1,41.3,0c0.2,0,0.3,0,0.7,0.1
		c-0.2,1.1-0.3,2.2-0.6,3.3c-3.2,15.7-6.4,31.4-9.6,47.2c-4.6,22.7-9.1,45.3-13.7,68c-1,5-2.2,9.9-3.5,14.9
		c-2.9,11-10.5,16.8-21.5,18.4c-4.4,0.6-8.9,1.3-13.3,1.4c-11.2,0.3-22.4,0.5-33.6,0.2c-6.4-0.2-12.9-0.7-19.1-3.2
		c-4.9-2-8-5.7-8.2-10.8c-0.2-5,0.5-10.2,1.4-15.2c1.6-9.1,3.5-18.2,5.4-27.3c0.4-2.2,0.9-4.4,1.4-6.6c0.1-0.3,0.7-0.6,1.1-0.6
		c4,0,8.1,0,12.1,0c8.6,0,17.3,0,25.9,0C142.7,179.3,143.1,179.3,143.7,179.3z M132.5,220.5c1,1.4,1.8,3.3,3.2,4.6
		c4.6,4,10,4,15.5,2.5c5.8-1.7,8.3-6.2,9.4-11.7c2-9.8,4-19.5,5.9-29.3c1.8-9,3.6-18,5.4-27.1c1.8-9,3.6-17.9,5.4-26.9
		c1.8-9.1,3.6-18.2,5.5-27.3c0.5-2.6,0.6-2.6,3.3-2.6c6,0,12.1,0,18.1,0c0.4-2.1,0.8-4.1,1.2-6.1c-8.6,0-17.2,0-25.7,0
		c-0.3,0-0.7,0.3-0.8,0.6c-1.1,5.4-2.2,10.8-3.3,16.3c-2,9.7-4,19.5-5.9,29.2c-1.5,7.4-2.8,14.7-4.3,22.1c-1.4,7-2.8,14-4.2,21
		c-1.7,8.4-3.2,16.9-5.2,25.3c-1.8,7.5-7.1,11.4-14.7,11.1C138.5,222.2,135.6,221.2,132.5,220.5z M106,228.6c0.6-4.1,1-8.2,1.7-12.2
		c1.6-8.4,3.4-16.7,5.2-25c0.1-0.4,0.8-0.9,1.2-1c5.6-0.1,11.1,0,16.7-0.1c0.4,0,1-0.2,1.1-0.5c0.4-1.8,0.8-3.7,1.1-5.5
		c-0.2,0-0.3-0.1-0.4-0.1c-7.6,0-15.3,0-22.9,0c-0.3,0-0.7,0.5-0.8,0.8c-1.4,6.8-2.8,13.5-4.2,20.3c-1.3,6.2-2.6,12.4-2.4,18.8
		C102.3,226.6,103.5,228,106,228.6z"/>
	<path class="st0" d="M386,409c0.4-2.3,0.8-4.5,1.3-6.8c0.9-4.6,1.9-9.2,2.8-13.7c1.7-8.7,3.5-17.4,5.2-26.1
		c1.9-9.7,3.9-19.4,5.9-29.1c1.4-6.9,2.9-13.8,4.3-20.7c1.9-9.4,3.8-18.8,5.6-28.1c1.8-9,3.6-18,5.4-27c0.1-0.3,0.4-0.5,0.7-0.7
		c0.1-0.1,0.4,0,0.6,0c22.2,0,44.3,0,66.5,0c0.3,0,0.6,0,1.1,0c-0.9,4.2-1.7,8.4-2.5,12.5c-0.8,3.7-1.6,7.3-2.3,11
		c-0.2,0.9-0.5,1.1-1.4,1.1c-7.8,0-15.7,0-23.5,0c-0.8,0-1.2,0.1-1.4,1.1c-1.9,9.9-3.9,19.9-5.8,29.8c-0.6,2.9-1.1,5.8-1.7,8.9
		c8.7,0,17.2,0,25.8,0c-0.8,3.8-1.5,7.4-2.2,11c-0.8,4.2-1.7,8.3-2.5,12.5c-0.2,0.9-0.5,1.3-1.6,1.3c-7.7-0.1-15.5,0-23.2-0.1
		c-1,0-1.2,0.4-1.4,1.2c-2.2,10.9-4.5,21.7-6.7,32.6c-0.3,1.5-0.6,3-0.9,4.7c8.6,0,17,0,25.6,0c-1.2,6-2.3,11.8-3.4,17.6
		c-0.4,2.1-0.8,4.3-1.3,6.4c-0.1,0.3-0.6,0.7-0.9,0.7c-22.5,0-45,0-67.5,0C386.4,409.1,386.3,409,386,409z M475.5,263.7
		c-0.3,0-0.5,0-0.7,0c-17,0-34.1,0-51.1,0c-0.4,0-1,0.6-1.1,1c-1.3,6.3-2.6,12.5-3.8,18.8c-2.8,14-5.7,28.1-8.5,42.1
		c-4.4,21.8-8.8,43.6-13.2,65.4c-0.6,3.1-1.2,6.1-1.9,9.3c1.5,0,2.8-0.1,4,0c1.2,0.1,1.5-0.4,1.8-1.5c2.2-11.2,4.5-22.5,6.8-33.7
		c2.8-13.9,5.6-27.7,8.3-41.6c2-9.9,3.9-19.9,5.9-29.8c1.5-7.7,3.2-15.3,4.7-23c0.2-0.9,0.6-1,1.4-1c14.9,0,29.7,0,44.6,0
		c0.5,0,0.9,0,1.4,0C474.7,267.8,475.1,265.9,475.5,263.7z M462.7,328c-6.9,0-13.7,0-20.5,0c-0.4,2-0.8,4-1.2,6.2
		c6.6,0,13.3,0,19.9,0c0.2,0,0.6-0.3,0.6-0.5C461.9,331.9,462.3,330,462.7,328z M449.8,391.3c-6.7,0-13.2,0-19.7,0
		c-0.2,0-0.6,0.2-0.6,0.4c-0.4,1.9-0.8,3.8-1.2,5.7c6.9,0,13.6,0,20.3,0C449,395.4,449.4,393.5,449.8,391.3z"/>
	<path class="st0" d="M161.7,281.9c-7.5,0-14.8,0-22.3,0c1.7-8.4,3.3-16.7,5-25.1c29.1,0,58.2,0,87.5,0c-1.7,8.4-3.4,16.7-5.1,25.1
		c-0.4,0-0.8,0-1.3,0c-6.6,0-13.3,0-19.9,0c-0.8,0-1.2,0.1-1.4,1.1c-2.6,13.1-5.3,26.1-7.9,39.2c-2.7,13.5-5.4,27-8,40.4
		c-2.2,10.9-4.4,21.9-6.6,32.8c-0.9,4.3-1.7,8.5-2.6,12.8c-0.1,0.3-0.6,0.8-0.9,0.8c-14,0-27.9,0-41.9,0c0,0-0.1,0-0.2-0.1
		C144.7,366.7,153.2,324.4,161.7,281.9z M151.2,401.3c8.1-40.3,16.2-80.6,24.3-120.9c-1.9,0-3.7,0-5.5,0
		c-8.1,40.3-16.2,80.6-24.3,120.9C147.7,401.3,149.4,401.3,151.2,401.3z M222.5,264.5c-0.6,0-1.1,0-1.6,0c-19.4,0-38.9,0-58.3,0
		c-3.6,0-7.1,0-10.7,0c-0.3,0-0.9,0.3-1,0.6c-0.7,3-1.2,5.9-1.9,9c1.4,0,2.6-0.1,3.9,0c1.3,0.1,1.8-0.3,1.9-1.6c0-1.3,0.6-1.7,2-1.7
		c7.5,0.1,15.1,0,22.6,0c13.5,0,27.1,0,40.6,0c0.4,0,1.1-0.2,1.2-0.5C221.7,268.5,222.1,266.6,222.5,264.5z"/>
	<path class="st0" d="M338.4,281.9c-7.4,0-14.7,0-22.3,0c0.4-1.9,0.7-3.8,1-5.6c1.2-6.1,2.5-12.2,3.7-18.4c0.2-0.7,0.3-1.3,1.4-1.3
		c28.5,0,57,0,85.5,0c0.3,0,0.5,0,0.9,0.1c-1.1,5.2-2.1,10.4-3.1,15.6c-0.6,2.9-1.3,5.7-1.7,8.6c-0.2,1-0.6,1-1.3,1
		c-6.7,0-13.4,0-20.1,0c-0.8,0-1.1,0.2-1.3,1.1c-3.4,17.2-6.9,34.3-10.3,51.4c-4.2,21-8.5,41.9-12.7,62.9c-0.7,3.7-1.4,7.3-2.2,11
		c-0.1,0.3-0.6,0.8-0.9,0.8c-14,0-27.9,0-42.2,0C321.3,366.7,329.8,324.3,338.4,281.9z M352.2,280.3c-1.5,0-3,0.1-4.4,0
		c-0.8-0.1-1.1,0.2-1.3,1c-0.8,4.4-1.7,8.8-2.6,13.2c-4.7,23.2-9.3,46.3-14,69.5c-1.3,6.5-2.6,13.1-4,19.6
		c-1.2,5.9-2.4,11.7-3.6,17.6c1.8,0,3.6,0,5.5,0C335.9,361,344,320.7,352.2,280.3z M325.7,274.1c1.5,0,2.8-0.1,4.2,0
		c1.1,0.1,1.6-0.3,1.6-1.4c0-1.6,0.8-1.9,2.3-1.9c12.7,0.1,25.4,0,38,0c8.3,0,16.6,0,25,0c0.4,0,1.1-0.2,1.1-0.4
		c0.5-1.9,0.8-3.9,1.2-5.9c-0.6,0-1.1,0-1.6,0c-19.3,0-38.5,0-57.8,0c-3.7,0-7.5,0-11.2,0c-0.4,0-1,0.3-1,0.5
		C326.8,268,326.3,271,325.7,274.1z"/>
	<path class="st0" d="M312.1,350c0.1,0,0.3,0,0.4,0.1c-0.1,0.4-0.2,0.8-0.3,1.2c0,0-0.1,0-0.1,0C312.1,350.8,312.1,350.4,312.1,350z
		"/>
	<path class="st1" d="M125.1,271.1c-2.8-0.5-5.5-1.2-8.3-1.6c-2-0.3-4-0.5-6-0.5c-10.8-0.1-21.6-0.3-32.4-0.2
		c-4.4,0-8.7,0.4-13.1,0.9c-4.7,0.6-9.4,1.3-13.4,4.4c-3.1,2.4-4.8,5.7-5.7,9.3c-1.7,7.2-3.3,14.5-4.7,21.8
		c-0.9,4.3-1.5,8.6-2.1,12.8c-0.1,0.8,0.1,1.7,0.2,2.9c-2.2-1.9-3.6-3.9-4.2-6.5c-0.8-3.3,0-6.5,0.6-9.7c1.3-6.5,2.4-13,3.8-19.4
		c1.1-5.2,2.1-10.4,5.2-14.9c2.6-3.7,6.4-5.4,10.6-6.1c4.5-0.8,9-1.5,13.5-1.6c11.1-0.3,22.2-0.4,33.3-0.2
		c6.3,0.1,12.6,0.3,18.7,2.5C124.1,266,125.3,267.9,125.1,271.1z"/>
	<path class="st1" d="M82.7,346.5c2.5,1.7,3.7,4.3,4.3,7.1c0.7,3.5-0.2,6.9-0.8,10.3c-1.2,6.2-2.4,12.4-3.7,18.6
		c-0.6,2.8-1.3,5.7-2.6,8.2c-2.2,4.7-6.3,7-11.5,7.3c-3.9,0.3-7.8,0-10.9-2.6c-1.8-1.5-3-3.6-4.5-5.5c0.2-0.2,0.3-0.3,0.5-0.5
		c0.4,0.2,0.8,0.3,1.2,0.5c5.5,2.9,13.4,2.3,17.9-1.5c3.4-2.9,4.6-6.9,5.5-11c1.2-6,2.5-11.9,3.6-17.9
		C82.4,355.2,83.5,350.9,82.7,346.5L82.7,346.5z"/>
	<path class="st1" d="M23.3,398.2c-2.4-0.7-3.7-2.2-3.8-4.9c-0.3-5.6,0.8-11.1,2-16.5c1.5-7.1,2.9-14.3,4.5-21.4
		c0.1-0.4,0.6-0.9,0.8-0.9c8.8,0,17.6,0,26.5,0c-0.4,2.1-0.8,4.2-1.3,6.3c-2.3,0-4.7,0-7,0c-4.6,0-9.2,0-13.8,0
		c-0.4,0-1,0.5-1.1,0.9c-1.7,7.9-3.4,15.9-4.9,23.8C24.5,389.7,24,394,23.3,398.2z"/>
	<path class="st1" d="M68.5,315.7c4.4,2,9,4.2,13.6,6.3c7,3.1,14,6.1,20.9,9.3c3.5,1.6,6.5,4,7.9,7.8c0.1,0.2,0.1,0.4,0.2,0.8
		c-1.4-0.9-2.6-1.8-3.9-2.4c-4.4-2-8.9-4-13.4-5.9c-6-2.6-12-5.1-17.9-8C72.3,321.9,69.5,319.1,68.5,315.7z"/>
	<path class="st1" d="M93.4,300.8c0.6-6.8,3.5-13.2,2.8-20.3c3,2.4,4.5,5.4,4.3,9c-0.1,2.9-0.7,5.8-1.3,8.7
		c-0.5,2.7-0.6,2.7-3.5,2.7C94.9,300.8,94.1,300.8,93.4,300.8z"/>
	<path class="st1" d="M82.7,346.4C82.7,346.4,82.6,346.4,82.7,346.4C82.6,346.4,82.6,346.4,82.7,346.4
		C82.7,346.5,82.7,346.4,82.7,346.4z"/>
	<path class="st1" d="M366.6,103.9c-5.6,0-11.2,0-17,0c0.3,2.5,0.6,4.9,0.9,7.3c0.6,5,1.2,9.9,1.8,14.9c0.7,5.4,1.5,10.9,2.2,16.3
		c0.6,4.8,1.2,9.7,1.8,14.5c0.5,4,0.9,7.9,1.7,11.8c0.7,3.4-1,5.9-2.3,8.5c-5.1,9.8-10.3,19.6-15.4,29.4
		c-4.4,8.3-8.7,16.6-13.1,24.9c-0.2,0.3-0.9,0.6-1.2,0.5c-1.6-0.6-3.2-1.4-4.9-2.1c1.6-3,3.1-6,4.7-8.9c4.1-7.6,8.1-15.3,12.2-22.9
		c4.3-8,8.5-16.1,12.9-24c0.9-1.6,1-3.1,0.8-4.7c-0.5-4.6-1.1-9.2-1.6-13.8c-0.6-5-1.3-10-1.9-15c-0.5-4.3-0.9-8.7-1.4-13
		c-0.6-5-1.3-10-1.9-15.1c-0.4-3.6-0.8-7.2-1.2-10.8c-0.1-1-0.4-2-0.4-3c0-0.3,0.5-1,0.8-1c7.1-0.1,14.1-0.1,21.2,0
		c0.3,0,0.9,0.7,1,1.1C366.4,100.5,366.5,102.2,366.6,103.9z"/>
	<path class="st1" d="M429.4,97.8c-1,2-1.9,3.9-2.9,5.7c-0.2,0.3-0.8,0.4-1.2,0.4c-5.6,0-11.1,0-16.7,0.1c-0.5,0-1.2,0.4-1.4,0.8
		c-6.7,12.7-13.3,25.5-19.9,38.2c-0.3,0.5-0.5,1-0.8,1.5c-1.4-0.8-2.8-1.6-4.3-2.4c2.2-4.2,4.3-8.4,6.5-12.6
		c5.3-10.2,10.6-20.4,15.8-30.7c0.4-0.9,0.9-1.1,1.9-1.1C414,97.8,421.6,97.8,429.4,97.8z"/>
	<path class="st1" d="M376.3,193.2c1.4,0,2.6,0,3.8,0c0.3,0,0.7,0.5,0.7,0.7c0.5,4.5,0.9,9,1.5,13.6c0.6,5.1,1.3,10.3,1.9,15.4
		c0.3,2.7,0.6,5.4,0.9,8.3c-1.4,0-2.9,0-4.3,0c-0.2,0-0.5-0.6-0.5-0.9c-0.7-6.5-1.4-13-2.1-19.6
		C377.4,204.9,376.9,199.1,376.3,193.2z"/>
	<path class="st1" d="M296.8,97.3c0,2,0,4,0,6.1c-0.6,0-1,0-1.5,0c-10.3,0-20.6,0-30.8,0c-0.9,0-1.4,0.3-1.7,1.2
		c-1.6,4.3-3.2,8.5-4.8,12.8c-1.6,4.2-3.3,8.5-4.8,12.7c-2,5.4-3.9,10.7-5.9,16.1c-4.3,11.5-8.6,23-12.9,34.5
		c-6.2,16.4-12.3,32.8-18.5,49.2c-0.3,0.8-0.7,1.1-1.5,1c-1.7-0.1-3.4,0-5.3,0c1.4-3.8,2.8-7.4,4.1-11.1c2.9-7.8,5.8-15.6,8.7-23.3
		c2.4-6.4,4.9-12.9,7.3-19.3c4-10.7,8-21.5,12-32.2c2.8-7.6,5.7-15.2,8.5-22.8c3-8,6.1-16,9.2-23.9c0.2-0.4,0.8-0.9,1.3-0.9
		c11.9,0,23.8,0,35.7,0C296.2,97.2,296.5,97.3,296.8,97.3z"/>
	<path class="st1" d="M278.1,198.7c-10.3,0-20.5,0-30.8,0c0.6-1.9,1.1-3.8,1.7-5.7c0.1-0.2,0.8-0.4,1.2-0.4c7.5,0,15,0,22.5,0
		c0.4,0,0.9,0,1.3,0c2.1-22.2,4.2-44.3,6.4-66.5c1.5,0,3.1,0,4.7,0C282.7,150.3,280.4,174.5,278.1,198.7z"/>
	<path d="M253.1,187.3c0.9-3,1.7-5.9,2.5-8.8c1.5-4.9,2.9-9.8,4.4-14.7c2.4-8,4.9-16,7.3-23.9c1-3.3,2.1-6.7,3-10
		c0.3-1.2,0.9-1.6,2.1-1.1c-0.2,1.9-0.4,3.9-0.5,5.9c-0.2,2-0.4,4-0.6,6.1c-0.2,2.1-0.4,4.2-0.6,6.4c-0.2,2-0.5,3.9-0.6,5.9
		c-0.4,4.2-0.7,8.4-1,12.6c-0.3,3.7-0.7,7.4-1.1,11.2c-0.3,3.3-0.6,6.7-1,10c0,0.2-0.4,0.5-0.7,0.5
		C262,187.3,257.7,187.3,253.1,187.3z"/>
	<path class="st1" d="M271.9,207.7c1.6,0,3.1,0,4.8,0c-0.8,7.7-1.5,15.3-2.3,23.1c-1.6,0-3.2,0-4.8,0
		C270.3,223.1,271.1,215.4,271.9,207.7z"/>
	<path class="st1" d="M206.2,401.3c2.8-7.4,5.5-14.7,8.2-21.9c4.3-11.5,8.7-23.1,13.1-34.6c5-13.3,10-26.5,15-39.8
		c4.9-13.1,9.9-26.1,14.7-39.2c0.4-1,0.9-1.3,1.9-1.3c11.9,0,23.8,0,35.7,0c0.5,0,0.9,0,1.3,0c0,2.1,0,4.2,0,6.4c-0.5,0-0.9,0-1.4,0
		c-10.6,0-21.2,0-31.8,0c-0.5,0-1.3,0.5-1.4,1c-3.6,9.5-7.2,19.1-10.8,28.7c-4.4,11.6-8.8,23.2-13.1,34.8
		c-2.4,6.5-4.9,12.9-7.3,19.4c-2,5.3-3.9,10.6-5.9,15.9c-1.9,5.1-3.9,10.2-5.8,15.3c-1.5,4-2.9,7.9-4.4,11.9c-0.3,0.9-0.6,1.8-1,2.7
		c-0.2,0.3-0.7,0.7-1,0.7C210.2,401.3,208.3,401.3,206.2,401.3z"/>
	<path class="st1" d="M277,368.3c-10.5,0-21,0-31.6,0c0.6-1.9,1.1-3.8,1.7-5.6c0.1-0.3,1-0.5,1.6-0.5c7.6,0,15.1,0,22.7,0
		c1.1,0,1.4-0.3,1.5-1.4c0.6-7.2,1.4-14.4,2-21.7c0.4-4.1,0.7-8.2,1-12.2c0.6-6.1,1.3-12.2,1.8-18.3c0.4-4.6,0.8-9.1,1.2-13.7
		c0-0.3,0.4-0.8,0.7-0.8c1.4-0.1,2.8,0,4.2,0C281.7,318.8,279.3,343.5,277,368.3z"/>
	<path d="M269.6,295.7c-0.3,2.8-0.6,5.5-0.8,8.3c-0.4,4-0.8,7.9-1.2,11.9c-0.3,2.7-0.5,5.3-0.7,8c-0.4,3.9-0.8,7.7-1.2,11.6
		c-0.3,3.2-0.5,6.4-0.7,9.6c-0.2,2.8-0.5,5.6-0.8,8.4c0,0.3-0.5,0.8-0.8,0.8c-4.3,0.1-8.5,0-13.1,0c0.3-1.2,0.6-2.4,0.9-3.5
		c1.7-5.7,3.5-11.3,5.2-17c1.9-6.1,3.7-12.1,5.6-18.2c1.9-6.2,3.7-12.4,5.5-18.7C267.8,295.7,268.3,295.3,269.6,295.7z"/>
	<path class="st1" d="M273.1,401.3c-1.6,0-3.2,0-4.9,0c0.8-7.9,1.6-15.8,2.4-23.7c1.6,0,3.1,0,4.8,0
		C274.7,385.5,273.9,393.3,273.1,401.3z"/>
	<path class="st1" d="M132.5,220.5c3.1,0.6,6,1.6,8.9,1.8c7.6,0.3,13-3.7,14.7-11.1c2-8.4,3.5-16.9,5.2-25.3c1.4-7,2.8-14,4.2-21
		c1.4-7.4,2.8-14.7,4.3-22.1c1.9-9.8,3.9-19.5,5.9-29.2c1.1-5.4,2.2-10.9,3.3-16.3c0.1-0.2,0.5-0.6,0.8-0.6c8.6,0,17.1,0,25.7,0
		c-0.4,2.1-0.8,4-1.2,6.1c-6.1,0-12.1,0-18.1,0c-2.7,0-2.8,0-3.3,2.6c-1.9,9.1-3.7,18.2-5.5,27.3c-1.8,9-3.6,17.9-5.4,26.9
		c-1.8,9-3.6,18-5.4,27.1c-2,9.8-3.9,19.5-5.9,29.3c-1.1,5.5-3.7,10-9.4,11.7c-5.5,1.6-11,1.5-15.5-2.5
		C134.3,223.9,133.4,222,132.5,220.5z"/>
	<path class="st1" d="M106,228.6c-2.5-0.6-3.7-2-3.8-4.5c-0.2-6.4,1.1-12.6,2.4-18.8c1.4-6.8,2.8-13.5,4.2-20.3
		c0.1-0.3,0.5-0.8,0.8-0.8c7.6,0,15.3,0,22.9,0c0.1,0,0.2,0.1,0.4,0.1c-0.4,1.9-0.7,3.7-1.1,5.5c-0.1,0.2-0.7,0.5-1.1,0.5
		c-5.6,0-11.1,0-16.7,0.1c-0.4,0-1.1,0.6-1.2,1c-1.8,8.3-3.6,16.6-5.2,25C106.9,220.4,106.6,224.5,106,228.6z"/>
	<path class="st1" d="M475.5,263.7c-0.4,2.1-0.9,4.1-1.3,6.2c-0.5,0-0.9,0-1.4,0c-14.9,0-29.7,0-44.6,0c-0.8,0-1.2,0.1-1.4,1
		c-1.5,7.7-3.2,15.3-4.7,23c-2,9.9-3.9,19.9-5.9,29.8c-2.8,13.9-5.5,27.7-8.3,41.6c-2.3,11.2-4.5,22.5-6.8,33.7
		c-0.2,1.1-0.5,1.6-1.8,1.5c-1.3-0.1-2.6,0-4,0c0.6-3.2,1.2-6.3,1.9-9.3c4.4-21.8,8.8-43.6,13.2-65.4c2.8-14,5.6-28.1,8.5-42.1
		c1.3-6.3,2.5-12.6,3.8-18.8c0.1-0.4,0.7-1,1.1-1c17-0.1,34.1,0,51.1,0C475,263.7,475.2,263.7,475.5,263.7z"/>
	<path class="st1" d="M462.7,328c-0.4,2-0.8,3.8-1.3,5.7c0,0.2-0.4,0.5-0.6,0.5c-6.6,0-13.2,0-19.9,0c0.4-2.1,0.8-4.2,1.2-6.2
		C449,328,455.8,328,462.7,328z"/>
	<path class="st1" d="M449.8,391.3c-0.4,2.1-0.8,4.1-1.2,6.2c-6.7,0-13.4,0-20.3,0c0.4-1.9,0.7-3.8,1.2-5.7c0-0.2,0.4-0.4,0.6-0.4
		C436.6,391.3,443.1,391.3,449.8,391.3z"/>
	<path class="st1" d="M151.2,401.3c-1.8,0-3.6,0-5.5,0c8.1-40.3,16.2-80.6,24.3-120.9c1.8,0,3.5,0,5.5,0
		C167.5,320.7,159.4,361,151.2,401.3z"/>
	<path class="st1" d="M222.5,264.5c-0.4,2.1-0.8,4-1.2,5.9c-0.1,0.3-0.8,0.5-1.2,0.5c-13.5,0-27.1,0-40.6,0c-7.5,0-15.1,0.1-22.6,0
		c-1.4,0-2,0.5-2,1.7c0,1.3-0.6,1.7-1.9,1.6c-1.2-0.1-2.5,0-3.9,0c0.6-3.1,1.2-6.1,1.9-9c0.1-0.3,0.7-0.5,1-0.6c3.6,0,7.1,0,10.7,0
		c19.4,0,38.9,0,58.3,0C221.4,264.5,221.8,264.5,222.5,264.5z"/>
	<path class="st1" d="M352.2,280.3c-8.1,40.4-16.3,80.7-24.4,121c-1.9,0-3.7,0-5.5,0c1.2-5.9,2.4-11.8,3.6-17.6
		c1.3-6.5,2.6-13.1,4-19.6c4.7-23.2,9.3-46.3,14-69.5c0.9-4.4,1.8-8.8,2.6-13.2c0.2-0.8,0.4-1.1,1.3-1
		C349.2,280.3,350.6,280.3,352.2,280.3z"/>
	<path class="st1" d="M325.7,274.1c0.6-3.1,1.2-6.1,1.8-9c0.1-0.3,0.7-0.5,1-0.5c3.7,0,7.5,0,11.2,0c19.3,0,38.5,0,57.8,0
		c0.5,0,0.9,0,1.6,0c-0.4,2-0.8,4-1.2,5.9c-0.1,0.2-0.7,0.4-1.1,0.4c-8.3,0-16.6,0-25,0c-12.7,0-25.4,0-38,0c-1.5,0-2.4,0.3-2.3,1.9
		c0,1.1-0.5,1.5-1.6,1.4C328.5,274,327.1,274.1,325.7,274.1z"/>
</g>
</svg>
