<?xml version="1.0" encoding="UTF-8" standalone="no"?>
<svg width="250px" height="250px" viewBox="0 0 250 250" version="1.1" xmlns="http://www.w3.org/2000/svg" xmlns:xlink="http://www.w3.org/1999/xlink">
    <!-- Generator: Sketch 50 (54983) - http://www.bohemiancoding.com/sketch -->
    <title>American Athletic</title>
    <desc>Created with Sketch.</desc>
    <defs></defs>
    <g id="American-Athletic" stroke="none" stroke-width="1" fill="none" fill-rule="evenodd">
        <g id="Page-1" transform="translate(9.000000, 0.000000)">
            <polygon id="Fill-1" fill="#FFFFFF" points="49.176529 0.000522836538 49.176529 59.8025661 59.2007036 59.8025661 15.7713332 190.360078 0.415930002 190.360078 0.415930002 249.822278 98.8422334 249.822278 98.8422334 190.360078 91.3764207 190.360078 93.9766372 183.223359 137.855944 183.223359 140.241656 190.360078 132.676439 190.360078 132.676439 249.822278 231.107974 249.822278 231.107974 190.360078 216.113567 190.360078 172.663269 59.786881 184.100036 59.786881 184.100036 0.000522836538"></polygon>
            <polygon id="Fill-2" fill="#ED3224" points="128.229912 104.459081 144.464261 42.2101623 109.421505 95.7433954 79.4797763 83.9429748 94.8090204 111.360523 72.0715136 136.503732 105.251741 130.025787 121.9151 155.812085 126.199964 125.613047 164.183006 123.025006"></polygon>
            <path d="M53.5932347,4.41430889 L53.5932347,55.3960998 L65.3229839,55.3960998 L18.9533285,194.779093 L4.83263576,194.779093 L4.83263576,245.394898 L94.4328522,245.394898 L94.4328522,194.779093 L85.0678874,194.779093 L90.8909075,178.79598 L141.03794,178.79598 L146.369168,194.779093 L137.082681,194.779093 L137.082681,245.394898 L226.693361,245.394898 L226.693361,194.779093 L212.9232,194.779093 L166.548313,55.3960998 L179.680191,55.3960998 L179.680191,4.41430889 L53.5932347,4.41430889 Z M62.8640267,13.673744 L170.765163,13.673744 L170.765163,46.1262079 L154.426177,46.1262079 L206.63978,203.693456 L217.767869,203.693456 L217.767869,236.156376 L146.358705,236.156376 L146.358705,203.693456 L158.841837,203.693456 L147.671892,169.886845 L83.8593361,169.886845 L72.6841602,203.693456 L85.1672921,203.693456 L85.1672921,236.156376 L14.1034277,236.156376 L14.1034277,203.693456 L25.2367491,203.693456 L77.4555836,46.1262079 L62.8640267,46.1262079 L62.8640267,13.673744 Z M155.315587,18.081256 L149.152499,41.7186959 L166.344272,41.7186959 L166.344272,18.081256 L155.315587,18.081256 Z M67.2796861,18.081256 L67.2796861,41.7186959 L83.5611221,41.7186959 L72.1034277,76.2886478 L107.700758,90.3111238 L154.98075,18.081256 L67.2796861,18.081256 Z M133.383781,102.1586 L175.54705,123.929513 L148.781039,43.1355829 L133.383781,102.1586 Z M28.4229298,208.106196 L18.5138553,208.095739 L18.5138553,231.733179 L80.7464009,231.733179 L80.7464009,208.106196 L66.568158,208.106196 L80.6626917,165.474105 L122.90967,165.474105 L103.169998,134.924766 L59.9028144,143.379032 L89.4155331,110.754032 L71.3762042,78.4897897 L28.4229298,208.106196 Z M130.061573,129.780054 L124.997168,165.474105 L150.852841,165.474105 L164.942143,208.106196 L150.774364,208.106196 L150.774364,231.733179 L213.362674,231.733179 L213.362674,208.106196 L203.443135,208.106196 L176.441692,126.616893 L130.061573,129.780054 Z" id="Fill-3" fill="#002D61"></path>
        </g>
    </g>
</svg>