<?xml version="1.0" encoding="UTF-8" standalone="no"?>
<svg width="250px" height="250px" viewBox="0 0 250 250" version="1.1" xmlns="http://www.w3.org/2000/svg" xmlns:xlink="http://www.w3.org/1999/xlink">
    <!-- Generator: Sketch 50 (54983) - http://www.bohemiancoding.com/sketch -->
    <title>ACC</title>
    <desc>Created with Sketch.</desc>
    <defs></defs>
    <g id="ACC" stroke="none" stroke-width="1" fill="none" fill-rule="evenodd">
        <g id="Asset-1" transform="translate(0.000000, 89.000000)" fill-rule="nonzero">
            <path d="M129.306569,35.4622785 L135.337591,17.1159494 C136.599916,14.3812318 139.377203,12.6657537 142.390511,12.7594937 L167.025547,12.7594937 L186.432482,0 L143.877737,0 C140.885036,0 125.775547,0.355443038 121.979927,11.9210127 L113.138686,38.6886076 C110.547445,48.7139241 117.317518,55.0207595 126.578467,55.0207595 L165.812044,55.0207595 L170.018248,42.2612658 L136.925182,42.2612658 C131.733577,42.2612658 128.038321,40.2106329 129.306569,35.4805063" id="Shape" fill="#003DA6"></path>
            <path d="M192.436131,35.4622785 L198.476277,17.1159494 C199.737296,14.3843507 202.510035,12.6694631 205.520073,12.7594937 L230.155109,12.7594937 L249.562044,0 L207.016423,0 C204.023723,0 188.914234,0.355443038 185.118613,11.9210127 L176.304745,38.6794937 C173.713504,48.7048101 180.492701,55.0116456 189.75365,55.0116456 L228.987226,55.0116456 L233.202555,42.2521519 L200.054745,42.2521519 C194.872263,42.2521519 191.167883,40.201519 192.436131,35.4713924" id="Shape" fill="#003DA6"></path>
            <path d="M92.399635,0 L21.3412409,55.0298734 L42.3266423,55.0298734 L53.959854,46.1255696 L88.9963504,37.4673418 L83.9416058,55.0116456 L100.209854,55.0116456 L115.547445,0 L92.399635,0 Z M89.9361314,34.4141772 L69.2791971,34.4141772 L95.9306569,13.8805063 L89.9361314,34.4141772 Z" id="Shape" fill="#003DA6"></path>
            <polygon id="Shape" fill="#A5A8A9" points="223.804745 71.5534177 226.870438 62.2572152 12.0072993 62.2572152 0 71.5534177"></polygon>
            <polygon id="Shape" fill="#A5A8A9" points="231.45073 67.2151899 231.45073 67.7346835 229.990876 67.7346835 229.990876 71.5534177 229.388686 71.5534177 229.388686 67.7346835 227.928832 67.7346835 227.928832 67.2151899"></polygon>
            <path d="M232.317518,67.2151899 L233.156934,67.2151899 L234.406934,70.8607595 L235.64781,67.2151899 L236.478102,67.2151899 L236.478102,71.5534177 L235.921533,71.5534177 L235.921533,68.9924051 C235.921533,68.9103797 235.921533,68.764557 235.921533,68.5549367 L235.921533,67.8987342 L234.680657,71.5443038 L234.105839,71.5443038 L232.846715,67.8987342 L232.846715,68.035443 C232.846715,68.1356962 232.846715,68.2997468 232.846715,68.518481 L232.846715,71.5534177 L232.290146,71.5534177 L232.317518,67.2151899 Z" id="Shape" fill="#A5A8A9"></path>
        </g>
    </g>
</svg>