<svg width="500" height="500" viewBox="0 0 500 500" fill="none" xmlns="http://www.w3.org/2000/svg">
<path d="M500 223.837V176.635C499.987 164.007 494.966 151.899 486.037 142.969C477.109 134.039 465.003 129.015 452.375 129H382.183C369.728 129.022 357.777 133.919 348.887 142.642C339.997 151.365 334.874 163.221 334.615 175.673C334.379 163.227 329.274 151.37 320.396 142.644C311.517 133.919 299.573 129.02 287.125 129H165.385V173.231C164.511 161.223 159.128 149.99 150.316 141.786C141.504 133.582 129.915 129.014 117.875 129H47.6827C35.0448 129 22.9238 134.017 13.9829 142.949C5.04206 151.881 0.0127424 163.997 0 176.635V261.202L56.8654 277.01H0V324.212C0.0127231 336.839 5.03412 348.947 13.9625 357.877C22.8909 366.807 34.9971 371.831 47.625 371.846H117.904C129.778 371.833 141.219 367.391 149.991 359.388C158.764 351.386 164.235 340.4 165.337 328.577V371.846H287.096C299.193 371.828 310.832 367.214 319.654 358.937C328.477 350.661 333.825 339.341 334.615 327.269C335.408 339.343 340.759 350.665 349.586 358.941C358.412 367.218 370.054 371.831 382.154 371.846H452.346C464.979 371.839 477.093 366.818 486.027 357.887C494.962 348.956 499.987 336.844 500 324.212V277.01H426.75V223.837H500Z" fill="white"/>
<path d="M440.712 292.192H485.817V325.212C485.815 334.083 482.29 342.59 476.017 348.863C469.744 355.136 461.237 358.661 452.365 358.663H382.173C373.302 358.661 364.795 355.136 358.522 348.863C352.249 342.59 348.724 334.083 348.721 325.212V259.981C363.76 260.301 378.795 260.699 393.827 261.173V320.029C393.827 322.143 394.667 324.17 396.162 325.665C397.656 327.16 399.684 328 401.798 328H432.74C434.854 328 436.882 327.16 438.377 325.665C439.872 324.17 440.712 322.143 440.712 320.029V292.192ZM307.885 259.298L320.548 270.385V325.192C320.548 329.585 319.683 333.935 318.002 337.994C316.321 342.052 313.857 345.74 310.75 348.846C307.644 351.953 303.956 354.417 299.898 356.098C295.839 357.779 291.489 358.644 287.096 358.644H179.529V259.394C191.253 259.247 202.981 259.144 214.712 259.087C226.442 259.029 238.212 258.99 250.019 258.971C258.519 258.971 267.022 258.997 275.529 259.048C286.317 259.115 297.115 259.163 307.885 259.298ZM275.452 283.231C275.452 282.184 275.246 281.147 274.845 280.18C274.445 279.213 273.857 278.334 273.117 277.594C272.377 276.854 271.498 276.267 270.531 275.866C269.564 275.466 268.528 275.26 267.481 275.26H224.625V328H267.481C269.595 328 271.622 327.16 273.117 325.665C274.612 324.17 275.452 322.143 275.452 320.029V283.231ZM53.5769 262.385L106.25 277.029V320.029C106.25 321.076 106.044 322.112 105.643 323.079C105.243 324.046 104.655 324.925 103.915 325.665C103.175 326.405 102.296 326.993 101.329 327.393C100.362 327.794 99.3256 328 98.2788 328H67.25C66.2032 328 65.1667 327.794 64.1996 327.393C63.2324 326.993 62.3537 326.405 61.6135 325.665C60.8733 324.925 60.2862 324.046 59.8856 323.079C59.485 322.112 59.2788 321.076 59.2788 320.029V292.202H14.1827V325.212C14.1827 334.082 17.7057 342.589 23.9771 348.862C30.2485 355.135 38.7546 358.661 47.625 358.663H117.904C126.775 358.661 135.282 355.136 141.555 348.863C147.828 342.59 151.353 334.083 151.356 325.212V259.827C118.753 260.385 86.1602 261.237 53.5769 262.385Z" fill="#0A2240"/>
<path d="M278.683 224.942L318.298 171.769C318.649 173.705 318.829 175.668 318.837 177.635V216.702L281.096 229.356C280.389 227.833 279.583 226.359 278.683 224.942V224.942ZM179.529 218.615L211.538 229.356C212.242 227.831 213.048 226.357 213.952 224.942L179.51 178.712L179.529 218.615ZM217.99 144.183L243.221 207.308C244.26 207.221 245.308 207.144 246.375 207.144C247.442 207.144 248.481 207.221 249.519 207.308L274.75 144.183H217.99ZM393.875 247.067V182.837C393.875 180.722 394.715 178.695 396.21 177.2C397.705 175.705 399.732 174.865 401.846 174.865H432.875C434.989 174.865 437.017 175.705 438.511 177.2C440.006 178.695 440.846 180.722 440.846 182.837V210.721H485.865V177.635C485.863 168.763 482.338 160.256 476.065 153.983C469.792 147.71 461.285 144.185 452.413 144.183H382.221C373.35 144.185 364.843 147.71 358.57 153.983C352.297 160.256 348.772 168.763 348.769 177.635V244.135C363.776 245.032 378.795 246.003 393.827 247.048L393.875 247.067ZM264.721 211.846C266.303 212.723 267.82 213.712 269.26 214.808L317.769 169.356C315.933 162.16 311.753 155.779 305.889 151.221C300.026 146.663 292.811 144.187 285.385 144.183H277.452L264.721 211.846ZM318.837 221.308L285.183 240.856C292.753 241.196 300.324 241.545 307.894 241.904L318.817 232.462L318.837 221.308ZM207.606 240.952L179.529 224.606V242.202C188.885 241.808 198.25 241.337 207.606 240.952ZM223.385 214.808C224.824 213.712 226.341 212.723 227.923 211.846L215.192 144.183H179.529V173.712L223.385 214.808ZM127.788 244.865L59.2788 225.817V182.817C59.2788 180.703 60.1186 178.676 61.6135 177.181C63.1084 175.686 65.1359 174.846 67.25 174.846H98.2788C100.393 174.846 102.42 175.686 103.915 177.181C105.41 178.676 106.25 180.703 106.25 182.817V210.702H151.269V177.635C151.269 168.764 147.746 160.257 141.475 153.984C135.203 147.711 126.697 144.185 117.827 144.183H47.6346C38.7642 144.185 30.2581 147.711 23.9867 153.984C17.7153 160.257 14.1923 168.764 14.1923 177.635V252.385C52.032 249.5 89.8974 246.994 127.788 244.865Z" fill="#F5A800"/>
</svg>
