<?xml version="1.0" encoding="UTF-8" standalone="no"?>
<svg width="250px" height="250px" viewBox="0 0 250 250" version="1.1" xmlns="http://www.w3.org/2000/svg" xmlns:xlink="http://www.w3.org/1999/xlink">
    <!-- Generator: Sketch 50 (54983) - http://www.bohemiancoding.com/sketch -->
    <title>Big Ten</title>
    <desc>Created with Sketch.</desc>
    <defs>
        <polygon id="path-1" points="0 0.354745833 94.3292453 0.354745833 94.3292453 94.2060375 0 94.2060375"></polygon>
        <polygon id="path-3" points="0.172562893 0.2747875 5.38168239 0.2747875 5.38168239 5.54166667 0.172562893 5.54166667"></polygon>
    </defs>
    <g id="Big-Ten" stroke="none" stroke-width="1" fill="none" fill-rule="evenodd">
        <g id="Page-1" transform="translate(0.000000, 78.000000)">
            <polygon id="Fill-1" fill="#0097D5" points="97.0825472 0.792695833 97.0825472 24.6163208 108.024371 24.6163208 108.024371 70.8140292 97.0825472 70.8140292 97.0825472 94.6392375 149.27044 94.6392375 149.27044 70.8140292 138.329403 70.8140292 138.329403 0.792695833"></polygon>
            <g id="Group-10" transform="translate(0.000000, 0.437000)">
                <path d="M244.670519,32.3419583 L244.670519,24.1125833 C244.670519,10.99625 234.095047,0.363375 221.078538,0.363375 L175.612343,0.363375 C162.595047,0.363375 152.027437,10.99625 152.027437,24.1125833 L152.027437,70.4607083 C152.027437,83.5770417 162.595047,94.202 175.612343,94.202 L221.078538,94.202 C234.095047,94.202 244.670519,83.5770417 244.670519,70.4607083 L244.670519,38.7948333 L206.304953,38.7948333 L206.304953,55.7705417 L214.268789,55.7705417 L214.268789,67.23625 C214.268789,68.9612917 212.881997,70.357 211.165016,70.357 L185.525865,70.357 C183.810456,70.357 182.425236,68.9612917 182.425236,67.23625 L182.425236,27.2855833 C182.425236,25.5645 183.810456,24.1640417 185.525865,24.1640417 L211.165016,24.1640417 C212.881997,24.1640417 214.268789,25.5645 214.268789,27.2855833 L214.268789,32.3419583 L244.670519,32.3419583" id="Fill-2" fill="#0097D5"></path>
                <g id="Group-6">
                    <mask id="mask-2" fill="white">
                        <use xlink:href="#path-1"></use>
                    </mask>
                    <g id="Clip-5"></g>
                    <path d="M60.6468553,68.8022458 C60.6468553,69.6746625 59.9542453,70.3808292 59.0863208,70.3808292 L41.2569182,70.3808292 L41.2569182,54.7264125 L59.0863208,54.7264125 C59.9542453,54.7264125 60.6468553,55.4278292 60.6468553,56.3049958 L60.6468553,68.8022458 Z M41.2569182,24.1791625 L58.2396226,24.1791625 C59.0949686,24.1791625 59.8040881,24.8892875 59.8040881,25.7617042 L59.8040881,36.1729125 C59.8040881,37.0453292 59.0949686,37.7514958 58.2396226,37.7514958 L41.2569182,37.7514958 L41.2569182,24.1791625 Z M76.6248428,46.2349958 L76.6248428,46.0964542 C85.1130503,42.4912042 91.0761006,34.0235375 91.0761006,24.1633292 C91.0761006,11.0707458 80.5643082,0.4339125 67.5713836,0.3745375 L67.5713836,0.354745833 L-0.000157232704,0.354745833 L-0.000157232704,24.1791625 L10.9455975,24.1791625 L10.9455975,70.3808292 L-0.000157232704,70.3808292 L-0.000157232704,94.2060375 L70.0525157,94.2060375 C83.4550314,94.2060375 94.3292453,83.2549125 94.3292453,69.7657042 C94.3292453,58.5533292 86.8339623,49.1261625 76.6248428,46.2349958 Z" id="Fill-4" fill="#090204" mask="url(#mask-2)"></path>
                </g>
                <g id="Group-9" transform="translate(244.496855, 88.666667)">
                    <mask id="mask-4" fill="white">
                        <use xlink:href="#path-3"></use>
                    </mask>
                    <g id="Clip-8"></g>
                    <path d="M2.80778302,2.76457917 C3.16863208,2.76457917 3.37382075,2.64187083 3.37382075,2.3267875 C3.37382075,2.0227875 3.16863208,1.90007917 2.79992138,1.90007917 L2.31800314,1.90007917 L2.31800314,2.76457917 L2.80778302,2.76457917 Z M1.77869497,1.4195375 L2.83529874,1.4195375 C3.50746855,1.4195375 3.9052673,1.71482917 3.9052673,2.29749583 C3.9052673,2.74874583 3.67334906,2.99020417 3.32350629,3.10657917 L3.94457547,4.2932875 L3.36674528,4.2932875 L2.79363208,3.17545417 L2.31800314,3.17545417 L2.31800314,4.2932875 L1.77869497,4.2932875 L1.77869497,1.4195375 Z M4.95243711,2.91420417 C4.95243711,1.6594125 4.00668239,0.6714125 2.77240566,0.6714125 C1.53577044,0.6714125 0.601808176,1.64832917 0.601808176,2.90232917 C0.601808176,4.15632917 1.54834906,5.14432917 2.78812893,5.14432917 C4.0216195,5.14432917 4.95243711,4.17057917 4.95243711,2.91420417 Z M0.172562893,2.91420417 C0.172562893,1.4409125 1.31721698,0.2747875 2.78812893,0.2747875 C4.25275157,0.2747875 5.38168239,1.42587083 5.38168239,2.90232917 C5.38168239,4.37720417 4.23860063,5.54174583 2.77240566,5.54174583 C1.30227987,5.54174583 0.172562893,4.3882875 0.172562893,2.91420417 Z" id="Fill-7" fill="#0097D5" mask="url(#mask-4)"></path>
                </g>
            </g>
        </g>
    </g>
</svg>