<?xml version="1.0" encoding="UTF-8" standalone="no"?>
<svg width="250px" height="250px" viewBox="0 0 250 250" version="1.1" xmlns="http://www.w3.org/2000/svg" xmlns:xlink="http://www.w3.org/1999/xlink">
    <!-- Generator: Sketch 50 (54983) - http://www.bohemiancoding.com/sketch -->
    <title>Big 12</title>
    <desc>Created with Sketch.</desc>
    <defs></defs>
    <g id="Big-12" stroke="none" stroke-width="1" fill="none" fill-rule="evenodd">
        <g id="Big_12_Conference_(cropped)_logo" transform="translate(0.000000, 49.000000)" fill-rule="nonzero">
            <path d="M2.36328035,2.10572868 L3.78967581,6.55227558 C6.04203332,13.5827473 8.30306051,20.7394586 10.5117182,27.8170942 C13.1154318,36.1559535 14.4922695,40.4030511 17.201425,48.4659664 C17.9453767,50.6775075 18.6863994,52.8979652 19.430351,55.1240544 L19.8931241,56.4996682 L21.3195195,56.7431137 C22.2538525,56.9073661 23.2291907,57.0686854 24.2133157,57.2329378 C25.595777,57.4617179 26.9927658,57.6934311 28.3079786,57.9280774 C31.6645478,58.5293585 34.2830232,58.9898518 37.1913469,59.4679436 C41.2332889,65.615676 44.337969,70.3114172 48.072489,75.3211152 C43.9044853,81.0640827 40.5889213,86.2293512 36.005242,93.5033857 C33.5390716,93.9110836 31.1694392,94.3275807 27.7221899,94.9435272 C26.5183942,95.160575 25.1536237,95.3776228 23.832553,95.5888044 C22.6726914,95.7735884 21.5216166,95.9583723 20.4759838,96.1431563 L19.0466594,96.3924679 L18.5926732,97.7710148 C17.8516505,100.003087 17.1164857,102.226478 16.3783919,104.437785 C13.6631442,112.603475 12.2895869,116.897502 9.69454297,125.312387 C7.61499312,132.046735 5.45062106,138.974666 3.07794255,146.492029 L1.86535996,150.334361 L5.82529151,149.609891 C10.6404745,148.732901 16.4104931,147.418881 23.0884842,145.90248 C46.5294045,140.587742 81.950875,132.539375 124.4393,132.54219 L124.79956,132.54219 C167.299701,132.58912 222.131866,144.456355 243.735753,149.554045 L247.897664,150.53956 L246.606,146.45953 C244.497161,139.798392 242.271164,132.679928 239.986588,125.300302 C237.391544,116.885418 236.020799,112.594207 233.308597,104.437433 C232.576361,102.217092 231.838267,99.9937016 231.100174,97.7617463 L230.646187,96.3831994 L229.216863,96.1338877 C228.181189,95.962596 227.122083,95.7842648 226.051261,95.6012407 C224.743781,95.3806732 223.424584,95.1647986 222.182712,94.9418847 C220.718241,94.6779076 219.476369,94.4403283 218.322365,94.2262135 C217.367529,94.0414296 216.485917,93.871311 215.604305,93.7158579 L215.604305,59.0632961 C216.468344,58.9078429 217.329453,58.7406574 218.263786,58.5646727 C219.435363,58.3446918 220.700667,58.0983133 222.18857,57.8314031 C223.471448,57.602623 224.830477,57.376776 226.180837,57.1509289 C227.197181,56.9808104 228.207666,56.8136249 229.174218,56.6435064 L230.603542,56.3971278 L231.063386,55.021514 L231.482225,53.7573572 C232.085587,51.956447 232.683092,50.161403 233.286454,48.3694094 C235.966555,40.350373 237.340112,36.0945935 239.964445,27.6618757 C240.963215,24.444406 241.929766,21.2091032 242.861053,18.0765754 C244.003341,14.2518411 245.177847,10.2952356 246.405075,6.45266824 L247.646947,2.56035584 L243.640152,3.32882239 C242.638454,3.52240556 240.784315,3.96236733 237.969718,4.63110921 C221.438761,8.56143431 171.133571,20.516662 124.968736,20.516662 C63.179745,20.516662 7.35173968,3.66905949 6.80344146,3.49589054 L2.36574066,2.11030428 L2.36328035,2.10572868 Z" id="Shape" fill="#CFD4D8"></path>
            <path d="M237.67202,126.026181 C235.082834,117.640392 233.7149,113.358098 231.014649,105.213056 C230.273626,102.992716 229.535532,100.766509 228.800367,98.5345538 C226.539223,98.1385882 224.037905,97.7396895 221.773715,97.3378578 C218.203216,96.6955136 215.91864,96.2086226 213.197768,95.7627947 L213.197768,57.0226947 C215.933402,56.5739337 218.217977,56.0841096 221.782619,55.4446985 C224.037905,55.0457999 226.527507,54.6469012 228.779748,54.2568018 C229.52077,52.0276622 230.261793,49.8102549 231.005745,47.6017641 C233.717946,39.4740865 235.088692,35.2269889 237.663116,26.9470258 C239.8979,19.7874987 241.886652,12.7068127 244.112649,5.72045454 C237.159338,7.05500523 178.766749,22.9552234 124.986661,22.9552234 C64.7886723,22.9552234 9.39649368,6.84957241 6.09733178,5.82017921 C8.34090246,12.8271863 10.5872849,19.9224203 12.8249977,27.0997806 C15.4258995,35.4269075 16.7994568,39.6650886 19.500177,47.7045392 C20.2441287,49.9131473 20.9880803,52.136538 21.7320319,54.3595768 C23.9873184,54.7496763 26.4769203,55.1427088 28.7352529,55.5474736 C32.7682909,56.2660778 35.4835386,56.7412365 38.6292239,57.2486591 C43.3975438,64.499229 46.7189657,69.5617224 51.0948072,75.3075057 C46.2590044,81.8600029 42.6653079,87.4856473 37.472174,95.7306481 C34.5549464,96.2058068 31.9540446,96.6633671 28.1464181,97.3409082 C25.8882027,97.7515392 23.1496406,98.1475047 20.8915423,98.5405373 C20.1534486,100.775543 19.4182838,102.998816 18.6772611,105.216224 C16.0119225,113.23526 14.6381309,117.517555 12.0109858,126.038265 C9.8025624,133.18606 7.59413904,140.248913 5.39157356,147.23269 C27.2824969,143.231971 69.9361146,130.062448 124.801083,130.12416 C171.479069,130.174023 232.497163,144.414119 244.29026,147.200543 C242.081837,140.225683 239.879272,133.16588 237.670848,126.026533" id="Shape" fill="#C41230"></path>
            <path d="M90.8382267,118.048207 C102.495422,117.118421 113.86558,116.71659 125.057659,116.804582 C159.316925,117.074425 191.91958,121.952252 226.052315,130.472727 C223.43384,121.846661 222.124719,117.68169 219.473908,109.61854 C212.090159,108.392513 208.343923,107.823496 200.787249,106.817333 L200.787249,45.9125456 C208.343923,44.9035666 212.090159,44.3433486 219.473908,43.1143888 C222.124485,35.1157666 223.43384,30.9859921 226.052315,22.4214031 C180.691182,33.7754671 138.029364,38.6882561 90.6203133,34.9604307 L90.6203133,50.0392696 C95.8396905,50.3237782 96.7448512,50.4499006 101.987426,50.6112199 C96.366666,57.2254291 93.5637843,60.560222 87.9753602,67.4968351 C82.8731407,60.3312072 80.3160559,56.6385788 75.2520298,48.8513729 C79.7888461,49.3235985 80.3572954,49.5582448 84.9234011,49.9219465 L84.9234011,34.784446 C63.5449257,31.8103045 41.5961264,27.8447825 24.7043237,23.3013267 C27.3286571,31.8396353 28.418224,35.2185416 31.0659889,43.196515 C36.8594391,44.1556316 39.7825246,44.6102588 45.6814167,45.4344538 C54.0553832,58.492519 58.2964934,64.2910977 66.8401042,75.1430186 C57.8864413,86.8929308 53.4431169,93.1784006 44.6621444,107.449118 C38.942035,108.249848 36.1096295,108.698609 30.4888699,109.631328 C27.841105,117.691428 26.7808275,121.615887 24.1651638,130.239137 C44.7994533,125.185326 63.0521603,121.744942 84.4779674,118.785583 L84.4779674,103.005621 C79.0329444,103.378122 78.0197642,103.630367 72.6244161,104.146589 C78.5202621,95.6317447 81.4815411,91.6458084 87.4242502,83.9463602 C93.4344422,91.4374426 96.445396,95.0010155 102.484877,102.116898 C97.1335806,102.32808 96.1700753,102.495266 90.8365865,102.850168 L90.8365865,118.04938 L90.8382267,118.048207 Z M163.66582,49.6840152 C167.080968,49.4435027 169.4506,49.3056481 172.856844,49.0123402 L172.856844,103.741237 C169.450366,103.442063 167.745955,103.310075 164.327761,103.060763 L163.66582,103.060763 L163.66582,49.6834286 L163.66582,49.6840152 Z M130.367248,51.0707747 C132.546381,51.04731 133.635948,51.0297116 135.812271,50.9945146 L135.812271,101.760236 C134.303865,101.733838 133.548197,101.727972 132.039791,101.707441 C122.526583,90.7288108 117.761075,85.5344462 108.256771,74.5729455 C117.093276,65.0991022 121.52793,60.5704291 130.367248,51.0707747 Z" id="Shape" fill="#FFFFFF"></path>
        </g>
    </g>
</svg>