<?xml version="1.0" encoding="UTF-8" standalone="no"?>
<svg width="250px" height="250px" viewBox="0 0 250 250" version="1.1" xmlns="http://www.w3.org/2000/svg" xmlns:xlink="http://www.w3.org/1999/xlink">
    <!-- Generator: Sketch 50 (54983) - http://www.bohemiancoding.com/sketch -->
    <title>FBS Independents</title>
    <desc>Created with Sketch.</desc>
    <defs>
        <polygon id="path-1" points="1.39848211e-05 0.0664527956 249.784601 0.0664527956 249.784601 232.571036 1.39848211e-05 232.571036"></polygon>
    </defs>
    <g id="FBS-Independents" stroke="none" stroke-width="1" fill="none" fill-rule="evenodd">
        <g id="Group" transform="translate(0.000000, 8.500000)">
            <path d="M112.606095,105.699588 C112.606095,105.699588 111.460357,143.308203 112.033226,143.308203 C112.606095,143.308203 137.912924,143.308203 137.912924,143.308203 L135.864574,89.3439505 L130.029331,91.1966086 L112.606095,105.699588" id="Fill-1" fill="#005785"></path>
            <path d="M134.827223,105.835014 C134.827223,105.835014 135.753437,142.964482 135.290559,142.964482 C134.827223,142.964482 114.36549,142.964482 114.36549,142.964482 L116.02154,89.6876719 L120.739688,91.5167278 L134.827223,105.835014" id="Fill-2" fill="#005785"></path>
            <path d="M7.72777269,67.70967 L15.2855179,79.3127864 C15.8703025,80.2103575 15.872594,81.368011 15.2921632,82.2681027 L7.70187901,94.0320807 L24.1035747,94.0320807 L24.1035747,77.5148946 C24.1035747,76.5380385 24.6207608,75.6842346 25.3948213,75.2055454 L34.700275,67.70967 L7.72777269,67.70967" id="Fill-3" fill="#005785"></path>
            <path d="M164.93286,65.2509166 C162.332035,69.4511916 156.931943,69.917736 153.731897,69.917736 C146.331577,69.917736 140.664528,67.1173236 140.664528,59.1840055 L140.664528,52.3166819 L149.331118,52.3166819 L149.331118,57.784143 C149.331118,60.5171861 149.331118,63.2506874 153.53231,63.2506874 C157.79835,63.2506874 157.79835,60.4507333 157.79835,56.2502291 C157.79835,52.9172777 157.131989,51.5169569 154.865032,49.9835014 L146.598763,44.4500458 C142.198442,41.4498167 140.997938,38.1830889 140.997938,33.3829056 C140.997938,29.715857 141.331118,26.1824015 144.398029,23.6489459 C146.131531,22.1821723 149.331118,20.8487626 153.864803,20.8487626 C158.931943,20.8487626 165.865032,22.9156737 165.865032,30.9823556 L165.865032,35.6496334 L157.265353,35.6496334 L157.265353,32.2490834 C157.265353,29.9825848 157.265353,27.4489001 153.465628,27.4489001 C151.131989,27.4489001 149.465399,28.3159945 149.465399,32.1157195 C149.465399,36.0492667 150.331347,36.9159028 152.197984,38.1830889 L160.732126,43.9830431 C162.398717,45.1833181 164.199129,46.8499083 165.198671,48.5831806 C166.466086,50.7170027 166.466086,52.1835472 166.466086,55.9835014 C166.466086,60.1840055 166.466086,62.7839138 164.93286,65.2509166 Z M135.197296,58.8503666 C135.197296,61.3838222 135.197296,65.3175985 131.997709,67.4511916 C130.196838,68.6512374 127.796975,68.917736 124.396884,68.917736 L109.52956,68.917736 L109.52956,21.8489918 L124.130385,21.8489918 C127.464024,21.8489918 129.463795,22.0488084 131.329973,23.2488543 C134.330889,25.1821723 134.730522,28.2488543 134.730522,31.4493584 L134.730522,35.6496334 C134.730522,41.7829973 132.530706,42.9163611 129.197296,43.5834097 C134.798121,44.6496334 135.197296,47.1166361 135.197296,52.1835472 L135.197296,58.8503666 Z M106.12901,29.1157195 L91.8615949,29.1157195 L91.8615949,40.916132 L105.328598,40.916132 L105.328598,47.9165903 L91.8615949,47.9165903 L91.8615949,68.917736 L83.1278643,68.917736 L83.1278643,21.8489918 L106.12901,21.8489918 L106.12901,29.1157195 Z M173.506187,16.5902841 C157.749083,11.6553621 141.37901,9.15490376 124.797204,9.15490376 C108.215857,9.15490376 91.8453254,11.6553621 76.0873052,16.5902841 L76.0873052,74.7985793 L173.506187,74.7985793 L173.506187,16.5902841 Z" id="Fill-4" fill="#005785"></path>
            <path d="M100.70967,91.0818057 L100.70967,89.1668194 C100.70967,87.8703025 100.70967,87.4789184 99.394363,87.4789184 L97.9193401,87.4789184 L97.9193401,92.5302475 L99.3677819,92.5302475 C100.506874,92.5302475 100.70967,92.4230064 100.70967,91.0818057" id="Fill-5" fill="#005785"></path>
            <path d="M71.7165445,98.5027498 L71.7165445,89.1402383 C71.7165445,87.6510082 71.3453254,87.4523373 69.8691567,87.4523373 L68.7399175,87.4523373 L68.7399175,100.296975 C70.1237397,100.296975 70.3941338,100.294684 70.6530706,100.247479 C71.6372594,100.100825 71.7165445,99.3705316 71.7165445,98.5027498" id="Fill-6" fill="#005785"></path>
            <path d="M145.423236,98.5027498 L145.423236,89.1402383 C145.423236,87.6510082 145.051787,87.4523373 143.575848,87.4523373 L142.446609,87.4523373 L142.446609,100.296975 C143.830431,100.296975 144.100596,100.294684 144.359533,100.247479 C145.343492,100.100825 145.423236,99.3705316 145.423236,98.5027498" id="Fill-7" fill="#005785"></path>
            <path d="M121.930339,47.2502291 L118.196379,47.2502291 L118.196379,62.1173236 L121.796975,62.1173236 C125.397113,62.1173236 126.730064,61.7172319 126.730064,57.3838222 L126.730064,51.8503666 C126.730064,47.9832722 125.596471,47.2502291 121.930339,47.2502291" id="Fill-8" fill="#005785"></path>
            <path d="M126.130385,36.1159487 C126.130385,31.715857 126.130385,31.3159945 125.797434,30.5160403 C125.263749,28.9823556 123.863199,28.582264 121.663153,28.582264 L118.196379,28.582264 L118.196379,40.4498167 C122.063245,40.4498167 123.063474,40.4498167 123.796746,40.3162236 C125.530247,39.9163611 126.130385,38.5164986 126.130385,36.1159487" id="Fill-9" fill="#005785"></path>
            <path d="M40.1168653,103.491063 L44.0025206,103.491063 L44.0025206,84.2580202 L40.1168653,84.2580202 L40.1168653,103.491063 Z M48.8677819,84.2580202 L53.7151696,84.2580202 L56.6349679,96.1679652 L56.3361595,84.2580202 L59.9617324,84.2580202 L59.9617324,103.491063 L55.1927131,103.491063 L52.2967461,91.3318057 L52.5724106,103.491063 L48.8677819,103.491063 L48.8677819,84.2580202 Z M64.8274519,84.2580202 L70.6404675,84.2580202 C71.7852887,84.2580202 73.20967,84.2580202 74.4202566,85.4970211 C75.5109991,86.6170944 75.602429,88.0554537 75.602429,89.4328598 L75.602429,98.2103575 C75.602429,100.765124 75.2170027,103.491063 70.6138863,103.491063 L64.8274519,103.491063 L64.8274519,84.2580202 Z M80.2284601,84.231439 L89.7793309,84.231439 L89.7793309,87.5586618 L84.1406966,87.5586618 L84.1406966,91.5197067 L89.4335472,91.5197067 L89.4335472,94.8201192 L84.1406966,94.8201192 L84.1406966,100.137489 L90.0187901,100.137489 L90.0187901,103.491063 L80.2284601,103.491063 L80.2284601,84.231439 Z M93.9802933,84.231439 L101.176214,84.231439 C104.568744,84.231439 104.568744,86.9291934 104.568744,88.7144821 L104.568744,91.1617782 C104.568744,94.2972044 104.195005,95.6714024 100.617782,95.6714024 L97.9193401,95.6714024 L97.9193401,103.491063 L93.9802933,103.491063 L93.9802933,84.231439 Z M108.822411,84.231439 L118.37374,84.231439 L118.37374,87.5586618 L112.734876,87.5586618 L112.734876,91.5197067 L118.027727,91.5197067 L118.027727,94.8201192 L112.734876,94.8201192 L112.734876,100.137489 L118.61297,100.137489 L118.61297,103.491063 L108.822411,103.491063 L108.822411,84.231439 Z M122.574473,84.2580202 L127.421402,84.2580202 L130.342117,96.1681943 L130.04308,84.2580202 L133.668194,84.2580202 L133.668194,103.491063 L128.899404,103.491063 L126.003208,91.3318057 L126.279102,103.491063 L122.574473,103.491063 L122.574473,84.2580202 Z M138.534372,84.2580202 L144.347159,84.2580202 C145.491751,84.2580202 146.91659,84.2580202 148.126719,85.4970211 C149.21769,86.6168653 149.308891,88.0552246 149.308891,89.4328598 L149.308891,98.2103575 C149.308891,100.765124 148.923465,103.491063 144.320577,103.491063 L138.534372,103.491063 L138.534372,84.2580202 Z M153.935151,84.231439 L163.486022,84.231439 L163.486022,87.5586618 L157.847388,87.5586618 L157.847388,91.5197067 L163.140009,91.5197067 L163.140009,94.8201192 L157.847388,94.8201192 L157.847388,100.137489 L163.725481,100.137489 L163.725481,103.491063 L153.935151,103.491063 L153.935151,84.231439 Z M167.686755,84.2580202 L172.534143,84.2580202 L175.453712,96.167736 L175.155133,84.2580202 L178.780247,84.2580202 L178.780247,103.491063 L174.011916,103.491063 L171.115261,91.3313474 L171.391155,103.491063 L167.686755,103.491063 L167.686755,84.2580202 Z M182.370073,84.2580202 L193.224106,84.2580202 L193.224106,87.4257562 L189.766499,87.4257562 L189.766499,103.491063 L185.82791,103.491063 L185.82791,87.4257562 L182.370073,87.4257562 L182.370073,84.2580202 Z M196.520852,96.4136114 L200.43286,96.4136114 L200.43286,98.8221815 C200.43286,100.033456 200.502979,100.775894 201.881531,100.775894 C203.300183,100.775894 203.356783,100.035518 203.356783,98.2103575 C203.356783,96.9637947 203.126489,96.4667736 202.286205,95.8982585 L198.988772,93.6913382 C197.050642,92.3693859 196.653758,90.8948213 196.653758,89.0870761 C196.653758,87.6347388 196.764895,86.1251146 198.092805,85.0284143 C198.970669,84.2859762 200.400779,83.8593034 202.014436,83.8593034 C204.438818,83.8593034 207.02956,84.9809808 207.02956,88.1294684 L207.02956,90.2186068 L203.143905,90.2186068 L203.143905,88.6349679 C203.143905,87.7291476 203.143905,86.9470669 201.855179,86.9470669 C201.010082,86.9470669 200.486251,87.22044 200.486251,88.5815765 C200.486251,90.0785976 200.790101,90.3476169 201.477314,90.8141613 L204.881989,93.1283226 C205.698671,93.7163153 206.371448,94.4110907 206.733272,95.0378093 C207.269019,95.9401925 207.269019,96.5733272 207.269019,98.1038038 C207.269019,99.7768103 207.269019,100.881989 206.622823,101.920944 C205.814161,103.227314 204.245417,103.890009 201.961045,103.890009 C198.401925,103.890009 196.520852,102.33066 196.520852,99.3806141 L196.520852,96.4136114 Z M29.5364345,106.553621 L220.086618,106.553621 L220.086618,80.231439 L29.5364345,80.231439 L29.5364345,106.553621 Z" id="Fill-10" fill="#005785"></path>
            <path d="M128.121907,117.724565 C131.28483,117.906966 133.984418,118.283914 135.926902,118.623969 C136.613657,118.257791 137.396196,118.048579 138.227314,118.048579 C140.933776,118.048579 143.135885,120.250229 143.135885,122.956691 C143.135885,125.663611 140.933776,127.866178 138.227314,127.866178 C136.687443,127.866178 135.312557,127.151925 134.411778,126.038726 C132.824244,125.769936 130.657883,125.474335 128.121907,125.311182 L128.121907,138.289413 C131.288268,138.471586 133.987168,138.848304 135.928048,139.18813 C136.614803,138.82264 137.396884,138.613657 138.227314,138.613657 C140.933776,138.613657 143.135885,140.815536 143.135885,143.521769 C143.135885,146.228689 140.933776,148.431256 138.227314,148.431256 C136.689047,148.431256 135.315307,147.718607 134.414528,146.607699 C132.823098,146.33868 130.652841,146.042163 128.121907,145.878093 L128.121907,158.85495 C131.287809,159.036893 133.986709,159.413841 135.927819,159.753666 C136.614345,159.387718 137.396654,159.178735 138.227314,159.178735 C140.933776,159.178735 143.135885,161.380843 143.135885,164.087305 C143.135885,166.794225 140.933776,168.996334 138.227314,168.996334 C136.687443,168.996334 135.312786,168.28231 134.412007,167.169569 C132.824473,166.900779 130.658112,166.60495 128.121907,166.442026 L128.121907,170.407195 C128.121907,172.244042 126.633364,173.733043 124.796517,173.733043 C122.959899,173.733043 121.470898,172.244042 121.470898,170.407195 L121.470898,166.390467 C119.305683,166.5 117.219982,166.73648 115.232126,167.101971 C114.332951,168.25275 112.936297,168.996334 111.366178,168.996334 C108.659716,168.996334 106.457837,166.794225 106.457837,164.087305 C106.457837,161.380843 108.659716,159.178735 111.366178,159.178735 C112.16659,159.178735 112.920257,159.375344 113.588451,159.716315 C116.107699,159.236709 118.742896,158.933318 121.470898,158.809349 L121.470898,145.82516 C119.305683,145.934693 117.220211,146.171173 115.232126,146.536664 C114.332951,147.687443 112.936297,148.431256 111.366178,148.431256 C108.659716,148.431256 106.457837,146.228689 106.457837,143.521769 C106.457837,140.815536 108.659716,138.613657 111.366178,138.613657 C112.166361,138.613657 112.919798,138.810037 113.587993,139.150779 C116.10747,138.671173 118.742667,138.368011 121.470898,138.244042 L121.470898,125.259853 C119.305683,125.369386 117.220211,125.605866 115.232356,125.971357 C114.333181,127.122365 112.936526,127.866178 111.366178,127.866178 C108.659716,127.866178 106.457837,125.663611 106.457837,122.956691 C106.457837,120.250229 108.659716,118.048579 111.366178,118.048579 C112.166361,118.048579 112.919798,118.24473 113.587764,118.585701 C116.107241,118.106095 118.742667,117.802704 121.470898,117.678735 L121.470898,111.986251 L53.4770852,111.986251 C53.4791476,112.000458 53.4812099,112.014895 53.4830431,112.029102 C57.4727314,139.638863 65.0029789,162.161091 76.659945,180.836389 C92.0355179,184.156508 107.787809,185.839826 123.799954,185.839826 C140.54583,185.839826 157.009395,184.008708 173.053162,180.382447 C184.549954,161.796288 191.991751,139.415215 195.949129,112.028414 C195.951192,112.014207 195.953025,112 195.954858,111.986251 L128.121907,111.986251 L128.121907,117.724565" id="Fill-11" fill="#005785"></path>
            <path d="M234.500458,79.3127864 L242.057745,67.70967 L215.085472,67.70967 L224.63176,75.3994042 L224.579973,75.4635655 C225.154216,75.9615032 225.519019,76.6947754 225.519019,77.5148946 L225.519019,94.0320807 L242.082951,94.0320807 L234.493584,82.2681027 C233.913841,81.368011 233.916132,80.2103575 234.500458,79.3127864" id="Fill-12" fill="#005785"></path>
            <path d="M34.560495,74.7985793 L34.8345555,74.7985793 C34.7809349,74.7676444 34.7309808,74.734418 34.6846929,74.6984418 L34.560495,74.7985793" id="Fill-13" fill="#005785"></path>
            <g id="Group-17">
                <mask id="mask-2" fill="white">
                    <use xlink:href="#path-1"></use>
                </mask>
                <g id="Clip-15"></g>
                <path d="M93.2584785,202.096929 C95.0898258,203.993355 96.984418,205.841201 98.9443171,207.642301 L99.2330431,207.90857 C105.749542,213.898717 112.487168,220.092346 119.832493,222.794225 C121.028185,223.234647 122.853575,223.497479 124.715857,223.497479 C126.57791,223.497479 128.403071,223.234647 129.598304,222.794684 C136.945005,220.092346 143.682401,213.898717 150.198442,207.90857 L150.488084,207.642301 C152.54033,205.755958 154.519936,203.817599 156.431485,201.826535 C145.687443,203.280477 134.799954,204.016728 123.799954,204.016728 C113.512603,204.016728 103.323786,203.370302 93.2584785,202.096929" id="Fill-14" fill="#005785" mask="url(#mask-2)"></path>
                <path d="M225.519019,94.0320807 L225.519019,77.5148946 C225.519019,76.6947754 225.154216,75.9615032 224.579973,75.4635655 L224.63176,75.3994042 L215.085472,67.70967 L242.057745,67.70967 L234.500458,79.3127864 C233.916132,80.2103575 233.913841,81.368011 234.493584,82.2681027 L242.082951,94.0320807 L225.519019,94.0320807 Z M29.5364345,106.553621 L220.086618,106.553621 L220.086618,80.231439 L29.5364345,80.231439 L29.5364345,106.553621 Z M195.949129,112.028414 C191.991751,139.415215 184.549954,161.796288 173.053162,180.382447 C157.009395,184.008708 140.54583,185.839826 123.799954,185.839826 C107.787809,185.839826 92.0355179,184.156508 76.659945,180.836389 C65.0029789,162.161091 57.4727314,139.638863 53.4830431,112.029102 C53.4812099,112.014895 53.4791476,112.000458 53.4770852,111.986251 L121.470898,111.986251 L121.470898,117.678735 C118.742667,117.802704 116.107241,118.106095 113.587764,118.585701 C112.919798,118.24473 112.166361,118.048579 111.366178,118.048579 C108.659716,118.048579 106.457837,120.250229 106.457837,122.956691 C106.457837,125.663611 108.659716,127.866178 111.366178,127.866178 C112.936526,127.866178 114.333181,127.122365 115.232356,125.971357 C117.220211,125.605866 119.305683,125.369386 121.470898,125.259853 L121.470898,138.244042 C118.742667,138.368011 116.10747,138.671173 113.587993,139.150779 C112.919798,138.810037 112.166361,138.613657 111.366178,138.613657 C108.659716,138.613657 106.457837,140.815536 106.457837,143.521769 C106.457837,146.228689 108.659716,148.431256 111.366178,148.431256 C112.936297,148.431256 114.332951,147.687443 115.232126,146.536664 C117.220211,146.171173 119.305683,145.934693 121.470898,145.82516 L121.470898,158.809349 C118.742896,158.933318 116.107699,159.236709 113.588451,159.716315 C112.920257,159.375344 112.16659,159.178735 111.366178,159.178735 C108.659716,159.178735 106.457837,161.380843 106.457837,164.087305 C106.457837,166.794225 108.659716,168.996334 111.366178,168.996334 C112.936297,168.996334 114.332951,168.25275 115.232126,167.101971 C117.219982,166.73648 119.305683,166.5 121.470898,166.390467 L121.470898,170.407195 C121.470898,172.244042 122.959899,173.733043 124.796517,173.733043 C126.633364,173.733043 128.121907,172.244042 128.121907,170.407195 L128.121907,166.442026 C130.658112,166.60495 132.824473,166.900779 134.412007,167.169569 C135.312786,168.28231 136.687443,168.996334 138.227314,168.996334 C140.933776,168.996334 143.135885,166.794225 143.135885,164.087305 C143.135885,161.380843 140.933776,159.178735 138.227314,159.178735 C137.396654,159.178735 136.614345,159.387718 135.927819,159.753666 C133.986709,159.413841 131.287809,159.036893 128.121907,158.85495 L128.121907,145.878093 C130.652841,146.042163 132.823098,146.33868 134.414528,146.607699 C135.315307,147.718607 136.689047,148.431256 138.227314,148.431256 C140.933776,148.431256 143.135885,146.228689 143.135885,143.521769 C143.135885,140.815536 140.933776,138.613657 138.227314,138.613657 C137.396884,138.613657 136.614803,138.82264 135.928048,139.18813 C133.987168,138.848304 131.288268,138.471586 128.121907,138.289413 L128.121907,125.311182 C130.657883,125.474335 132.824244,125.769936 134.411778,126.038726 C135.312557,127.151925 136.687443,127.866178 138.227314,127.866178 C140.933776,127.866178 143.135885,125.663611 143.135885,122.956691 C143.135885,120.250229 140.933776,118.048579 138.227314,118.048579 C137.396196,118.048579 136.613657,118.257791 135.926902,118.623969 C133.984418,118.283914 131.28483,117.906966 128.121907,117.724565 L128.121907,111.986251 L195.954858,111.986251 C195.953025,112 195.951192,112.014207 195.949129,112.028414 Z M150.488084,207.642301 L150.198442,207.90857 C143.682401,213.898717 136.945005,220.092346 129.598304,222.794684 C128.403071,223.234647 126.57791,223.497479 124.715857,223.497479 C122.853575,223.497479 121.028185,223.234647 119.832493,222.794225 C112.487168,220.092346 105.749542,213.898717 99.2330431,207.90857 L98.9443171,207.642301 C96.984418,205.841201 95.0898258,203.993355 93.2584785,202.096929 C103.323786,203.370302 113.512603,204.016728 123.799954,204.016728 C134.799954,204.016728 145.687443,203.280477 156.431485,201.826535 C154.519936,203.817599 152.54033,205.755958 150.488084,207.642301 Z M34.8345555,74.7985793 L34.560495,74.7985793 L34.6846929,74.6984418 C34.7309808,74.734418 34.7809349,74.7676444 34.8345555,74.7985793 Z M25.3948213,75.2055454 C24.6207608,75.6842346 24.1035747,76.5380385 24.1035747,77.5148946 L24.1035747,94.0320807 L7.70187901,94.0320807 L15.2921632,82.2681027 C15.872594,81.368011 15.8703025,80.2103575 15.2855179,79.3127864 L7.72777269,67.70967 L34.700275,67.70967 L25.3948213,75.2055454 Z M76.0873052,16.5902841 C91.8453254,11.6553621 108.215857,9.15490376 124.797204,9.15490376 C141.37901,9.15490376 157.749083,11.6553621 173.506187,16.5902841 L173.506187,74.7985793 L76.0873052,74.7985793 L76.0873052,16.5902841 Z M240.013749,80.8022456 L249.344638,66.4763978 C249.890009,65.6409258 249.931256,64.5751604 249.45692,63.6989001 C248.982585,62.8224106 248.065995,62.2770394 247.069203,62.2770394 L208.888405,62.2770394 C209.103116,55.5240605 209.20967,48.5231439 209.20967,41.1551329 C209.20967,39.6636114 208.510312,38.2674152 207.338909,37.4186526 C206.953254,37.1388634 198.993355,31.4415674 185.090972,25.6807974 C185.090972,29.0840972 185.090972,32.1109074 185.090972,35.5066453 C192.594638,38.8398258 197.902612,41.9791476 200.523144,43.6466544 C200.485793,54.7266269 200.199129,64.9688359 199.652383,74.7985793 L182.594638,74.7985793 L182.594638,13.2866636 C182.594638,11.3336389 181.346471,9.59899175 179.49473,8.97823098 C161.856324,3.06484876 143.453712,0.0664527956 124.797204,0.0664527956 C106.141384,0.0664527956 87.7378552,3.06484876 70.0987626,8.97823098 C68.2472502,9.59899175 66.9990834,11.3336389 66.9990834,13.2866636 L66.9990834,74.7985793 L49.9090284,74.7985793 C49.3625115,64.9688359 49.0758478,54.7266269 49.0387259,43.6466544 C51.6585701,41.9791476 56.9665445,38.8398258 64.4708983,35.5066453 C64.4708983,32.1109074 64.4708983,29.0840972 64.4708983,25.6807974 C50.5685151,31.4415674 42.6083868,37.1388634 42.2222731,37.4186526 C41.0513291,38.2674152 40.3519707,39.6636114 40.3519707,41.1551329 C40.3519707,48.5231439 40.4585243,55.5240605 40.6734647,62.2770394 L2.71654445,62.2770394 C1.71975252,62.2770394 0.802933089,62.8224106 0.328139322,63.6989001 C-0.146654445,64.5751604 -0.103574702,65.6409258 0.440421632,66.4763978 L9.77199817,80.8022456 L0.433776352,95.2754354 C-0.10472044,96.1113657 -0.144821265,97.1748396 0.331347388,98.0483501 C0.807057745,98.9214024 1.722044,99.4644821 2.71654445,99.4644821 L24.1035747,99.4644821 L24.1035747,109.269936 C24.1035747,110.770165 25.3196609,111.986251 26.8201192,111.986251 L44.7014207,111.986251 C44.7671861,112.453254 44.8304308,112.920486 44.8978002,113.387489 C51.3409716,157.974106 66.6936297,190.09418 93.2151696,214.472044 L93.5038955,214.736939 C100.308662,220.992896 108.02154,228.082951 116.952796,231.368011 C119.085701,232.153987 121.842117,232.584785 124.715857,232.584785 C127.589368,232.584785 130.345784,232.153987 132.477544,231.368011 C141.410632,228.082951 149.122823,220.992896 155.928048,214.736939 L156.216774,214.472044 C182.737855,190.09418 198.090742,157.974106 204.533685,113.38703 C204.601054,112.920257 204.666132,112.453254 204.731668,111.986251 L222.802933,111.986251 C224.303391,111.986251 225.519019,110.770165 225.519019,109.269936 L225.519019,99.4644821 L247.069203,99.4644821 C248.063703,99.4644821 248.978002,98.9214024 249.454629,98.0483501 C249.931256,97.1748396 249.890009,96.1113657 249.351512,95.2754354 L240.013749,80.8022456 Z" id="Fill-16" fill="#FFFFFF" mask="url(#mask-2)"></path>
            </g>
            <polyline id="Fill-18" fill="#FFFFFF" points="83.1278643 68.917736 91.8615949 68.917736 91.8615949 47.9165903 105.328598 47.9165903 105.328598 40.916132 91.8615949 40.916132 91.8615949 29.1157195 106.12901 29.1157195 106.12901 21.8489918 83.1278643 21.8489918 83.1278643 68.917736"></polyline>
            <path d="M126.730064,57.3838222 C126.730064,61.7172319 125.397113,62.1173236 121.796975,62.1173236 L118.196379,62.1173236 L118.196379,47.2502291 L121.930339,47.2502291 C125.596471,47.2502291 126.730064,47.9832722 126.730064,51.8503666 L126.730064,57.3838222 Z M118.196379,28.582264 L121.663153,28.582264 C123.863199,28.582264 125.263749,28.9823556 125.797434,30.5160403 C126.130385,31.3159945 126.130385,31.715857 126.130385,36.1159487 C126.130385,38.5164986 125.530247,39.9163611 123.796746,40.3162236 C123.063474,40.4498167 122.063245,40.4498167 118.196379,40.4498167 L118.196379,28.582264 Z M129.197296,43.5834097 C132.530706,42.9163611 134.730522,41.7829973 134.730522,35.6496334 L134.730522,31.4493584 C134.730522,28.2488543 134.330889,25.1821723 131.329973,23.2488543 C129.463795,22.0488084 127.464024,21.8489918 124.130385,21.8489918 L109.52956,21.8489918 L109.52956,68.917736 L124.396884,68.917736 C127.796975,68.917736 130.196838,68.6512374 131.997709,67.4511916 C135.197296,65.3175985 135.197296,61.3838222 135.197296,58.8503666 L135.197296,52.1835472 C135.197296,47.1166361 134.798121,44.6496334 129.197296,43.5834097 Z" id="Fill-19" fill="#FFFFFF"></path>
            <path d="M160.732126,43.9830431 L152.197984,38.1830889 C150.331347,36.9159028 149.465399,36.0492667 149.465399,32.1157195 C149.465399,28.3159945 151.131989,27.4489001 153.465628,27.4489001 C157.265353,27.4489001 157.265353,29.9825848 157.265353,32.2490834 L157.265353,35.6496334 L165.865032,35.6496334 L165.865032,30.9823556 C165.865032,22.9156737 158.931943,20.8487626 153.864803,20.8487626 C149.331118,20.8487626 146.131531,22.1821723 144.398029,23.6489459 C141.331118,26.1824015 140.997938,29.715857 140.997938,33.3829056 C140.997938,38.1830889 142.198442,41.4498167 146.598763,44.4500458 L154.865032,49.9835014 C157.131989,51.5169569 157.79835,52.9172777 157.79835,56.2502291 C157.79835,60.4507333 157.79835,63.2506874 153.53231,63.2506874 C149.331118,63.2506874 149.331118,60.5171861 149.331118,57.784143 L149.331118,52.3166819 L140.664528,52.3166819 L140.664528,59.1840055 C140.664528,67.1173236 146.331577,69.917736 153.731897,69.917736 C156.931943,69.917736 162.332035,69.4511916 164.93286,65.2509166 C166.466086,62.7839138 166.466086,60.1840055 166.466086,55.9835014 C166.466086,52.1835472 166.466086,50.7170027 165.198671,48.5831806 C164.199129,46.8499083 162.398717,45.1833181 160.732126,43.9830431" id="Fill-20" fill="#FFFFFF"></path>
            <polygon id="Fill-21" fill="#FFFFFF" points="40.1168653 103.491063 44.0025206 103.491063 44.0025206 84.2580202 40.1168653 84.2580202"></polygon>
            <polyline id="Fill-22" fill="#FFFFFF" points="52.2967461 91.3318057 55.1927131 103.491063 59.9617324 103.491063 59.9617324 84.2580202 56.3361595 84.2580202 56.6349679 96.1679652 53.7151696 84.2580202 48.8677819 84.2580202 48.8677819 103.491063 52.5724106 103.491063 52.2967461 91.3318057"></polyline>
            <path d="M68.7399175,87.4523373 L69.8691567,87.4523373 C71.3453254,87.4523373 71.7165445,87.6510082 71.7165445,89.1402383 L71.7165445,98.5027498 C71.7165445,99.3705316 71.6372594,100.100825 70.6530706,100.247479 C70.3941338,100.294684 70.1237397,100.296975 68.7399175,100.296975 L68.7399175,87.4523373 Z M75.602429,98.2103575 L75.602429,89.4328598 C75.602429,88.0554537 75.5109991,86.6170944 74.4202566,85.4970211 C73.20967,84.2580202 71.7852887,84.2580202 70.6404675,84.2580202 L64.8274519,84.2580202 L64.8274519,103.491063 L70.6138863,103.491063 C75.2170027,103.491063 75.602429,100.765124 75.602429,98.2103575 Z" id="Fill-23" fill="#FFFFFF"></path>
            <polyline id="Fill-24" fill="#FFFFFF" points="90.0187901 100.137489 84.1406966 100.137489 84.1406966 94.8201192 89.4335472 94.8201192 89.4335472 91.5197067 84.1406966 91.5197067 84.1406966 87.5586618 89.7793309 87.5586618 89.7793309 84.231439 80.2284601 84.231439 80.2284601 103.491063 90.0187901 103.491063 90.0187901 100.137489"></polyline>
            <path d="M97.9193401,87.4789184 L99.394363,87.4789184 C100.70967,87.4789184 100.70967,87.8703025 100.70967,89.1668194 L100.70967,91.0818057 C100.70967,92.4230064 100.506874,92.5302475 99.3677819,92.5302475 L97.9193401,92.5302475 L97.9193401,87.4789184 Z M97.9193401,95.6714024 L100.617782,95.6714024 C104.195005,95.6714024 104.568744,94.2972044 104.568744,91.1617782 L104.568744,88.7144821 C104.568744,86.9291934 104.568744,84.231439 101.176214,84.231439 L93.9802933,84.231439 L93.9802933,103.491063 L97.9193401,103.491063 L97.9193401,95.6714024 Z" id="Fill-25" fill="#FFFFFF"></path>
            <polyline id="Fill-26" fill="#FFFFFF" points="118.61297 100.137489 112.734876 100.137489 112.734876 94.8201192 118.027727 94.8201192 118.027727 91.5197067 112.734876 91.5197067 112.734876 87.5586618 118.37374 87.5586618 118.37374 84.231439 108.822411 84.231439 108.822411 103.491063 118.61297 103.491063 118.61297 100.137489"></polyline>
            <polyline id="Fill-27" fill="#FFFFFF" points="126.003208 91.3318057 128.899404 103.491063 133.668194 103.491063 133.668194 84.2580202 130.04308 84.2580202 130.342117 96.1681943 127.421402 84.2580202 122.574473 84.2580202 122.574473 103.491063 126.279102 103.491063 126.003208 91.3318057"></polyline>
            <path d="M142.446609,87.4523373 L143.575848,87.4523373 C145.051787,87.4523373 145.423236,87.6510082 145.423236,89.1402383 L145.423236,98.5027498 C145.423236,99.3705316 145.343492,100.100825 144.359533,100.247479 C144.100596,100.294684 143.830431,100.296975 142.446609,100.296975 L142.446609,87.4523373 Z M149.308891,98.2103575 L149.308891,89.4328598 C149.308891,88.0552246 149.21769,86.6168653 148.126719,85.4970211 C146.91659,84.2580202 145.491751,84.2580202 144.347159,84.2580202 L138.534372,84.2580202 L138.534372,103.491063 L144.320577,103.491063 C148.923465,103.491063 149.308891,100.765124 149.308891,98.2103575 Z" id="Fill-28" fill="#FFFFFF"></path>
            <polyline id="Fill-29" fill="#FFFFFF" points="163.725481 100.137489 157.847388 100.137489 157.847388 94.8201192 163.140009 94.8201192 163.140009 91.5197067 157.847388 91.5197067 157.847388 87.5586618 163.486022 87.5586618 163.486022 84.231439 153.935151 84.231439 153.935151 103.491063 163.725481 103.491063 163.725481 100.137489"></polyline>
            <polyline id="Fill-30" fill="#FFFFFF" points="171.115261 91.3313474 174.011916 103.491063 178.780247 103.491063 178.780247 84.2580202 175.155133 84.2580202 175.453712 96.167736 172.534143 84.2580202 167.686755 84.2580202 167.686755 103.491063 171.391155 103.491063 171.115261 91.3313474"></polyline>
            <polyline id="Fill-31" fill="#FFFFFF" points="185.82791 103.491063 189.766499 103.491063 189.766499 87.4257562 193.224106 87.4257562 193.224106 84.2580202 182.370073 84.2580202 182.370073 87.4257562 185.82791 87.4257562 185.82791 103.491063"></polyline>
            <path d="M201.961045,103.890009 C204.245417,103.890009 205.814161,103.227314 206.622823,101.920944 C207.269019,100.881989 207.269019,99.7768103 207.269019,98.1038038 C207.269019,96.5733272 207.269019,95.9401925 206.733272,95.0378093 C206.371448,94.4110907 205.698671,93.7163153 204.881989,93.1283226 L201.477314,90.8141613 C200.790101,90.3476169 200.486251,90.0785976 200.486251,88.5815765 C200.486251,87.22044 201.010082,86.9470669 201.855179,86.9470669 C203.143905,86.9470669 203.143905,87.7291476 203.143905,88.6349679 L203.143905,90.2186068 L207.02956,90.2186068 L207.02956,88.1294684 C207.02956,84.9809808 204.438818,83.8593034 202.014436,83.8593034 C200.400779,83.8593034 198.970669,84.2859762 198.092805,85.0284143 C196.764895,86.1251146 196.653758,87.6347388 196.653758,89.0870761 C196.653758,90.8948213 197.050642,92.3693859 198.988772,93.6913382 L202.286205,95.8982585 C203.126489,96.4667736 203.356783,96.9637947 203.356783,98.2103575 C203.356783,100.035518 203.300183,100.775894 201.881531,100.775894 C200.502979,100.775894 200.43286,100.033456 200.43286,98.8221815 L200.43286,96.4136114 L196.520852,96.4136114 L196.520852,99.3806141 C196.520852,102.33066 198.401925,103.890009 201.961045,103.890009" id="Fill-32" fill="#FFFFFF"></path>
        </g>
    </g>
</svg>