<?xml version="1.0" encoding="UTF-8" standalone="no"?>
<svg width="250px" height="250px" viewBox="0 0 250 250" version="1.1" xmlns="http://www.w3.org/2000/svg" xmlns:xlink="http://www.w3.org/1999/xlink">
    <!-- Generator: Sketch 50 (54983) - http://www.bohemiancoding.com/sketch -->
    <title>Mid-American</title>
    <desc>Created with Sketch.</desc>
    <defs></defs>
    <g id="Mid-American" stroke="none" stroke-width="1" fill="none" fill-rule="evenodd">
        <g id="Mid-American_Conference_logo" transform="translate(0.000000, 10.000000)" fill-rule="nonzero">
            <path d="M0.774553571,34.4826087 C5.8984375,118.95942 54.6830357,191.663043 124.881696,230.308116 C195.060268,191.663043 243.84375,118.95942 248.966518,34.4826087 C212.75,12.6001014 170.294643,0 124.881696,0 C79.4620536,0 37,12.6001014 0.774553571,34.4826087" id="Shape" fill="#FFFFFF"></path>
            <path d="M173.113839,81.9726377 C174.303571,79.4394493 176.919643,77.6505942 179.805804,77.6505942 L219.901786,77.6505942 L208.313616,103.229101 L192.534598,103.229101 L199.714286,87.453029 L186.138393,87.453029 L173.933036,114.073826 L221.679687,114.073826 C232.114955,90.7551014 238.532366,65.5024493 240.072545,39.0535072 C206.735491,19.5602319 167.237723,8.26131884 124.871652,8.26131884 C82.5022321,8.26131884 42.9899554,19.5602319 9.65959821,39.059087 C11.1941964,65.3116232 17.5100446,90.3935362 27.8225446,113.571652 L39.7712054,87.5724348 L35.4642857,77.6528261 L110.158482,77.6528261 L88.7131696,123.877377 L72.9341518,123.877377 L89.9162946,87.4552609 L80.5011161,87.4552609 L63.7053571,123.877377 L47.921875,123.877377 L64.7131696,87.4552609 L55.4040179,87.4552609 L38.6183036,123.877377 L32.7600446,123.877377 C52.9453125,163.564739 85.0613839,197.055275 124.867187,220.382928 C164.675223,197.055275 196.78683,163.564739 216.972098,123.877377 L153.767857,123.877377 L173.111607,81.9748696 L173.113839,81.9726377 Z" id="Shape" fill="#0D2647"></path>
            <path d="M124.877232,18.9509275 C88.5379464,18.9509275 52.7377232,28.1228551 21.0569196,45.4612464 C21.8180804,52.5586377 22.9553571,59.5667536 24.4073661,66.4855942 L225.344866,66.4855942 C226.795759,59.5667536 227.934152,52.5564058 228.69308,45.4590145 C197.007813,28.1206232 161.215402,18.9509275 124.876116,18.9509275 L124.877232,18.9509275 Z M51.9587054,135.477594 C69.9185268,164.603681 94.7533482,189.522667 124.877232,207.623246 C155,189.522667 179.832589,164.614841 197.790179,135.477594 L51.9642857,135.477594 L51.9587054,135.477594 Z" id="Shape" fill="#FFFFFF"></path>
            <path d="M84.4464286,30.0132609 C65.0558036,33.8275507 46.2544643,40.3468841 28.6886161,49.4418116 C29.1517857,52.9838116 29.7220982,56.5068406 30.3627232,60.001971 L85.9720982,60.001971 C85.1964286,50.2185072 84.6674107,40.1951159 84.4464286,30.0132609 Z M165.323661,30.0143768 C165.100446,40.194 164.564732,50.2196232 163.794643,60.001971 L219.397321,60.001971 C220.033482,56.5012609 220.602679,52.9826957 221.071429,49.4373478 C203.515625,40.348 184.709821,33.8264348 165.323661,30.0143768 Z M65.1618304,142.601768 C77.5904018,160.222493 92.7834821,175.946116 110.256696,189.14771 C106.995536,178.211478 102.597098,162.186551 98.3448661,142.601768 L65.1618304,142.601768 Z M151.417411,142.601768 C147.165179,162.175391 142.779018,178.200319 139.508929,189.125391 C156.975446,175.934957 172.176339,160.222493 184.598214,142.601768 L151.417411,142.601768 Z" id="Shape" fill="#00A160"></path>
            <path d="M103.664063,36.8673768 L96.1439732,53.2516377 L100.378348,53.2516377 L107.897321,36.8673768 L103.664063,36.8673768 Z M113.28125,36.8673768 C111.975446,36.8673768 110.803571,37.6663913 110.245536,38.8046522 L107.554688,44.6421449 C107.46317,44.8307391 107.409598,45.0405362 107.393973,45.257029 C107.319196,46.1743333 108.003348,46.913087 108.919643,46.913087 L115.055804,46.913087 L113.649554,49.9584928 L105.488839,49.9584928 L103.947545,53.2516377 L114.241071,53.2248551 C115.546875,53.2248551 116.71875,52.4258406 117.276786,51.2920435 L122.879464,39.1472464 C122.957589,38.9541884 123.024554,38.7455072 123.035714,38.5278986 C123.113839,37.6105942 122.433036,36.8673768 121.506696,36.8673768 L113.28125,36.8673768 Z M129.274554,36.8673768 C127.96875,36.8673768 126.796875,37.6663913 126.238839,38.8046522 L123.549107,44.6421449 C123.459821,44.8296232 123.404018,45.0405362 123.381696,45.257029 C123.314732,46.1743333 123.995536,46.913087 124.910714,46.913087 L131.049107,46.913087 L128.169643,53.2360145 L132.388393,53.2248551 L139.899554,36.8673768 L135.669643,36.8673768 L132.578125,43.6177101 L128.270089,43.6177101 L131.361607,36.8673768 L129.274554,36.8673768 Z M156.071429,36.8673768 L145.770089,36.8952754 C144.464286,36.8952754 143.292411,37.6965217 142.745536,38.8292029 L137.142857,50.974 C137.053571,51.1648261 136.986607,51.3701594 136.964286,51.5922319 C136.897321,52.5095362 137.578125,53.2516377 138.504464,53.2516377 L146.729911,53.2516377 C148.035714,53.2516377 149.21875,52.4503913 149.776786,51.3177101 L152.455357,45.4813333 C152.544643,45.2871594 152.600446,45.0795942 152.622768,44.8619855 C152.689732,43.946913 152.008929,43.2059275 151.09375,43.2059275 L144.955357,43.2059275 L146.361607,40.1649855 L154.520089,40.1649855 L156.071429,36.8673768 Z M113.850446,40.1694493 L118.169643,40.1694493 L116.584821,43.6177101 L112.276786,43.6177101 L113.850446,40.1694493 Z M143.426339,46.5013043 L147.734375,46.5013043 L146.160714,49.9495652 L141.852679,49.9495652 L143.426339,46.5013043 Z M124.877232,147.125797 L121.517857,157.481739 L110.625,157.481739 L119.430804,163.887246 L116.071429,174.232029 L124.877232,167.837681 L133.683036,174.232029 L130.323661,163.887246 L139.129464,157.481739 L128.236607,157.481739 L124.877232,147.125797 Z" id="Shape" fill="#AEAFAA"></path>
            <path d="M186.216518,194.731884 L184.426339,194.731884 L182.234375,199.647609 L180.537946,199.647609 L182.731027,194.731884 L180.9375,194.731884 L181.543527,193.373783 L186.822545,193.373783 L186.216518,194.731884 Z M192.997768,199.647609 L191.316964,199.647609 L193.496652,194.740812 L193.31808,194.740812 L190.246652,198.177913 L189.063616,198.177913 L189.058036,194.679435 L188.830357,194.679435 L186.61942,199.647609 L185.022321,199.647609 L187.81808,193.373783 L190.552455,193.373783 L190.453125,196.438159 L193.140625,193.373783 L195.789062,193.373783 L192.997768,199.647609 Z" id="Shape" fill="#0D2647"></path>
            <path d="M125.089286,77.6505942 C122.207589,77.6505942 119.589286,79.4383333 118.405134,81.9726377 L99.0558036,123.875145 L114.637277,123.875145 L120.998884,110.236101 L134.477679,110.236101 L128.026786,123.875145 L143.800223,123.875145 L165.185268,77.6505942 L125.089286,77.6505942 Z M139.100446,100.428087 L125.579241,100.428087 L131.427455,87.453029 L145.004464,87.453029 L139.100446,100.428087 Z" id="Shape" fill="#FFFFFF"></path>
        </g>
    </g>
</svg>