<?xml version="1.0" encoding="UTF-8" standalone="no"?>
<svg width="250px" height="250px" viewBox="0 0 250 250" version="1.1" xmlns="http://www.w3.org/2000/svg" xmlns:xlink="http://www.w3.org/1999/xlink">
    <!-- Generator: Sketch 50 (54983) - http://www.bohemiancoding.com/sketch -->
    <title>Mountain West</title>
    <desc>Created with Sketch.</desc>
    <defs></defs>
    <g id="Mountain-West" stroke="none" stroke-width="1" fill="none" fill-rule="evenodd">
        <g id="Mountain_West_Conference_logo" transform="translate(7.000000, 0.000000)" fill-rule="nonzero">
            <path d="M118.163912,0.336206897 L118.163912,246.133621 L175.002976,223.676724 L186.377468,190.894397 L199.346754,214.193966 L199.304676,214.387586 L234.509949,201.090172 L230.566915,193.092543 L230.566915,54.129181 L234.509733,46.1334914 L210.788188,36.8015948 L210.788188,163.61194 L199.367373,165.809138 L199.367373,32.3199138 L172.65101,21.7798276 L172.65101,170.941466 L156.837077,173.98069 L156.837077,15.5755172 L118.165141,0.336293103 L118.163912,0.336206897 Z M37.0237306,32.1034483 L36.9816524,32.297069 L49.9509387,55.5750862 L58.1188205,32.3401724 L37.023666,32.1044397 L37.0237306,32.1034483 Z M79.4919761,72.512931 L63.6780434,75.5521552 L63.6780434,224.687931 L79.4919761,220.293319 L79.4919761,72.512931 Z M36.5949761,80.7463362 L25.5402188,82.8552155 L25.5402188,209.644009 L36.9610334,207.211034 L36.9610334,80.7886207 L36.594933,80.7465302 L36.5949761,80.7463362 Z" id="Shape" fill="#AFAFAF"></path>
            <path d="M118.163912,0.336206897 L61.3248488,22.7931034 L61.4132283,22.9025431 L49.9504001,55.5749569 L36.9811137,32.2753879 L37.023192,32.1028017 L1.81791927,45.4002155 L5.76095291,53.39375 L5.76095291,192.339871 L1.81791927,200.337716 L25.5394647,209.644612 L25.5394647,82.855819 L36.9602793,80.6795259 L36.9602793,214.153664 L63.6766429,224.689655 L63.6766429,75.5538793 L79.4905756,72.5146552 L79.4905756,230.919828 L118.162512,246.135345 L118.162512,0.337931034 L118.163912,0.336206897 Z M172.650212,21.7780172 L156.83628,26.1771552 L156.83628,173.978879 L172.650212,170.939655 L172.650212,21.7780172 Z M210.787822,36.8012931 L199.367007,39.280819 L199.367007,165.808836 L210.787822,163.611638 L210.787822,36.8012931 Z M186.376822,190.896336 L178.234148,214.12694 L199.304094,214.387909 L199.346173,214.194289 L186.376886,190.89472 L186.376822,190.896336 Z" id="Shape" fill="#4F2D7F"></path>
        </g>
    </g>
</svg>