<?xml version="1.0" encoding="UTF-8" standalone="no"?>
<svg width="250px" height="250px" viewBox="0 0 250 250" version="1.1" xmlns="http://www.w3.org/2000/svg" xmlns:xlink="http://www.w3.org/1999/xlink">
    <!-- Generator: Sketch 50 (54983) - http://www.bohemiancoding.com/sketch -->
    <title>Southeastern</title>
    <desc>Created with Sketch.</desc>
    <defs></defs>
    <g id="Southeastern" stroke="none" stroke-width="1" fill="none" fill-rule="evenodd">
        <g id="Southeastern_Conference_logo" fill-rule="nonzero">
            <ellipse id="Oval" fill="#FFFFFF" cx="124.985467" cy="124.916667" rx="123.160569" ry="123.130081"></ellipse>
            <ellipse id="Oval" fill="#004B8D" cx="125.015955" cy="124.713415" rx="120.406504" ry="120.660569"></ellipse>
            <path d="M125.299622,19.1271649 C117.474386,19.1177175 109.643946,19.9378194 101.983592,21.5360869 L102.101107,21.6377155 C104.194656,23.4110932 106.120964,25.3629306 108.092395,27.268588 C120.76507,25.1496732 133.834502,25.4193548 146.394979,28.1530816 C146.491526,33.5750871 146.425142,39.0013203 146.425142,44.4282853 C148.081688,46.887615 149.77425,49.3213344 151.603402,51.6534252 C151.628768,41.9125313 151.572588,32.1716374 151.633565,22.4307435 C143.030098,20.2145092 134.167275,19.1385473 125.298761,19.1278154 L125.299622,19.1271649 Z M93.2280889,23.9290736 C77.4772886,28.8983035 62.9956258,37.7155971 51.1969568,49.25491 C38.6112763,61.6129425 29.0825828,77.1255254 24.0214807,94.0389564 C26.2572277,94.3133454 28.4883403,94.5871164 30.7289655,94.8361064 C33.2950459,86.5228904 37.0913196,78.6170017 41.7763961,71.2997456 C52.7417109,53.9619138 69.3575734,40.3558826 88.3653657,32.6979676 C88.4060171,49.9593747 88.3498368,67.2150907 88.395529,84.4748718 C90.0317488,86.1669466 91.5821128,87.9391047 93.1117445,89.7277673 L93.2133731,89.8452743 C93.1523959,67.8739933 93.1225253,45.8994602 93.2292271,23.9281793 L93.2280889,23.9290736 Z M160.524893,25.2137399 L160.521641,25.2153659 C162.594864,28.370892 164.418649,31.6793487 166.476424,34.8399968 C189.743672,45.3784716 208.383976,65.4651526 217.428917,89.3316029 C219.705316,90.2157714 222.073099,90.8859507 224.268194,91.9834578 C224.567998,91.7395574 224.873526,91.4908764 225.173339,91.2418865 C224.619471,89.6869695 224.059571,88.1271744 223.459962,86.5876238 C212.687335,58.308868 189.052598,35.2912194 160.52343,25.2177969 L160.524893,25.2137399 Z M121.939376,41.5239037 L121.939376,41.5255298 C121.868236,67.419673 121.97523,93.3186945 121.883765,119.217716 C130.075026,119.278693 138.259784,119.198041 146.451045,119.259018 C146.425679,123.97938 146.44698,128.695026 146.436736,133.410591 C148.072956,134.935019 149.719176,136.448878 151.391169,137.937859 L151.603947,138.130002 C151.629313,129.852559 151.573133,121.581621 151.63411,113.304178 C143.320894,113.370196 135.008491,113.314341 126.700153,113.334341 C126.745846,91.1598031 126.654705,68.983639 126.746171,46.8091009 C125.333534,45.0509268 123.779511,43.42113 122.311019,41.7086482 C122.219553,41.6629153 122.030898,41.5701813 121.939441,41.5244484 L121.939376,41.5239037 Z M180.297745,62.7813457 C180.404455,103.940098 180.362544,145.100477 180.31677,186.264107 C190.479626,176.873629 198.605032,165.151385 203.131975,152.031544 C208.162507,153.977691 213.126533,156.106118 218.055112,158.29601 C219.996136,157.66084 221.891875,156.885243 223.817776,156.209454 C224.478346,155.945228 225.312367,155.7321 225.535949,154.959748 C217.034924,151.453644 208.533085,147.936401 200.108484,144.252163 C197.344269,154.943487 192.181945,165.029918 185.15933,173.551269 C185.15933,140.852891 185.06819,108.156139 185.205348,75.4593862 C183.940113,71.4806689 182.283242,67.6432559 180.916297,63.7054338 C180.703137,63.3958407 180.50001,63.0924185 180.296997,62.7828091 L180.297745,62.7813457 Z M54.9694089,91.53491 C53.1909091,92.154828 51.3767987,92.6674587 49.5322811,93.0434843 C49.0241464,93.1755933 48.5156703,93.3185237 48.0126496,93.465877 C61.4170497,109.22806 74.9799904,124.857719 88.3795124,140.62478 C88.3843906,165.858744 88.3636583,191.09596 88.3890248,216.33155 C89.8626389,219.197394 91.2847883,222.104134 92.9464558,224.868349 L93.1147771,225.133534 C93.2418128,195.9263 93.1242895,166.713375 93.1751038,137.505328 C93.3224571,136.819343 92.6736197,136.403267 92.3382536,135.920573 C79.720052,121.302321 67.2644561,106.529594 54.5779601,91.9763845 L55.3290601,91.5809844 C55.2375944,91.5657807 55.0597445,91.5453737 54.9733602,91.5301701 L54.9694089,91.53491 Z M122.400363,133.502626 C122.273327,133.507504 122.014809,133.51848 121.882691,133.51848 C121.948791,158.177633 121.917326,182.83516 121.897001,207.497565 C130.14924,207.751628 138.45839,206.873777 146.446395,204.759936 C146.415906,210.14129 146.481355,215.520367 146.405093,220.901803 C148.092127,222.878437 149.789324,224.845235 151.588149,226.719997 C151.649127,216.974225 151.563352,207.228453 151.629451,197.482681 C143.641609,200.36381 135.190829,201.979866 126.705251,202.178245 C126.74078,180.740311 126.653461,159.308068 126.744927,137.872573 C125.306923,136.409121 123.848676,134.960874 122.400265,133.502545 L122.400363,133.502626 Z M49.8806638,144.055735 C41.0902001,147.485658 32.4615291,151.342584 23.7320426,154.929991 L24.1385568,155.07132 C26.7198409,155.970692 29.2412047,157.034052 31.8273669,157.923261 C36.7916374,155.78402 41.7747701,153.679903 46.7952208,151.677901 C51.8155902,166.246558 61.0443575,179.367211 73.1072607,188.9455 C73.2241335,188.782894 73.4524888,188.452276 73.5693535,188.289678 C71.6993881,184.798778 70.0432491,181.195192 68.4323145,177.582094 C59.5654262,168.199745 53.1628271,156.540917 49.8798182,144.06093 L49.8806638,144.055735 Z" id="Shape" stroke="#FFFFFF" stroke-width="1.01626016" fill="#FFFFFF"></path>
            <path d="M102.099289,21.6382114 C102.06372,90.2398374 102.159959,158.853659 102.053252,227.45122 C118.323577,231.155488 135.402846,230.632114 151.585772,226.714431 C149.786992,224.839431 148.089837,222.872967 146.402846,220.896545 C133.821545,223.711585 120.720935,223.971037 108.022764,221.781016 C107.941463,170.488333 108.017683,119.199715 107.992581,67.909065 C108.058638,54.3623171 107.860783,40.8104878 108.089431,27.2688211 C106.117886,25.3610976 104.191057,23.4102846 102.097561,21.6367073 L102.099289,21.6382114 Z M160.428557,25.0784553 C160.418394,91.3630081 160.453354,157.649593 160.412703,223.940244 C173.72063,219.148374 186.06311,211.698374 196.459451,202.099797 C209.665752,189.996138 219.670833,174.45752 225.280589,157.44126 C225.407622,156.663821 226.26128,155.627439 225.534654,154.961789 C225.311077,155.734146 224.477947,155.947236 223.817378,156.211484 C221.891565,156.887297 219.995935,157.664431 218.054776,158.299593 C209.127134,182.791463 190.229573,203.49878 166.485671,214.315854 C166.368801,202.273171 166.460874,190.225407 166.425305,178.177642 C166.460874,130.405285 166.374492,82.6247967 166.476118,34.8443089 C164.418191,31.6837398 162.593801,28.3756098 160.520833,25.2199187 L160.429573,25.0833537 L160.428557,25.0784553 Z M125.676524,41.5296748 C124.553354,41.5407317 123.430285,41.5960569 122.308537,41.7091057 C123.777033,43.4215041 125.331707,45.0520935 126.744309,46.8103252 C135.194715,47.2473171 143.675203,48.5995528 151.602033,51.6534146 C149.772764,49.3210976 148.080386,46.8871545 146.423984,44.4278049 C142.958537,43.3353252 139.356098,42.7558537 135.763415,42.2578862 C132.417378,41.8615447 129.045935,41.4967073 125.676423,41.5298374 L125.676524,41.5296748 Z M74.4122967,59.1739837 C66.9375,64.7073171 60.6978659,71.795935 55.5708333,79.5296748 C52.8777439,83.7930894 50.3427846,88.198374 48.5643293,92.9341463 C48.8031504,92.9595528 49.2906301,93.0159248 49.5345325,93.0413313 C51.3790447,92.665315 53.1930691,92.1519411 54.9715244,91.5319817 L55.1191972,91.485935 C55.1954167,90.6221138 55.5863516,89.8446748 55.9877744,89.0977236 C59.3617581,82.6904065 63.4983435,76.6332927 68.5589126,71.4402033 C68.5436687,77.5479268 68.6141768,83.6505691 68.5176321,89.7582927 C76.7188516,89.7582927 84.9149898,89.8091057 93.111128,89.7328862 C91.5816565,87.9442683 90.032063,86.1714024 88.3956809,84.4792276 C83.7664126,84.6570732 79.1322663,84.5551321 74.4983232,84.5602134 C74.3712907,76.1000508 74.5489736,67.6344004 74.4117785,59.1740346 L74.4122967,59.1739837 Z M180.916362,63.7056911 C182.283232,67.6436992 183.940041,71.4808943 185.205386,75.4597561 C191.739939,83.6353659 196.841565,93.025813 199.63628,103.13252 C206.963516,100.20061 214.20437,97.05 221.501118,94.0418699 C222.791768,93.5388211 224.02124,92.8378049 225.403354,92.604065 C225.357622,92.1213415 225.31748,91.6335366 225.28188,91.1558943 L225.168059,91.2412602 C224.868262,91.4902439 224.563547,91.7389024 224.26375,91.9828049 C222.068628,90.8852439 219.700335,90.215122 217.423913,89.3309756 C212.525539,91.4905285 207.622287,93.665122 202.596677,95.5094309 C199.197287,86.5004878 194.218222,78.1008943 187.968628,70.7838211 C185.768425,68.2787398 183.536921,65.7728455 180.91497,63.7049593 L180.916362,63.7056911 Z M23.8127033,94.0146341 C38.811687,111.311382 53.6246951,128.770732 68.5647358,146.11626 C68.4783537,156.604065 68.7327337,167.095935 68.432937,177.578659 C70.0437093,181.191463 71.6999085,184.794106 73.5699289,188.284959 C73.4530589,188.447561 73.2247154,188.778171 73.1078557,188.940772 L73.0062297,189.093211 C73.6058232,189.240569 74.2101931,189.387927 74.8148679,189.525122 C74.6116159,188.458049 74.428374,187.39626 74.4385366,186.308862 C74.4995122,173.946057 74.4234553,161.587317 74.4742683,149.224512 C74.3929675,147.65439 74.8707724,145.759065 73.5445528,144.574919 C59.205122,128.05561 45.1197561,111.312724 30.7315447,94.8391463 C28.4906911,94.5901626 26.26,94.3156098 24.0242276,94.0412195 L23.8097967,94.0107317 L23.8127033,94.0146341 Z M131.414329,133.326626 C128.40935,133.336992 125.405793,133.38313 122.404573,133.501301 C123.852744,134.959634 125.311077,136.407805 126.749289,137.87122 C134.960671,138.043984 143.177134,137.896931 151.393598,137.942663 C149.72185,136.453841 148.075508,134.939919 146.439126,133.415427 C141.435061,133.391037 136.422866,133.305671 131.414736,133.321931 L131.414329,133.326626 Z M24.1379065,155.070528 C25.3777439,159.857114 27.2935976,164.45061 29.3309959,168.952642 C40.835061,193.851016 62.4448171,213.830691 88.1561992,223.367276 C89.7314024,223.936382 91.2919715,224.581707 92.9484756,224.86626 C91.2868902,222.102033 89.8639228,219.195528 88.3903455,216.329675 C64.3761179,206.964634 44.536687,187.579675 34.3253049,163.939431 C33.4716463,161.94248 32.7143293,159.904878 31.8251016,157.918293 C29.2387195,157.029065 26.7185976,155.966565 24.1372967,155.067175 L24.1379065,155.070528 Z" id="Shape" stroke="#E6A623" stroke-width="1.01626016" fill="#E7A614"></path>
            <path d="M124.873679,25.8638211 C119.253354,25.8702236 113.633841,26.3405285 108.089126,27.2674797 C107.860467,40.8091463 108.058333,54.3609756 107.992276,67.9077236 C108.017683,119.200407 107.941159,170.489024 108.022459,221.779675 C120.72063,223.969715 133.82124,223.710264 146.402541,220.895203 C146.47876,215.513902 146.412703,210.134024 146.442988,204.752927 C138.455183,206.866748 130.14624,207.745305 121.894207,207.49124 C121.914533,182.831687 121.945224,158.174167 121.879167,133.511565 C122.01128,133.511565 122.270579,133.500793 122.397622,133.495711 C130.400874,133.180671 138.424045,133.37439 146.432175,133.409939 C146.442337,128.694492 146.421809,123.979045 146.447215,119.258516 C138.256159,119.197541 130.070183,119.278232 121.879126,119.217256 C121.970589,93.3178659 121.86439,67.4205081 121.935528,41.5261992 C122.026992,41.5719309 122.214837,41.663872 122.306301,41.7096037 C126.793293,41.2573679 131.300203,41.7297663 135.761585,42.2582215 C139.354065,42.756189 142.956707,43.3356606 146.422154,44.4281402 C146.422154,39.001311 146.488516,33.5744817 146.391972,28.1527337 C139.326524,26.6150305 132.099289,25.8563923 124.873679,25.8645224 L124.873679,25.8638211 Z M88.3635163,32.6995935 C69.3543699,40.3569106 52.7385163,53.9638211 41.7740854,71.3012195 C37.089126,78.6182927 33.2940041,86.5247967 30.7273374,94.8378049 C45.1135163,111.313415 59.1948171,128.057317 73.5362805,144.573577 C74.8625,145.75752 74.3846951,147.652846 74.4659959,149.223171 C74.4151829,161.585976 74.4912398,173.944715 74.4302642,186.30752 C74.4201016,187.394919 74.6033435,188.456707 74.8065955,189.52378 C74.2019207,189.386585 73.5975508,189.239228 72.9979573,189.09187 L73.0995833,188.939431 C61.0365752,179.361382 51.8079167,166.24126 46.7875915,151.673171 C41.7672663,153.675203 36.7827134,155.779268 31.8180793,157.918293 C32.7073069,159.905081 33.464624,161.942683 34.3182825,163.939431 C44.5316972,187.577642 64.3690955,206.963821 88.3833232,216.329675 C88.3579167,191.095935 88.3780386,165.85813 88.372998,140.622358 C74.9736077,124.855081 61.4116159,109.225 48.0071443,93.4638211 C48.5101931,93.3164634 49.0186484,93.1743496 49.5267581,93.0422358 C49.2828557,93.0168293 48.795376,92.9604573 48.5565549,92.9350508 C50.3350102,88.1992785 52.8699695,83.7939939 55.5630589,79.5305793 C60.6898882,71.7968394 66.9299289,64.7084248 74.4045224,59.1748882 C74.5417175,67.6350508 74.3640346,76.1007012 74.4910671,84.5610671 C79.1252134,84.5559858 83.7593598,84.6579268 88.3884248,84.4800813 C88.3426931,67.2189024 88.3989126,49.9628049 88.3582622,32.7036585 L88.3635163,32.6995935 Z M166.469207,34.8386179 C166.367581,82.6191057 166.453963,130.395528 166.418394,178.171951 C166.453963,190.219715 166.36189,202.26748 166.47876,214.310163 C190.223679,203.492073 209.121037,182.785772 218.047866,158.293902 C213.119004,156.103862 208.15437,153.974797 203.124085,152.028862 C198.596443,165.14878 190.471646,176.871341 180.309045,186.261585 C180.354776,145.103049 180.395935,103.940447 180.289228,62.7859756 C180.49248,63.095935 180.695091,63.4001626 180.908496,63.710122 C183.530447,65.7782114 185.761748,68.2841057 187.962154,70.7889837 C194.212154,78.1060569 199.191829,86.5054472 202.590203,95.5145935 C207.615407,93.6700813 212.519065,91.4955894 217.417439,89.3361382 C208.376789,65.4702846 189.738577,45.3849187 166.470285,34.8483333 L166.469207,34.8386179 Z" id="Shape" stroke="#FFD24F" stroke-width="1.01626016" fill="#FFD046"></path>
        </g>
    </g>
</svg>