<?xml version="1.0" encoding="utf-8"?>
<!-- Generator: Adobe Illustrator 27.4.1, SVG Export Plug-In . SVG Version: 6.00 Build 0)  -->
<svg version="1.1" id="Layer_1" xmlns="http://www.w3.org/2000/svg" xmlns:xlink="http://www.w3.org/1999/xlink" x="0px" y="0px"
	 viewBox="0 0 500 500" style="enable-background:new 0 0 500 500;" xml:space="preserve">
<style type="text/css">
	.st0{clip-path:url(#SVGID_00000025415131169121963190000010615699074064943010_);fill:#002639;}
	.st1{fill:#002639;}
	.st2{fill:#E91A46;}
</style>
<g>
	<g>
		<defs>
			<rect id="SVGID_1_" y="196.9" width="500" height="106.1"/>
		</defs>
		<clipPath id="SVGID_00000124873413256355357610000008645363492061380019_">
			<use xlink:href="#SVGID_1_"  style="overflow:visible;"/>
		</clipPath>
		<path style="clip-path:url(#SVGID_00000124873413256355357610000008645363492061380019_);fill:#002639;" d="M79.8,270.8l-2.4,6.1
			H45.6c-2.1,0-3.4-0.6-3.9-1.7c-0.3-0.8-0.3-1.8,0.2-3l8.6-22l-31.6-6.6L1,289v0.1c-1.4,4.1-1.3,7.4,0.3,10
			c1.4,2.5,3.9,3.8,7.5,3.8H96l12.6-32.1H79.8L79.8,270.8z"/>
	</g>
	<path class="st1" d="M36.6,200.9c-1.3,1.5-2.7,4-4,7.3l-10.5,26.9l33.6,1.5l3.9-9.9c0.2-0.6,0.6-1.3,1.2-1.9
		c1.2-1.3,2.7-1.9,4.6-1.9h34.4l-2.5,6.1h27.5l12.6-32.1H46C42.1,196.9,39,198.3,36.6,200.9"/>
	<path class="st2" d="M64.1,241.3l-43.9-1.9l43.1,9c25.4,4.6,46.6,13.1,63.6,25.4c8.3,6.1,14.3,11.9,17.8,17.3l7.7,11.9l-2.1-33.5
		l31.3-10.8l-11.6-2.9c-6.4-1.6-13.4-3.1-21-4.5l-2.4-37.1l-23,32.7C103.7,243.8,83.9,241.9,64.1,241.3"/>
	<path class="st1" d="M294.2,196.9h-34.4l-28.4,72.8c-1,2.6-1.9,4.3-2.7,5.1c-1.2,1.3-3.1,2-5.7,2h-21.2c-1.5,0-2.5-0.6-3-1.7
		c-0.3-0.7-0.3-1.4-0.1-2.3l29.9-75.9h-34.4l-21.5,55l24.2,6l-30.8,10.6l-4.2,10.8c-1.7,4.3-2.7,7.5-3.2,9.6c-0.6,3.5-0.2,6.5,1,8.9
		c2,3.5,5.9,5.2,11.7,5.2h65.6c6.8,0,12.2-2.2,16.2-6.7c2.4-2.6,4.7-7.1,7.1-13.4L294.2,196.9L294.2,196.9z"/>
	<path class="st1" d="M364.8,229.1h27l6.9-17.7c0.9-2.3,1.4-4.1,1.7-5.4c0.3-2.1,0-3.9-0.9-5.4c-1.3-2.4-3.7-3.6-7.3-3.6h-78.8
		c-3.9,0-7,1.3-9.3,3.9c-1.3,1.5-2.7,4-4.1,7.3l-21.2,54.2h65.7l-5.7,14.4h-38.5l2.2-6.1h-27l-7.7,19.7c-0.6,1.7-1,3.2-1.1,4.5
		c-0.1,1.6,0.3,3,1,4.4c1.3,2.4,3.8,3.6,7.5,3.6H354c3.9,0,7.1-1.3,9.3-3.9c1.3-1.5,2.7-4,4-7.3l21.6-55.3h-65.8l5.2-13.4h38.7
		L364.8,229.1L364.8,229.1z"/>
	<path class="st1" d="M455.4,254.1h-16l16-24.3V254.1L455.4,254.1z M438.7,196.9l-69.6,106h38.2l15-22.9h33v22.9h32.7v-106H438.7
		L438.7,196.9z"/>
	<path class="st1" d="M494.6,297.4h1.2c0.3,0,0.5,0,0.6-0.1c0.1-0.1,0.3-0.2,0.3-0.3c0.1-0.1,0.1-0.3,0.1-0.5c0-0.3-0.1-0.5-0.2-0.6
		c-0.2-0.2-0.4-0.2-0.7-0.2h-1.4V297.4L494.6,297.4z M494.1,300.4v-5.3h1.9c0.4,0,0.7,0,0.9,0.1c0.2,0.1,0.4,0.3,0.5,0.5
		c0.1,0.2,0.2,0.5,0.2,0.8c0,0.4-0.1,0.7-0.3,1c-0.2,0.3-0.5,0.4-0.9,0.5c0.2,0.1,0.3,0.2,0.4,0.3c0.2,0.2,0.3,0.4,0.5,0.7l0.8,1.5
		h-0.7l-0.6-1.1c-0.2-0.4-0.4-0.7-0.5-0.9c-0.1-0.2-0.2-0.3-0.3-0.3c-0.1-0.1-0.3-0.1-0.5-0.1h-0.7v2.4H494.1L494.1,300.4z"/>
	<path class="st1" d="M495.6,293.6c-2.4,0-4.3,1.9-4.3,4.3c0,2.4,1.9,4.3,4.3,4.3c2.4,0,4.3-1.9,4.3-4.3
		C499.8,295.5,497.9,293.6,495.6,293.6L495.6,293.6z M495.6,302.3c-2.4,0-4.4-2-4.4-4.4c0-2.4,2-4.4,4.4-4.4c2.4,0,4.4,2,4.4,4.4
		C500,300.3,498,302.3,495.6,302.3L495.6,302.3z"/>
</g>
</svg>
